<svg version="1.1" id="Ebene_1" xmlns="http://www.w3.org/2000/svg" xmlns:xlink="http://www.w3.org/1999/xlink" x="0px" y="0px"
	 width="32px" height="32px" viewBox="690.5 931.5 32 32" enable-background="new 690.5 931.5 32 32" xml:space="preserve">
<path fill="#010202" d="M697.562,958.151C697.579,958.063,698.074,958.153,697.562,958.151L697.562,958.151z M707.461,962.5
	c0.071,0,0.136-0.021,0.203-0.021c-0.061-0.02-0.136,0.027-0.185-0.044C707.454,962.46,707.472,962.479,707.461,962.5z
	 M697.891,940.478c-0.002,0.005-0.002,0.009-0.003,0.014C697.896,940.464,697.899,940.444,697.891,940.478z M696.971,940.085
	c0.023,0.059,0.035,0.14,0.071,0.179C697.166,940.159,697.03,940.068,696.971,940.085z M701.528,944.617
	c0.005,0.001,0.01,0.001,0.013,0.003C701.486,944.601,701.389,944.573,701.528,944.617z M706.178,937.647
	C706.451,937.628,706.404,937.35,706.178,937.647L706.178,937.647z M697.067,938.261
	C696.69,938.693,697.134,938.189,697.067,938.261L697.067,938.261z M698.789,938.579
	C698.466,938.449,698.681,938.685,698.789,938.579L698.789,938.579z M697.888,940.491c0.001-0.005,0.001-0.008,0.003-0.014
	C697.851,940.634,697.874,940.543,697.888,940.491z M705.198,939.397c0,0,0,0,0,0.002
	C705.249,939.484,705.225,939.443,705.198,939.397z M699.524,944.892C699.824,944.787,699.487,944.901,699.524,944.892
	L699.524,944.892z M717.245,942.085c-0.125-0.014-0.199-0.111-0.191-0.244c0.327-0.097,0.768-0.339,1.108-0.225
	c0.047,0.014,0.114-0.072,0.175-0.112c-0.04-0.053-0.084-0.146-0.128-0.159c-0.323-0.081-0.637-0.173-0.967-0.045
	c-0.438,0.167-0.833-0.369-1.109-0.615c-0.017,0.008-0.03,0.015-0.033,0.022c0.03,0.138,0.047,0.276,0.178,0.388
	c0.064,0.067,0.104,0.167,0.166,0.252c0.033,0.056,0.067,0.111,0.107,0.166c0.02,0.039,0.055,0.077,0.088,0.114
	c0.122,0.194,0.246,0.393,0.395,0.577c0.216,0.148,0.466,0.187,0.73,0.123c0.081-0.003,0.146-0.012,0.179,0.077
	c-0.135,0.071-0.253,0.134-0.394,0.216c0.269,0.28,0.56,0.155,0.855,0.201c-0.296-0.045-0.047-0.153,0,0
	c-0.047-0.153-0.023-0.263,0.114-0.311c0.102-0.038,0.22-0.07,0.357-0.109c-0.036-0.039-0.064-0.082-0.094-0.118
	c-0.195-0.187-0.445-0.225-0.688-0.172C717.801,942.175,717.525,942.11,717.245,942.085z M701.081,947.818
	c-0.042-0.127-0.082-0.231-0.125-0.352c0.012-0.044,0.04-0.105,0.067-0.183c-0.074-0.012-0.141-0.017-0.202-0.024
	c-0.129,0.314,0.169,0.512,0.165,0.784c0.113,0.014,0.223,0.023,0.379,0.045c-0.042-0.119-0.076-0.212-0.108-0.306
	C701.194,947.794,701.145,947.807,701.081,947.818z M718.732,956.536c0.021,0.032,0.061,0.046,0.088,0.076
	c-1.814,2.389-4.233,4.176-7.037,5.109c0.022-0.023,0.043-0.044,0.063-0.067c-0.373-0.287-0.646-0.668-0.847-1.14
	c-0.053,0.218-0.087,0.391-0.134,0.566c-0.037,0.115-0.09,0.229-0.129,0.344c-0.06,0.232-0.117,0.472-0.178,0.708
	c-0.425,0.098-0.868,0.115-1.307,0.175c0.058-0.026,0.121-0.044,0.175-0.074c0.209-0.114,0.404-0.255,0.603-0.391
	c0.186-0.128,0.365-0.264,0.404-0.525c0.051-0.317,0.196-0.604,0.331-0.883c0.08-0.162,0.165-0.318,0.242-0.477
	c0.099-0.206,0.186-0.085,0.313,0.008c0.06-0.068,0.108-0.142,0.147-0.229c0.342-0.459,0.682-0.919,1.113-1.298
	c0.205-0.181,0.425-0.348,0.641-0.508c0.245-0.169,0.494-0.326,0.748-0.477c0.171-0.098,0.34-0.195,0.519-0.266
	c0.502-0.19,1.254-0.57,1.81-0.461c0.023,0.006,0.054-0.021,0.084-0.042c-0.02-0.033-0.036-0.066-0.061-0.089
	c-0.239-0.258-0.371-0.58-0.498-0.902c-0.023-0.052-0.058-0.109-0.071-0.17c-0.037-0.17-0.044-0.355-0.118-0.516
	c-0.208-0.442-0.182-0.9-0.118-1.369c0.038-0.327,0.082-0.655,0.123-0.986c0.006-0.064,0.002-0.127,0.016-0.184
	c0.139-0.62,0.272-1.233,0.384-1.852c0.007-0.05,0.007-0.099,0.007-0.147c-0.036,0.054-0.044,0.12-0.074,0.17
	c-0.175,0.304-0.083,0.668-0.259,0.931c-0.078,0.108-0.161,0.108-0.196-0.015c-0.063-0.178-0.104-0.368-0.158-0.554
	c0.027,0.092,0.024,0.077,0.018,0.044c0.007,0.033,0.01,0.048-0.018-0.044c-0.01-0.064-0.04-0.133-0.076-0.225
	c-0.064,0.045-0.103,0.058-0.108,0.075c-0.118,0.28-0.304,0.522-0.401,0.826c-0.316,0.974-0.759,1.896-1.18,2.826
	c-0.287,0.638-0.529,1.321-0.906,1.922c-0.143,0.239-0.232,0.521-0.354,0.785c-0.206,0.452-0.463,0.878-0.715,1.309
	c-0.273,0.471-0.522,0.952-0.796,1.428c-0.219,0.387-0.466,0.945-0.814,1.232c-0.159,0.138-0.305,0.283-0.455,0.425
	c-0.108,0.101-0.212,0.223-0.337,0.293c-0.18,0.108-0.385,0.172-0.577,0.267c-0.11,0.054-0.099,0.141-0.051,0.213
	c-0.127,0.01-0.253,0.032-0.385,0.039c-0.013-0.047-0.03-0.091-0.046-0.142c-0.135-0.168-0.126-0.319,0.043-0.461
	c-0.29-0.062-0.12-0.357-0.259-0.499c-0.232,0.054,0,0.37-0.188,0.397c-0.088,0.021-0.152-0.023-0.186-0.117
	c-0.027-0.088-0.068-0.166-0.102-0.261c-0.143,0.088-0.084,0.176-0.084,0.263c0.016,0.155-0.048,0.196-0.192,0.143
	c-0.034-0.014-0.061-0.034-0.088-0.048c0-0.054,0.074-0.195-0.026-0.223c-0.091-0.02-0.468,0.398-0.461,0.041
	c0.006-0.139-0.105-0.195-0.166-0.296c-0.054,0.27-0.024,0.525,0.138,0.754c0.075,0.102,0.098,0.189-0.003,0.29
	c0.039,0.055,0.086,0.111,0.125,0.163c-0.082-0.005-0.159-0.021-0.238-0.024c0.012-0.02,0.022-0.038,0.035-0.059
	c-0.02-0.016-0.054-0.06-0.091-0.063c-0.111-0.01-0.168,0.034-0.202,0.092c-0.101-0.008-0.202-0.021-0.303-0.031
	c-0.02-0.175-0.2-0.394-0.273-0.454c-0.223-0.18-0.455-0.338-0.688-0.513c-0.034-0.021-0.081-0.026-0.122-0.044
	c-0.006,0.018-0.018,0.034-0.028,0.044c0.047,0.051,0.09,0.108,0.143,0.154c0.091,0.082,0.357,0.499,0.58,0.77
	c-0.061-0.008-0.124-0.01-0.182-0.021c-0.003-0.003-0.003-0.011-0.007-0.014c-0.186-0.208-0.374-0.418-0.563-0.62
	c-0.125-0.135-0.228-0.279-0.403-0.354c-0.094-0.037-0.178-0.077-0.264,0.018c0.064,0.195,0.12,0.384,0.185,0.573
	c0.063,0.171,0.203,0.235,0.368,0.279c0.061,0.014,0.118,0.041,0.175,0.064c-1.2-0.232-2.344-0.613-3.426-1.14
	c0.091,0.007,0.183,0.044,0.275,0.01c0.369-0.124,0.747-0.181,1.141-0.175c0.241,0.002,0.495-0.023,0.735-0.076
	c0.165-0.034,0.325-0.054,0.488-0.027c0.12,0.02,0.234,0.031,0.357,0.044c0.005-0.017,0.017-0.036,0.03-0.051
	c-0.273-0.369-0.586-0.687-1.055-0.799c-0.106-0.051-0.212-0.102-0.315-0.157c-0.386-0.066-0.781-0.126-1.17-0.185
	c-0.494-0.068-0.969,0.223-0.6-0.571c0.264-0.562,0.659-1.045,0.965-1.587c0.153,0.171,0.145,0.187,0.049,0.318
	c-0.14,0.2-0.265,0.422-0.364,0.653c-0.047,0.09-0.426,0.594-0.283,0.702c0.111,0.001,0.223-0.022,0.323-0.079
	c0.251,0,0.493,0.038,0.725,0.124c0.048,0.029,0.076,0.095,0.127,0.166c0.435-0.025,1.195,0.472,1.532,0.721
	c0.255,0.19,0.497,0.395,0.736,0.59c0.196,0.154,0.398,0.298,0.591,0.46c0.084,0.067,0.134,0.175,0.225,0.236
	c0.098,0.061,0.121,0.142,0.061,0.22c-0.087,0.097-0.145,0.002-0.198-0.064c-0.075-0.074-0.135-0.169-0.273-0.132
	c0.098,0.293,0.381,0.408,0.549,0.616c0.311,0.397,0.192-0.721,0.179-0.579c0.023-0.227,0.044-0.448,0.084-0.667
	c0.027-0.122,0.101-0.146,0.202-0.08c0.091,0.078,0.162,0.169,0.222,0.274c0.122-0.047,0.222-0.084,0.319-0.13
	c0.132-0.051,0.267-0.091,0.411-0.051c0.03,0.004,0.078-0.014,0.115-0.024c0.631-0.126,1.462-0.237,1.935-0.713
	c0.132-0.123,0.208-0.289,0.32-0.455c0.046,0.027,0.104,0.054,0.185,0.09c-0.057,0.157-0.185,0.299-0.09,0.458
	c0.09,0.144,0.046,0.248-0.071,0.319c-0.166,0.095-0.305,0.234-0.517,0.244c-0.127,0.005-0.252,0.039-0.384,0.067
	c-0.191,0.018-0.371,0.068-0.539,0.152c-0.231,0.15-0.231,0.15,0.011,0.305c-0.021,0.068-0.037,0.125-0.071,0.223
	c0.323-0.061,0.6-0.151,0.917-0.289c0.011,0.135,0.024,0.249,0.044,0.411c0.107-0.213,0.198-0.432,0.329-0.63
	c0.24-0.354,0.492-0.707,0.739-1.059c0.06-0.1,0.117-0.208,0.182-0.311c-0.037,0.059,0.377-0.647,0.256-0.577
	c0.146-0.083,0.125-0.255,0.186-0.381c0.188-0.369,0.374-0.744,0.565-1.112c0.014-0.024,0.055-0.034,0.092-0.064
	c0.051,0.104,0.091,0.196,0.138,0.288c0.023-0.002,0.038-0.003,0.062-0.005c0.013-0.057,0.03-0.119,0.05-0.181
	c0.017-0.068,0.035-0.148,0.064-0.212c0.097-0.199,0.199-0.39,0.297-0.585c0.19-0.374,0.384-0.749,0.553-1.138
	c0.07-0.172,0.106-0.353,0.191-0.521c0.247-0.533,0.815-1.31,0.836-1.898c-0.095,0.088-0.185,0.14-0.236,0.21
	c-0.27,0.403-0.319,0.715-0.733,1.025c-0.156,0.124-0.321,0.241-0.496,0.344c-0.092,0.059-0.217,0.074-0.323,0.115
	c-0.408,0.149-0.806,0.302-1.221,0.456c0.007,0.146-0.014,0.334,0.023,0.514c0.074,0.348,0.021,0.687-0.026,1.029
	c-0.014,0.083,0.008,0.181-0.034,0.244c-0.31,0.498-0.182,1.219-0.545,1.698c-0.258,0.338-0.595,0.587-0.978,0.777
	c-0.502,0.255-1.005,0.503-1.533,0.713c-0.139,0.055-0.277,0.121-0.423,0.143c-0.211,0.024-0.433,0.009-0.656,0.021
	c-0.502,0.027-0.894-0.194-1.257-0.521c-0.205-0.188-0.435-0.354-0.669-0.511c-0.208-0.138-0.452-0.224-0.644-0.371
	c-0.306-0.223-0.637-0.412-0.885-0.703c-0.186-0.211-0.417-0.39-0.574-0.622c-0.219-0.332-0.477-0.643-0.624-1.023
	c-0.053-0.129-0.157-0.238-0.256-0.382c-0.104,0.168-0.192,0.294-0.26,0.428c-0.143,0.295-0.288,0.639-0.414,0.949
	c-0.126,0.331-0.245,0.671-0.369,1.009c-0.101,0.281-0.165,0.584-0.24,0.874c-0.023,0.114-0.042,0.227-0.046,0.343
	c0.001,0.183-0.016,0.36-0.029,0.541c-0.278-0.163-0.567-0.307-0.836-0.489c-0.078-0.175-0.15-0.353-0.16-0.551
	c0-0.008-0.019-0.019-0.024-0.034c-0.294-0.695-0.563-1.398-0.814-2.111c-0.125-0.335-0.227-0.686-0.349-1.025
	c-0.171-0.478-0.46-0.966-0.563-1.468c-0.066-0.346-0.276-0.634-0.344-0.98c-0.03-0.149-0.111-0.286-0.165-0.432
	c-0.114-0.311-0.351-0.732-0.391-1.062c-0.052-0.511-0.338-1.044-0.52-1.517c-0.101-0.263-0.209-0.525-0.307-0.786
	c-0.228-0.64-0.457-1.28-0.679-1.919c-0.301-0.852-0.622-1.695-0.958-2.532c-0.096-0.244-0.24-0.479-0.299-0.734
	c-0.057-0.25-0.174-0.469-0.252-0.708c-0.036-0.118-0.091-0.234-0.146-0.37c-0.074,0.065-0.129,0.113-0.186,0.156
	c0.164,0.251,0.192,0.504,0.435,0.691c-0.044,0.09-0.081,0.172-0.118,0.261c0.261,0.093,0.269,0.111,0.098,0.329
	c0.146,0.239,0.144,0.557,0.375,0.768c0.034,0.088,0.056,0.179,0.081,0.27c0.179,0.199,0.194,0.437,0.18,0.684
	c0.307,0.067,0.073,0.345,0.265,0.494c0.128,0.1,0.096,0.231,0.13,0.346c0.055,0.182,0.192,0.449,0.296,0.599
	c0.108,0.153,0.127,0.377,0.154,0.574c0.02,0.231,0.095,0.439,0.182,0.648c0.073,0.18,0.089,0.385,0.146,0.575
	c0.012,0.052,0.076,0.089,0.133,0.147c0.078,0.238,0.17,0.502,0.252,0.767c0.037,0.125,0.058,0.255,0.084,0.38
	c0.009,0.029,0.015,0.065,0.036,0.093c0.136,0.215,0.228,0.454,0.243,0.708c0.037,0.135,0.103,0.242,0.204,0.327
	c-0.023,0.053-0.048,0.103-0.064,0.142c0.313,0.292,0.24,0.765,0.422,1.135c0.101,0.205,0.134,0.326,0.181,0.548
	c0.049,0.004,0.104,0.007,0.173,0.008c0.069,0.206,0.08,0.411,0.027,0.62c0.118,0.104,0.219-0.131,0.311,0.052
	c-0.044,0.042-0.09,0.084-0.137,0.131c0.046,0.056,0.091,0.098,0.132,0.144c-0.029,0.047-0.047,0.084-0.056,0.101
	c0.091,0.116,0.17,0.219,0.25,0.323c-0.185,0.13-0.183,0.173,0.005,0.286c0.082,0.105,0.134,0.218,0.165,0.345
	c0.075,0.121,0.163,0.23,0.255,0.358c-0.186,0.1,0.071,0.255-0.03,0.335c0.03,0.098,0.196,0.381,0.188,0.496
	c-0.004,0.047,0,0.098,0.018,0.14c0.128,0.326,0.273,0.632,0.425,0.948c-0.003,0.02-0.029,0.08-0.056,0.15
	c0.061,0.023,0.109,0.038,0.178,0.061c-0.039,0.052-0.076,0.092-0.104,0.13c0.175,0.213,0.245,0.457,0.284,0.714
	c-0.408-0.297-0.757-0.668-1.135-1.007c-0.062-0.161-0.144-0.292-0.254-0.24c0,0.005,0.001,0.01,0.001,0.015
	c-0.283-0.267-0.59-0.503-0.854-0.791c0.027-0.049,0.05-0.086,0.084-0.146c-0.003-0.005-0.037-0.083-0.022-0.093
	c0.188-0.14,0.246-0.36,0.362-0.549c0.11-0.18,0.128-0.376,0.145-0.559c0.019-0.255-0.217-0.647-0.305-0.864
	c-0.068-0.194-0.138-0.392-0.208-0.587c-0.032-0.088-0.077-0.167-0.118-0.255c-0.078-0.211-0.155-0.419-0.236-0.629
	c-0.012-0.043-0.034-0.077-0.062-0.146c-0.324,0.253-0.386,1.128-0.593,1.226c-0.124,0.054-0.125,0.129-0.042,0.225
	c0.045,0.063,0.087,0.134,0.116,0.181c-0.076,0.095-0.161,0.153-0.182,0.234c-0.027,0.167-0.038,0.337-0.053,0.508
	c-0.125-0.174-0.27-0.326-0.386-0.506c0.006,0.005,0.017,0.012,0.025,0.018c0.013-0.007,0.033-0.017,0.055-0.022
	c0.004-0.188,0.005-0.376,0.008-0.565c0-0.006-0.046-0.012-0.079-0.024c-0.034,0.14-0.054,0.278-0.178,0.378
	c-0.321-0.504-0.562-1.064-0.829-1.608c0.042-0.071,0.081-0.141,0.121-0.215c0.158,0.038,0.12,0.181,0.154,0.289
	c0.109-0.141,0.109-0.156,0.109-0.47c-0.177-0.072-0.229-0.19-0.153-0.389c0.096-0.273-0.349-0.459-0.523-0.468
	c-0.134-0.01-0.193,0.082-0.249,0.177c-0.07-0.173-0.112-0.36-0.177-0.538c0.121-0.01,0.241-0.039,0.359-0.059
	c0.162-0.006,0.3,0.053,0.418,0.175c0.197,0.1,0.839,0.296,1.023,0.038c0.111-0.157,0.202-0.321,0.305-0.487
	c-0.268-0.045-0.366,0.484-0.622,0.356c-0.219-0.118-0.437-0.236-0.642-0.379c-0.118-0.08-0.113-0.168-0.019-0.279
	c0.064-0.075,0.14-0.152,0.228-0.244c-0.175-0.116-0.317-0.226-0.545-0.191c-0.262,0.039-0.528,0.047-0.793,0.067
	c-0.03-0.102-0.06-0.201-0.087-0.304c0.094-0.005,0.188-0.012,0.283-0.02c0.057-0.006,0.118-0.027,0.167-0.02
	c0.174,0.036,0.339,0.021,0.511-0.03c0.151-0.049,0.31-0.097,0.466-0.154c0.088-0.027,0.162-0.043,0.199,0.067
	c0.091,0.239,0.256,0.396,0.496,0.491c0.043,0.121,0.113,0.219,0.208,0.3c0.029-0.272-0.064-0.438-0.295-0.545
	c-0.045-0.025-0.089-0.065-0.131-0.1c-0.12-0.114-0.126-0.154,0.006-0.262c0.209-0.158,0.061-0.59-0.201-0.603
	c-0.178-0.009-0.343-0.044-0.525,0.036c-0.263,0.123-0.673,0.01-0.891,0.223c-0.119,0.11-0.2,0.093-0.326,0.055
	c-0.042-0.014-0.086,0.001-0.131-0.008c-0.029-0.124-0.077-0.237-0.104-0.359c0.084-0.018,0.21-0.062,0.188-0.129
	c-0.074-0.219,0.088-0.376,0.204-0.463c0.215-0.168,0.211-0.319,0.157-0.559c-0.047-0.214,0.03-0.453,0.02-0.679
	c-0.007-0.136,0.051-0.23,0.111-0.321c0.072-0.094,0.16-0.181,0.258-0.239c0.175-0.111,0.248-0.318,0.194-0.501
	c-0.135,0.149-0.248,0.278-0.364,0.403c-0.045,0.049-0.104,0.086-0.167,0.112c-0.208,0.108-0.421,0.202-0.627,0.308
	c-0.072,0.036-0.145,0.082-0.216,0.124c-0.02-0.231-0.052-0.459-0.063-0.692c0.034-0.027,0.069-0.049,0.101-0.078
	c0.138-0.126,0.28-0.281,0.337-0.455c0.12-0.347-0.035-0.925,0.174-1.225c0.27-0.382-0.172-1.124-0.296-1.486
	c-0.046-0.128-0.093-0.262-0.14-0.39c0.091-0.559,0.238-1.09,0.381-1.627c0.083,0.017,0.16,0.029,0.221-0.065
	c-0.079-0.073-0.132-0.098-0.175-0.091c0.055-0.202,0.109-0.403,0.174-0.602c0.019,0.019,0.047,0,0.063,0.03
	c0.092,0.184,0.037,0.278,0.107,0.445c0.111,0.25,0.078,0.371-0.15,0.524c-0.023,0.015-0.047,0.028-0.088,0.062
	c0.192,0.106,0.223,0.275,0.203,0.465c-0.022,0.206,0.197,0.527,0.274,0.706c0.139-0.292,0.093-0.573,0.064-0.888
	c-0.022-0.197,0.113-0.3,0.221-0.421c0.177-0.202,0.366-0.398,0.534-0.604c0.121-0.145,0.339-0.225,0.546-0.186
	c0.102,0.021,0.204,0.007,0.305,0.031c0.09,0.017,0.176,0.063,0.265,0.093c0.012-0.015,0.027-0.027,0.042-0.042
	c-0.025-0.047-0.041-0.104-0.073-0.15c-0.349-0.511-0.068-1.376-0.061-1.95c0.004-0.366,0.185-0.626,0.415-0.877
	c0.084-0.091,0.161-0.188,0.242-0.281c0.278-0.315,0.604-0.583,0.875-0.911c0.223-0.271,0.373-0.888,0.655-1.08
	c0.149-0.103,0.113-0.327,0.3-0.379c0.052-0.215,0.212-0.398,0.176-0.635c-0.039-0.167-0.029-0.33,0.035-0.487
	c0.185,0.105,0.038,0.25,0.097,0.364c0.181-0.021,0.197-0.4,0.103-0.494c-0.069-0.075-0.138-0.15-0.209-0.23
	c0.088-0.11,0.194-0.128,0.27-0.035c0.18,0.225,0.378,0.44,0.356,0.765c-0.037,0.629-0.1,1.109-0.3,1.721
	c-0.113,0.335-0.135,0.664,0.022,0.989c0.021,0.039,0.063,0.066,0.127,0.128c0.126-0.199,0.25-0.367,0.352-0.553
	c0.12-0.217,0.3-0.26,0.505-0.365c0.269-0.142,0.585-0.151,0.817-0.341c0.213-0.168,0.413-0.356,0.623-0.523
	c0.335-0.262,0.533-0.285,0.75-0.639c0.021,0.021,0.036,0.036,0.055,0.054c-0.013,0.075-0.028,0.153-0.047,0.279
	c0.292-0.172,0.386-0.49,0.661-0.646c0.014,0.063,0.032,0.118,0.051,0.183c0.273-0.046,0.244-0.373,0.148-0.553
	c-0.042-0.081-0.069-0.169-0.101-0.253c-0.116-0.101-0.219-0.212-0.3-0.342c-0.024-0.099-0.011-0.204-0.012-0.344
	c0.076,0.015,0.148,0.01,0.19,0.044c0.252,0.197,0.47,0.417,0.674,0.667c0.278,0.345-0.042,0.563-0.248,0.758
	c-0.143,0.133-0.283,0.274-0.438,0.43c-0.044-0.066-0.073-0.109-0.1-0.15c-0.323,0.337-0.679,0.636-0.938,1.001
	c-0.322,0.453-0.689,0.88-0.905,1.418c-0.007,0.018-0.059,1.348-0.221,0.96c-0.075-0.187-0.34-0.628-0.218-0.829
	c0.121-0.214,0.235-0.437,0.375-0.637c0.174-0.231,0.381-0.432,0.556-0.664c0.125-0.172,0.216-0.373,0.325-0.56
	c-0.015-0.014-0.03-0.027-0.042-0.039c-0.05,0.03-0.128,0.044-0.165,0.088c-0.265,0.308-0.593,0.557-0.804,0.921
	c-0.288,0.5-0.87,1.074-0.62,1.707c0.016,0.049,0.043,0.102,0.049,0.153c0.008,0.164,0.086,0.299,0.182,0.428
	c0.131,0.179,0.304,0.364,0.334,0.588c-0.215-0.081-0.373-0.228-0.478-0.447c-0.36-0.303-0.785-1.208-0.531-1.646
	c0.091-0.158,0.16-0.332,0.221-0.503c0.14-0.373,0.58-0.097,0.589-0.552c-0.168,0.056-0.335,0.106-0.5,0.174
	c-0.047,0.019-0.094,0.072-0.128,0.126c-0.157,0.278-0.292,0.573-0.479,0.838c-0.126,0.186-0.185,0.382-0.232,0.588
	c-0.027,0.118,0.001,0.254-0.042,0.361c-0.089,0.21-0.037,0.41,0.005,0.605c0.222,1.023,0.862,1.634,1.732,2.13
	c0.136,0.475,0.288,0.996,0.44,1.529c-0.118,0.097-0.245,0.087-0.315-0.068c-0.112-0.265-0.12-0.806-0.454-0.896
	c-0.138-0.039-0.27-0.096-0.404-0.144c-0.344-0.123-0.73-0.222-0.954-0.536c-0.482-0.676-0.352-1.354-0.297-2.138
	c-0.057,0.019-0.103,0.019-0.114,0.035c-0.108,0.181-0.293,0.319-0.27,0.558c0.022,0.223-0.251,0.79-0.285,1.06
	c-0.062,0.437,0.214,0.912,0.449,1.257c0.052,0.071,0.146,0.115,0.229,0.163c0.144,0.09,0.299,0.172,0.451,0.26
	c-0.051,0.242,0.003,0.313,0.251,0.359c0.153,0.029,0.3,0.079,0.452,0.116c0.006,0.019,0.01,0.039,0.013,0.056
	c-0.037,0.019-0.073,0.047-0.106,0.046c-0.222-0.016-0.447,0.006-0.647-0.108c-0.181-0.101-0.369-0.179-0.553-0.27
	c-0.582-0.292-1.244-1.118-1.264-1.785c-0.014-0.364,0.055-0.699,0.213-1.024c0.048-0.097,0.071-0.209,0.106-0.323
	c-0.463,0.143-0.424,0.797-0.479,1.167c-0.02,0.141-0.052,0.283-0.078,0.422c-0.001,0.015,0,0.036-0.009,0.041
	c-0.186,0.14-0.124,0.36-0.185,0.539c-0.033,0.289,0.026,0.556,0.196,0.806c0.01,0.032,0.054,0.064,0.088,0.077
	c0.218,0.075,0.455,0.119,0.665,0.218c0.307,0.157,0.681,0.107,0.966,0.327c0.057,0.045,0.153,0.081,0.104,0.173
	c-0.057,0.098-0.162,0.061-0.222,0.005c-0.113-0.111-0.261-0.099-0.401-0.135c-0.163-0.036-0.313-0.091-0.475-0.138
	c-0.335-0.103-0.668-0.162-0.962-0.354c-0.017-0.01-0.039-0.007-0.061-0.009c-0.047,0.274,0.121,0.516,0.369,0.599
	c0.29,0.096,0.583,0.089,0.871,0.104c0.128,0.005,0.184,0.056,0.165,0.172c-0.27,0.054-0.536,0.136-0.795,0.14
	c-0.22,0.003-0.453,0.009-0.67-0.162c-0.146-0.121-0.245-0.202-0.282-0.404c-0.032-0.208-0.162-0.402-0.254-0.61
	c-0.088,0.064-0.162,0.126-0.133,0.278c0.02,0.132,0.008,0.282-0.036,0.41c-0.182,0.512-0.209,1.439,0.461,1.599
	c0.088,0.206,0.146,0.239,0.353,0.229c0.259-0.017,0.583,0.039,0.817-0.089c-0.003-0.014-0.009-0.029-0.014-0.044
	c-0.514-0.14-0.797-0.278-1.163-0.666c-0.083-0.089-0.156-0.201-0.216-0.312c-0.023-0.049-0.002-0.124-0.004-0.187
	c0.103,0.015,0.186,0.063,0.236,0.148c0.196,0.273,0.443,0.469,0.766,0.595c0.238,0.092,0.47,0.111,0.707,0.158
	c0.042,0.007,0.089-0.007,0.144-0.035c-0.421-0.123-0.869-0.189-1.164-0.543c0.009-0.022,0.016-0.045,0.027-0.065
	c0.113,0.04,0.223,0.076,0.332,0.126c0.256,0.118,0.515,0.153,0.787,0.079c0.027-0.005,0.055-0.01,0.074-0.036
	c-0.167-0.146-0.417-0.028-0.531-0.248c0.084-0.095,0.187-0.073,0.298-0.063c0.483,0.044,0.943-0.091,1.412-0.204
	c0.32-0.074,0.62-0.194,0.949-0.248c0.66-0.123,1.301-0.133,1.964-0.202c-0.094,0.333,0.204,0.426,0.326,0.618
	c0.018,0.023,0.182,0.005,0.197-0.034c0.083-0.16,0.14-0.335,0.184-0.516c0.015-0.047-0.042-0.13-0.088-0.18
	c-0.201-0.226-0.415-0.447-0.624-0.664c-0.135-0.139-0.285-0.264-0.418-0.402c-0.069-0.069-0.114-0.157-0.174-0.24
	c0.02-0.014,0.036-0.029,0.047-0.047c0.11,0.076,0.216,0.15,0.324,0.217c0.061,0.035,0.132,0.05,0.194,0.072
	c0.013-0.017,0.026-0.032,0.032-0.05c-0.327-0.369-0.697-0.727-1.08-1.045c-0.2-0.17-0.202-0.399-0.244-0.62
	c-0.035-0.19,0.015-0.4-0.128-0.573c-0.025-0.025,0.01-0.103,0.012-0.166c0.041,0.004,0.087,0.004,0.089,0.011
	c0.01,0.151,0.181,0.225,0.189,0.389c0.007,0.111,0.067,0.229,0.14,0.316c0.233,0.277,0.425,0.584,0.747,0.789
	c0.221,0.138,0.387,0.345,0.578,0.522c0.067,0.062,0.126,0.123,0.207,0.196c0.049-0.189-0.063-0.299-0.138-0.412
	c-0.208-0.306-0.421-0.612-0.646-0.908c-0.065-0.094-0.154-0.17-0.249-0.271c0.066-0.052,0.12-0.088,0.199-0.145
	c-0.104-0.114-0.228-0.223-0.31-0.349c-0.233-0.357-0.438-0.725-0.58-1.138c-0.1-0.276-0.073-0.527-0.01-0.787
	c0.051-0.238,0.215-0.532,0.333-0.745c0.113-0.212,0.229-0.427,0.473-0.566c0.047,0.164,0.024,0.281-0.043,0.402
	c-0.1,0.201-0.189,0.413-0.305,0.605c-0.165,0.282-0.177,0.607-0.288,0.903c-0.027,0.08-0.015,0.188,0.102,0.243
	c0.069-0.192,0.131-0.366,0.187-0.547c0.059-0.19,0.138-0.349,0.371-0.383c0.103,0.14,0.146,0.289,0.12,0.477
	c-0.03,0.28-0.021,0.564-0.017,0.848c0,0.049,0.039,0.106,0.072,0.142c0.238,0.221,0.482,0.434,0.725,0.651
	c0.013,0.011,0.04,0.018,0.091,0.043c-0.108-0.313-0.379-0.495-0.457-0.782c0.017-0.013,0.036-0.025,0.047-0.042
	c0.162,0.172,0.32,0.339,0.477,0.508c0.017-0.013,0.032-0.022,0.04-0.036c-0.131-0.27-0.391-0.45-0.56-0.721
	c-0.044,0.044-0.077,0.081-0.118,0.121c-0.013-0.016-0.073-0.681-0.073-0.694c-0.092-0.182-0.129-0.386-0.107-0.602
	c-0.01-0.157,0.061-0.315-0.025-0.47c-0.007-0.016,0.002-0.041,0.008-0.059c0.058-0.172,0.113-0.34,0.172-0.514
	c0.103-0.025,0.116,0.042,0.103,0.131c-0.019,0.174-0.047,0.345-0.057,0.519c-0.009,0.122-0.012,0.25,0,0.373
	c0.035,0.276,0.07,0.556,0.122,0.829c0.018,0.092,0.081,0.177,0.125,0.261c0.025-0.008,0.044-0.018,0.07-0.023
	c-0.069-0.283-0.129-0.568-0.194-0.853c-0.016-0.104,0.003-0.212,0.019-0.316c0.046-0.248,0.036-0.5,0.115-0.75
	c0.162-0.5,0.48-1.027,0.854-1.395c0.036,0.181,0.025,0.318-0.063,0.43c-0.276,0.336-0.396,0.75-0.37,1.172
	c0.02,0.005,0.033,0.014,0.057,0.021c0.317-0.543,0.57-1.026,0.962-1.544c0.212-0.276,0.399-0.542,0.555-0.855
	c0.077-0.167,0.089-0.336,0.025-0.509c-0.017-0.001-0.037-0.003-0.049-0.007c-0.008,0.059-0.023,0.12-0.023,0.18
	c0.003,0.184-0.079,0.309-0.203,0.45c-0.204,0.229-0.459,0.374-0.708,0.529c-0.076,0.042-0.173,0.041-0.246,0.083
	c-0.121,0.068-0.238,0.159-0.355,0.234c-0.106,0.067-0.181,0.049-0.212-0.04c0.293-0.278,0.571-0.538,0.829-0.808
	c0.119-0.118,0.208-0.266,0.285-0.411c0.036-0.067,0.036-0.162,0.024-0.239c-0.058-0.326-0.128-0.651-0.179-0.981
	c-0.01-0.043,0.019-0.096,0.049-0.199c0.083,0.106,0.151,0.162,0.177,0.232c0.078,0.234,0.142,0.479,0.206,0.72
	c0.038,0.123,0.067,0.25,0.103,0.391c0.385-0.189,0.133-1.19,0.185-1.519c0.069,0.037,0.175,0.062,0.194,0.116
	c0.138,0.45,0.278,0.9,0.37,1.361c0.027,0.14-0.07,0.317-0.126,0.467c-0.037,0.093-0.11,0.167-0.042,0.29
	c0.627-0.29,1.068-0.864,1.679-1.193c0.02,0.134-0.047,0.204-0.108,0.29c-0.162,0.215-0.273,0.364-0.256,0.644
	c0.088-0.038,0.152-0.069,0.209-0.104c0.287-0.174,0.5-0.366,0.765-0.562c0.043-0.032,0.104-0.041,0.158-0.059
	c0.074,0.181,0.061,0.357-0.048,0.536c0.261-0.084,0.355-0.265,0.408-0.463c0.071-0.27,0.098-0.546,0.159-0.819
	c-0.027,0.132,0.125-0.633,0.282-0.36c0.041,0.073,0.055,0.158,0.081,0.236c0.08,0.215,0.165,0.435,0.273,0.699
	c0.088-0.093,0.142-0.145,0.191-0.206c0.038-0.045,0.061-0.12,0.107-0.15c0.102-0.069,0.317-0.001,0.229,0.143
	c-0.131,0.223,0.063,0.67-0.145,0.816c-0.169,0.114-0.354,0.211-0.54,0.318c-0.044-0.162,0.277-0.266,0.095-0.476
	c-0.188,0.157-0.377,0.307-0.573,0.458c-0.016-0.013-0.034-0.026-0.053-0.039c0.215-0.285,0.39-0.584,0.326-0.943
	c-0.03-0.01-0.054-0.019-0.081-0.029c-0.036,0.111-0.08,0.215-0.098,0.324c-0.057,0.24-0.147,0.466-0.378,0.568
	c-0.282,0.126-0.49,0.354-0.767,0.488c-0.081,0.039-0.179,0.044-0.293,0.069c0.044-0.226,0.358-0.234,0.283-0.502
	c-0.172,0.072-0.715,0.264-0.782,0.477c-0.077,0.244-0.145,0.494-0.233,0.742c-0.013,0.054-0.047,0.118-0.091,0.151
	c-0.424,0.329-0.833,0.672-1.271,0.974c-0.354,0.239-0.641,0.74-0.671,1.157c-0.008,0.106-0.007,0.221-0.025,0.328
	c-0.042,0.202-0.002,0.321,0.195,0.47c0.021-0.054,0.054-0.106,0.047-0.153c-0.037-0.36,0.179-0.631,0.325-0.927
	c0.029-0.047,0.045-0.103,0.073-0.148c0.048-0.083,0.092-0.175,0.158-0.238c0.228-0.205,0.586-0.195,0.745-0.338
	c0.142-0.12,0.28-0.091,0.418-0.005c0.145-0.196,0.323-0.333,0.555-0.413c0.095-0.027,0.172-0.108,0.244-0.183
	c0.216-0.216,0.815-0.936,1.108-0.899c-0.022,0.115-0.043,0.229-0.071,0.366c0.074-0.029,0.128-0.043,0.216-0.075
	c0.007,0.017,0.018,0.042,0.027,0.07c0.058,0.158-0.03,0.286-0.115,0.408c-0.084,0.138-0.174,0.285-0.293,0.396
	c-0.242,0.227-0.504,0.433-0.754,0.654c-0.051,0.042-0.105,0.091-0.142,0.143c-0.166,0.25-0.313,0.504-0.492,0.773
	c0.114,0.075,0.226,0.159,0.351,0.228c0.121,0.068,0.158,0.162,0.165,0.302c0.016,0.271,0.084,0.536,0.087,0.806
	c0.013,0.274-0.014,0.552-0.031,0.827c0,0.035-0.037,0.069-0.084,0.136c-0.067-0.18-0.118-0.329-0.148-0.414
	c-0.162-0.11-0.283-0.193-0.398-0.277c-0.185-0.138-0.364-0.29-0.553-0.425c-0.142-0.097-0.293-0.684-0.348-0.708
	c-0.235-0.102-0.101-0.297-0.116-0.458c-0.042-0.01-0.081-0.022-0.14-0.044c0.129-0.204,0.253-0.406,0.384-0.615
	c-0.054,0.007-0.111,0.021-0.177,0.032c-0.011-0.014-0.02-0.025-0.023-0.039c0.099-0.086,0.24-0.157,0.305-0.268
	c0.074-0.137,0.236-0.113,0.32-0.229c-0.152-0.088-0.529,0.126-0.669,0.193c-0.351,0.172-0.412,0.715-0.489,1.021
	c-0.079,0.314-0.023,0.61,0.12,0.886c0.099,0.192,0.243,0.361,0.337,0.549c0.083,0.168,0.13,0.349,0.08,0.544
	c-0.042,0.138-0.032,0.289-0.058,0.43c-0.083,0.417-0.197,0.831-0.224,1.259c-0.002,0.041-0.051,0.081-0.083,0.12
	c-0.012-0.008-0.03-0.015-0.049-0.023c0.007-0.098-0.026-0.187-0.101-0.251c-0.265-0.032-0.282-0.256-0.364-0.434
	c0.006-0.085-0.029-0.15-0.11-0.188c-0.103,0.05-0.135,0.126-0.098,0.225c-0.013,0.319-0.017,0.643-0.01,0.962
	c0.022,0.262-0.042,0.492-0.223,0.69c-0.066,0.065-0.113,0.149-0.167,0.229c0.012,0.015,0.025,0.025,0.037,0.041
	c0.064-0.02,0.146-0.029,0.2-0.067c0.456-0.288,0.881-0.58,1.297-0.92c0.041-0.025,0.091-0.042,0.139-0.043
	c0.347-0.002,0.31-0.435,0.586-0.621c-0.003,0.113,0.017,0.187-0.014,0.242c-0.367,0.859-0.709,1.313-1.549,1.728
	c-0.195,0.099-0.404,0.189-0.61,0.277c-0.246,0.103-0.494,0.205-0.743,0.291c-0.136,0.047-0.278,0.063-0.418,0.084
	c-0.236,0.04-0.472,0.076-0.707,0.12c-0.125,0.023-0.237,0.067-0.359,0.104c-0.127,0.041-0.258,0.083-0.381,0.133
	c-0.057,0.02-0.374,0.479-0.347,0.529c0.083,0.14,0.166-0.023,0.258-0.02c-0.123,0.235-0.239,0.468-0.382,0.743
	c0.117-0.012,0.187-0.019,0.263-0.027c-0.002,0.105-0.002,0.209-0.003,0.342c0.107-0.044,0.179-0.078,0.263-0.106
	c0.041,0.167-0.057,0.291-0.12,0.416c-0.056,0.115-0.063,0.204,0,0.31c0.063,0.102,0.084,0.217,0.044,0.342
	c-0.042-0.012-0.081-0.012-0.09-0.023c-0.113-0.265-0.155-0.738-0.345-0.938c-0.045,0.103-0.128,0.17-0.236,0.2
	c-0.045-0.088-0.044-0.168,0.003-0.244c-0.507-0.091-0.142,0.896-0.408,0.95c-0.027,0.005-0.044,0.097-0.061,0.147
	c0.141,0.049,0.281-0.159,0.374,0.029c0.026,0.048-0.025,0.143-0.047,0.252c0.001,0.013,0.039,0.054,0.069,0.1
	c0.025-0.008,0.212-0.056,0.217-0.032c0.041,0.151,0.181,0.105,0.302,0.156c-0.041,0.082-0.076,0.157-0.115,0.229
	c0.133,0.148,0.189-0.145,0.325-0.044c-0.008,0.087-0.007,0.169,0.019,0.249c0.204,0.006,0.175,0.226,0.3,0.311
	c0.095,0.07,0.218,0.174,0.109,0.334c-0.19,0.064-0.232-0.102-0.294-0.185c-0.233-0.071-0.45-0.11-0.683-0.143
	c-0.01,0.076-0.049,0.133-0.118,0.171c-0.084,0.024-0.155-0.194-0.212-0.226c-0.012,0.001-0.027,0-0.041,0.004
	c-0.081,0.037-0.173,0.122-0.248,0.104c-0.119-0.028-0.101-0.173-0.099-0.268c0.003-0.222,0.03-0.44-0.128-0.631
	c-0.02-0.026-0.008-0.093-0.008-0.138c0-0.072,0.008-0.148,0.015-0.218c-0.015-0.01-0.024-0.02-0.039-0.026
	c-0.057,0.043-0.119,0.081-0.166,0.135c-0.15,0.169-0.29,0.344-0.433,0.518c-0.054,0.061-0.075,0.12-0.041,0.205
	c0.188,0.481,0.335,0.875,0.374,1.387c0.007,0.08,0.015,0.15,0.034,0.258c0.135-0.115,0.256-0.206,0.367-0.312
	c0.278-0.261,0.633-0.352,0.98-0.46c0.041-0.01,0.093,0.013,0.139,0.021c0.062,0.004,0.138,0.046,0.176,0.018
	c0.135-0.083,0.253-0.038,0.373,0.022c0.371,0.181,0.736,0.368,1.117,0.527c0.142,0.055,0.313,0.187,0.444,0.048
	c0.121,0.007,0.241,0.033,0.362,0.065c0.238,0.176,0.577,0.019,0.833,0.074c0.14,0.03,0.19-0.082,0.244-0.153
	c0.035-0.051,0.01-0.144,0.01-0.217c-0.02-0.002-0.04-0.008-0.054-0.01c-0.055,0.064-0.109,0.131-0.165,0.198
	c-0.217-0.188-0.232-0.326-0.063-0.541c0.027-0.038,0.031-0.104,0.049-0.154c-0.021-0.007-0.038-0.012-0.047-0.022
	c-0.054,0.043-0.109,0.093-0.184,0.154c-0.142-0.237,0.184-0.348,0.133-0.563c-0.12,0.113-0.227,0.219-0.336,0.326
	c-0.023-0.007-0.037-0.015-0.06-0.021c0.011-0.081-0.007-0.177,0.031-0.241c0.09-0.134,0.076-0.247-0.021-0.358
	c-0.15-0.163,0.154-0.336,0.075-0.548c-0.052,0.123-0.125,0.222-0.224,0.311c-0.042,0.04-0.019,0.16-0.019,0.238
	c-0.217-0.063-0.285-0.18-0.245-0.463c-0.578-0.138-0.406-0.332-0.184-0.762c0.059-0.125,0.111-0.256,0.19-0.376
	c0.228-0.357,0.125,0.346,0.136,0.311c0.01,0.01,0.026,0.021,0.041,0.035c0.052-0.029,0.108-0.052,0.152-0.087
	c0.109-0.096,0.151-0.088,0.25,0.087c-0.062-0.251,0.171-0.223,0.249-0.351c0.058,0.036,0.107,0.068,0.143,0.094
	c0.241-0.176,0.471-0.338,0.713-0.521c0.03,0.056,0.048,0.1,0.091,0.176c-0.211-0.051-0.233,0.072-0.241,0.196
	c-0.492,0.212-0.979,0.647-0.936,0.938c0.206-0.208,0.396-0.402,0.614-0.614c0.017,0.145-0.199,0.161-0.069,0.317
	c0.243-0.219,0.483-0.441,0.725-0.657c0.007,0.013,0.018,0.023,0.03,0.035c-0.234,0.386-0.821,0.722-0.925,1.165
	c0.272-0.219,0.708-0.925,1.086-0.851c-0.101,0.109-0.192,0.196-0.275,0.286c-0.149,0.173-0.29,0.344-0.436,0.514
	c-0.059,0.069-0.133,0.128-0.185,0.19c-0.15,0.18-0.142,0.231,0.057,0.418c0.01-0.091,0.022-0.161,0.034-0.245
	c0.196-0.05,0.248-0.353,0.53-0.289c-0.023-0.074-0.047-0.129-0.07-0.201c0.106-0.027,0.151-0.186,0.332-0.122
	c-0.071,0.062-0.118,0.107-0.175,0.161c0.044,0.063,0.084,0.121,0.135,0.201c-0.091,0.01-0.15,0.018-0.227,0.023
	c-0.01,0.182-0.084,0.342-0.283,0.454c0.091,0.049,0.138,0.075,0.221,0.119c-0.083,0.089-0.143,0.169-0.213,0.245
	c0.144,0.171,0.131,0.232-0.097,0.388c-0.059,0.041-0.151,0.035-0.168,0.142c-0.001,0.008-0.079,0.002-0.131,0.005
	c-0.05,0.178,0.106,0.238,0.212,0.343c0.083-0.063,0.174-0.121,0.269-0.195c0.047,0.03,0.107,0.068,0.171,0.104
	c0.016-0.007,0.024-0.015,0.039-0.023c-0.047-0.105-0.093-0.213-0.136-0.32c0.017-0.007,0.028-0.016,0.043-0.021
	c0.032,0.016,0.071,0.031,0.098,0.059c0.111,0.132,0.56-0.199,0.698-0.215c0.077-0.011,0.162-0.073,0.226-0.136
	c0.296-0.282,0.583-0.572,0.873-0.859c0.135-0.137,0.293-0.22,0.488-0.253c0.155-0.029,0.316-0.077,0.476-0.133
	c0.499-0.18,0.96,0.083,1.462-0.061c0.154-0.044,0.304-0.139,0.432-0.239c0.232-0.181,0.162-0.394,0.152-0.653
	c0.073,0.044,0.138,0.083,0.201,0.122c0.068-0.098,0.031-0.146-0.044-0.201c-0.157-0.122-0.326-0.251-0.472-0.389
	c-0.066-0.063-0.107-0.155-0.151-0.24c-0.03-0.044-0.037-0.096-0.063-0.133c-0.187-0.233-0.168-0.526-0.261-0.794
	c-0.044-0.122-0.113-0.276-0.219-0.329c-0.388-0.205-0.644-0.505-0.806-0.904c-0.069-0.158-0.226-0.563-0.471-0.534
	c-0.203,0.028-0.407-0.023-0.607,0.126c-0.293,0.219-0.644,0.345-1.014,0.386c-0.148,0.013-0.304,0.005-0.435-0.104
	c-0.09-0.083-0.212-0.132-0.306-0.205c-0.095-0.069-0.087-0.143,0.027-0.179c0.054-0.02,0.118-0.005,0.182-0.001
	c0.135,0.009,0.276,0.049,0.408,0.029c0.28-0.032,0.556-0.099,0.867-0.155c-0.044-0.084-0.071-0.133-0.098-0.185
	c0.067-0.102,0.176-0.153,0.327-0.153c0.324-0.142,0.657-0.027,0.988-0.015c0.154,0.008,0.313,0.042,0.469,0.071
	c0.255,0.042,0.481,0.133,0.669,0.312c0.159,0.152,0.321,0.302,0.469,0.463c0.237,0.254,0.469,0.537,0.833,0.637
	c0.023,0.008,0.058,0.023,0.067,0.044c0.232,0.321,0.62,0.352,0.937,0.512c0.148,0.076,0.321,0.116,0.479,0.174
	c0.014-0.019,0.027-0.034,0.031-0.051c-0.011-0.035-0.018-0.092-0.048-0.106c-0.32-0.15-0.624-0.314-0.951-0.426
	c-0.175-0.057-0.288-0.152-0.376-0.293c-0.041-0.066-0.071-0.135-0.102-0.211c0.061,0.036,0.129,0.064,0.18,0.111
	c0.079,0.076,0.134,0.181,0.306,0.15c-0.033-0.066-0.062-0.128-0.101-0.172c-0.214-0.242-0.361-0.517-0.412-0.825
	c-0.054-0.32-0.293-0.47-0.499-0.657c-0.017-0.017-0.043-0.021-0.051-0.036c-0.316-0.393-0.731-0.37-1.158-0.311
	c-0.233,0.036-0.469,0.049-0.702,0.063c-0.1,0.005-0.215-0.01-0.238-0.167c0.077-0.007,0.151-0.014,0.229-0.022
	c0.03-0.16,0.172-0.223,0.301-0.278c0.29-0.124,0.593-0.219,0.877-0.342c0.229-0.098,0.45-0.094,0.677-0.036
	c0.242,0.066,0.484,0.133,0.711,0.236c0.597,0.273,1.17,0.701,1.807,0.871c0.482,0.128,0.802-0.285,1.203-0.232
	c0.256,0.035,0.411-0.128,0.563-0.274c0.047-0.032,0.034-0.159-0.003-0.22c-0.135-0.27-1.082,0.152-1.365,0.128
	c-0.196-0.012-0.388-0.083-0.577-0.159c-0.125-0.054-0.231-0.114-0.369-0.087c-0.042,0.005-0.088-0.043-0.116-0.097
	c0.213,0.106,0.469-0.007,0.679,0.16c0.07,0.063,0.226,0.044,0.337,0.048c0.229,0.005,0.469,0.041,0.704-0.097
	c-0.314-0.2-0.616-0.42-0.944-0.602c-0.141-0.085-0.3-0.162-0.459-0.243c-0.215-0.033-0.427,0.004-0.64,0.124
	c-0.188,0.057-0.387,0.013-0.484-0.128c0.044-0.018,0.084-0.047,0.131-0.057c0.246-0.063,0.495-0.135,0.751-0.173
	c0.139-0.021,0.305-0.012,0.443,0.03c0.417,0.136,0.842,0.18,1.273,0.128c0.171-0.021,0.356-0.023,0.518-0.071
	c0.362-0.104,0.65-0.394,0.951-0.613c0.07,0.117,0.021,0.192-0.044,0.258c-0.125,0.117-0.238,0.232-0.37,0.342
	c-0.149,0.128-0.205,0.272-0.087,0.428c0.134,0.192,0.318,0.354,0.494,0.524c0.077,0.076,0.165,0.143,0.253,0.21
	c0.125,0.095,0.249,0.188,0.388,0.27c0.148,0.096,0.301,0.192,0.465,0.27c0.191,0.097,0.387,0.181,0.579,0.268
	c0.034,0.015,0.092,0,0.187,0c-0.263-0.325-0.613-0.522-0.87-0.856c-0.232-0.29-0.711-0.737-0.769-1.11
	c0.572,0.433,0.91,1.091,1.5,1.505c0.017-0.004,0.033-0.009,0.047-0.015c-0.003-0.056,0.004-0.119-0.014-0.167
	c-0.161-0.347-0.275-0.71-0.596-0.957c-0.229-0.181-0.396-0.404-0.51-0.674c-0.076-0.162-0.158-0.325-0.252-0.475
	c-0.044-0.081-0.129-0.131-0.205-0.197c-0.038-0.044-0.078-0.092-0.098-0.157c0.249,0.033,0.386,0.201,0.531,0.369
	c0.023,0.035,0.048,0.069,0.064,0.106c0.212,0.458,0.621,0.726,0.981,1.053c0.101,0.112,0.19,0.229,0.283,0.356
	c0.178,0.123,0.309,0.271,0.373,0.48c0.077,0.202,0.172,0.396,0.22,0.601c0.05,0.172,0.138,0.297,0.262,0.407
	c0.041,0.021,0.051,0.079,0.075,0.123c-0.055-0.002-0.104,0.009-0.156-0.012c-0.087-0.041-0.161-0.106-0.245-0.143
	c-0.128-0.054-0.253-0.091-0.388-0.137c-0.033,0.121-0.048,0.204-0.071,0.297c0.028,0.014,0.064,0.037,0.099,0.032
	c0.213-0.037,0.407,0.049,0.596,0.133c0.304,0.133,0.621,0.167,0.934,0.187c0.145,0.008,0.283,0.032,0.432,0.047
	c0.004-0.01,0.011-0.023,0.011-0.039c-0.108-0.063-0.226-0.126-0.342-0.195c-0.124-0.081-0.343-0.357-0.471-0.108
	c-0.037,0.081-0.085,0.122-0.183,0.063c0.01-0.125,0.139-0.244,0.021-0.371c-0.142-0.156-0.263-0.22-0.378-0.403
	c-0.164-0.266,0.54,0.017,0.517,0.017c0.25-0.003,0.494-0.032,0.788-0.049c-0.051-0.096-0.098-0.164-0.135-0.224
	c0.367-0.045,0.557,0.201,0.721,0.48c0.027,0.064,0.058,0.133,0.095,0.202c-0.017,0.014-0.03,0.025-0.047,0.044
	c-0.111-0.063-0.26-0.087-0.311-0.179c-0.098-0.172-0.236-0.104-0.347-0.077c-0.411,0.094-0.408,0.417-0.007,0.55
	c0.775,0.25,1.092,0.978,1.439,1.632c-0.021,0.01-0.041,0.023-0.058,0.037c-0.07-0.076-0.172-0.135-0.206-0.222
	c-0.131-0.28-0.366-0.452-0.566-0.659c-0.091-0.091-0.168-0.167-0.337-0.168c-0.124,0-0.259-0.106-0.388-0.16
	c-0.125-0.049-0.215-0.006-0.275,0.131c0.212,0.162,0.563,0.34,0.744,0.548c0.183,0.216,0.368,0.436,0.523,0.669
	c0.141,0.211,0.279,0.438,0.401,0.667c0.046,0.098,0.056,0.22,0.086,0.33c0.068,0.292,0.202,0.58,0.044,0.883
	c-0.026,0.049-0.006,0.137,0.027,0.193c0.055,0.118,0.092,0.224,0.061,0.361c-0.037,0.216-0.088,0.434-0.107,0.652
	c-0.007,0.135,0.04,0.274,0.077,0.408c0.034,0.193,0.037,0.381-0.026,0.564c-0.021,0.004-0.041,0.004-0.058,0.012
	c-0.021-0.059-0.067-0.114-0.078-0.18c-0.05-0.373-0.32-0.992-0.762-1.063c-0.098-0.021-0.175,0.049-0.12,0.146
	c0.194,0.411,0.139,0.844,0.12,1.271c0,0.109,0.028,0.221,0.028,0.328c-0.015,0.513-0.192,0.977-0.415,1.427
	c-0.104,0.194-0.232,0.382-0.354,0.565c-0.021,0.037-0.09,0.047-0.131,0.065c-0.01-0.049-0.047-0.103-0.037-0.147
	c0.034-0.136,0.073-0.27,0.117-0.4c0.139-0.406-0.036-0.827-0.161-1.212c-0.027-0.071-0.067-0.139-0.095-0.207
	c-0.027,0-0.046,0.003-0.066,0.004c-0.061,0.183-0.122,0.682-0.308,0.79c-0.088,0.054-0.094,0.122-0.067,0.195
	c0.125,0.277,0.104,0.581,0.088,0.861c-0.027,0.261-0.064,1.215-0.451,1.269c-0.287-0.398-0.199-1.196-0.257-1.654
	c-0.006-0.039-0.039-0.076-0.102-0.154c-0.113,0.308-0.069,0.6-0.157,0.894c-0.117-0.089-0.22-0.165-0.33-0.256
	c-0.03,0.072-0.048,0.127-0.078,0.186c-0.162-0.072-0.252-0.219-0.276-0.432c-0.02-0.045-0.067-0.08-0.107-0.117
	c-0.031,0.039-0.087,0.075-0.105,0.126c-0.051,0.083-0.08,0.177-0.11,0.266c-0.064,0.145-0.023,0.227,0.121,0.269
	c0.125,0.038,0.266,0.071,0.374,0.119c0.07,0.027,0.135,0.089,0.162,0.15c0.27,0.579,0.485,1.204,0.833,1.744
	c0.13,0.218,0.296,0.435,0.479,0.623c0.094,0.096,0.244,0.142,0.383,0.19c0.442,0.164-0.007,0.625,0.32,0.911
	C718.637,956.341,718.674,956.451,718.732,956.536z M704.163,949.5c-0.017,0.015-0.003,0.001,0.008-0.009
	C704.16,949.501,704.146,949.515,704.163,949.5c0.054-0.053,0.093-0.115,0.14-0.176c-0.08-0.018-0.153-0.045-0.226-0.065
	c-0.088,0.096-0.095,0.196-0.034,0.297C704.082,949.541,704.131,949.53,704.163,949.5z M704.494,943.804
	c0.293-0.05,0.531-0.325,0.571-0.639C704.867,943.388,704.682,943.597,704.494,943.804z M706.178,937.647
	c0.273-0.019,0.273-0.019,0.805-0.781C706.72,936.803,706.327,937.453,706.178,937.647z M705.666,940.287
	c0.148,0.128,0.3,0.258,0.458,0.401C706.131,940.517,705.932,940.328,705.666,940.287z M705.15,939.041
	c-0.05,0.131-0.082,0.148,0.047,0.357c-0.034-0.053-0.071-0.112,0,0.002c0.115,0.184,0.209,0.41,0.455,0.529
	C705.474,939.617,705.319,939.339,705.15,939.041z M701.649,938.543c-0.037,0.126-0.037,0.234-0.083,0.31
	c0.022-0.039,0.001-0.005-0.016,0.02c0.017-0.025,0.038-0.059,0.016-0.02c-0.087,0.129-0.078,0.237,0.037,0.408
	C701.657,939.037,701.832,938.72,701.649,938.543z M704.262,942.417c0.047-0.452-0.027-0.88-0.278-1.272
	C703.988,941.59,704.042,942.016,704.262,942.417z M702.934,938.424c-0.067,0.298-0.061,0.569,0.056,0.844
	c0.186,0.451,0.418,0.636,0.775,0.953c0.15,0.13,0.332,0.251,0.415,0.418c0.13,0.256,0.189,0.548,0.277,0.828
	c0.057-0.254,0.158-0.675-0.1-0.867c-0.094-0.073-0.168-0.179-0.234-0.278c-0.094-0.137-0.182-0.28-0.275-0.427
	c-0.042,0.027-0.088,0.061-0.14,0.096c-0.05-0.067-0.118-0.113-0.14-0.172c-0.081-0.29-0.543-0.584-0.491-0.908
	c0.095-0.576,0.187-1.083,0.688-1.453c0.142-0.104,0.324-0.149,0.479-0.241c0.316-0.19,0.805-0.408,1.021-0.713
	c0.152-0.21,0.212-0.476,0.431-0.641c0.01-0.012,0.007-0.052,0.014-0.108c-0.06,0.014-0.122,0.011-0.158,0.036
	c-0.223,0.159-0.445,0.328-0.669,0.485c-0.045,0.034-0.113,0.032-0.201,0.052c0.079-0.303,0.411-0.5,0.631-0.708
	c0.05-0.044,0.1-0.088,0.148-0.129c-0.011-0.021-0.023-0.039-0.034-0.058c-0.047,0.014-0.095,0.021-0.139,0.039
	c-0.151,0.064-0.303,0.125-0.446,0.199c-0.377,0.197-0.602,0.511-0.875,0.818c-0.327,0.37-0.438,0.591-0.664,0.984
	C703.136,937.774,703.01,938.083,702.934,938.424z M703.336,940.939c0.043,0.194,0.119,0.365,0.315,0.512
	C703.455,941.305,703.379,941.133,703.336,940.939z M703.094,942.374c0.023-0.076,0.044-0.145,0.014-0.199
	c-0.056-0.118-0.121-0.23-0.197-0.335c-0.175-0.228-0.361-0.447-0.531-0.674c-0.059-0.078-0.095-0.168-0.142-0.253
	c0.022-0.014,0.037-0.027,0.059-0.042c0.193,0.206,0.923,1.24,1.214,1.143c-0.036-0.115-0.047-0.229-0.088-0.334
	c-0.252-0.632-0.892-0.98-1.394-1.389c-0.036-0.027-0.066-0.06-0.098-0.094c-0.018,0.009-0.04,0.02-0.054,0.034
	c0.029,0.075,0.058,0.157,0.09,0.232c0.025,0.063,0.086,0.127,0.074,0.182c-0.012,0.059-0.081,0.11-0.121,0.162
	C702.262,941.361,702.788,941.775,703.094,942.374z M700.623,944.611c0.098,0.002,0.172,0.014,0.244,0
	c0.221-0.052,0.435-0.067,0.661,0.005c0.074,0.022,0.05,0.015,0.013,0.003c0.188,0.056,0.396,0.108,0.591-0.015
	C701.878,944.342,700.914,944.338,700.623,944.611z M699.425,944.97c0.41,0.07,0.704-0.14,1.009-0.353
	c-0.312,0.069-0.61,0.17-0.91,0.274c0.3-0.105-0.037,0.009,0,0C699.487,944.901,699.46,944.943,699.425,944.97z M697.965,940.178
	c-0.025-0.008-0.042-0.017-0.067-0.022c-0.015,0.036-0.041,0.068-0.054,0.103c-0.074,0.156-0.139,0.316-0.217,0.467
	c-0.131,0.25-0.193,0.516-0.149,0.787c0.046,0.278,0.128,0.574,0.3,0.795c0.094,0.154,0.205,0.288,0.342,0.406
	c0.006-0.012,0.022-0.024,0.035-0.036c-0.079-0.143-0.153-0.284-0.226-0.428c-0.339-0.635-0.216-1.104-0.042-1.759
	c0.008-0.027,0.011-0.047,0.003-0.014C697.918,940.38,697.936,940.277,697.965,940.178z M698.323,939.56
	c-0.251,0.052-0.298,0.118-0.246,0.362C698.152,939.809,698.227,939.698,698.323,939.56z M698.361,936.997
	c0.145-0.104,0.3-0.452,0.384-0.868C698.542,936.263,698.299,936.826,698.361,936.997z M698.151,937.911
	c-0.049,0.383-0.027,0.622,0.25,0.918c0.021,0.024,0.096,0.031,0.116,0.015c0.089-0.074,0.165-0.16,0.272-0.266
	C698.466,938.449,698.396,938.114,698.151,937.911z M698.014,939.194c0.103,0.012,0.14-0.044,0.112-0.164
	c0.009,0.021-0.012-0.037-0.025-0.072c0.014,0.035,0.034,0.093,0.025,0.072c-0.082-0.235-0.177-0.467-0.283-0.743
	C697.799,938.469,697.825,939.084,698.014,939.194z M697.682,939.194c0.016-0.007,0.026-0.012,0.04-0.015
	c-0.037-0.126-0.093-0.252-0.109-0.384c-0.012-0.127,0.036-0.265-0.051-0.395C697.465,938.599,697.53,938.998,697.682,939.194z
	 M697.215,938.442c-0.306,0.236-0.433,1.185-0.244,1.643c-0.037,0.009-0.049,0.049,0.071,0.179c0.202-0.169,0.413-0.342,0.622-0.516
	C697.488,939.371,697.404,938.747,697.215,938.442z M696.196,940.997c0.018,0.104,0.045,0.22,0.109,0.3
	c0.452,0.579,0.505-0.56,0.522-0.797c0-0.008-0.007-0.015-0.009-0.02c-0.088-0.234-0.165-0.469-0.192-0.725
	c-0.07-0.568,0.063-1.062,0.44-1.494c0.067-0.071,0.099-0.171,0.148-0.256c-0.023-0.015-0.045-0.032-0.069-0.044
	C696.354,938.843,695.951,939.74,696.196,940.997z M695.986,941.993c0.042,0.143,0.065,0.261,0.104,0.377
	c0.017,0.042,0.07,0.068,0.104,0.104c0.129-0.111,0.176-0.262,0.141-0.446c-0.074-0.012-0.126-0.024-0.18-0.031
	C696.105,941.993,696.057,941.994,695.986,941.993z M695.454,951.874c-0.079-0.052-1.074-0.3-0.583,0.028
	c0.13,0.082,0.256,0.162,0.396,0.251C695.331,952.058,695.387,951.97,695.454,951.874z M697.562,958.151
	c0.512,0.002,0.592,0.428,0.76,0.768c0.012-0.008,0.025-0.016,0.034-0.021c0.008-0.033,0.032-0.067,0.023-0.092
	c-0.202-0.512-0.396-1.022-0.536-1.56c-0.158,0.213-0.036,0.484-0.232,0.689C697.569,957.974,697.579,958.063,697.562,958.151z
	 M696.009,953.639c-0.098,0.205-0.171,0.426-0.259,0.642c-0.001,0.017,0,0.044,0.005,0.059c0.009,0.016,0.032,0.03,0.068,0.073
	c0.145-0.33,0.285-0.643,0.424-0.956c-0.018-0.007-0.032-0.017-0.049-0.028C696.132,953.498,696.046,953.555,696.009,953.639z
	 M694.485,949.31c-0.057,0.045-0.116,0.117-0.178,0.131c-0.219,0.036-0.384,0.128-0.491,0.331c-0.022,0.041-0.074,0.066-0.121,0.094
	c-0.16,0.079-0.167,0.095-0.072,0.247c0.468-0.044,0.903-0.263,1.419-0.2c-0.081-0.303-0.145-0.564-0.226-0.882
	C694.679,949.143,694.585,949.227,694.485,949.31z M694.415,948.907c0.185,0.055,0.243-0.046,0.33-0.148
	C694.595,948.626,694.489,948.677,694.415,948.907z M694.121,948.442c-0.161,0.228-0.277,0.542-0.085,0.771
	c0.151-0.126,0.202-0.296,0.154-0.511c0.016-0.155,0.002-0.313,0.165-0.403c0.013-0.004,0.002-0.051,0.003-0.074
	c-0.008-0.008-0.023-0.018-0.038-0.025C694.256,948.283,694.184,948.357,694.121,948.442z M693.656,947.125
	c-0.098,0.216-0.228,0.344-0.382,0.517c0.303-0.057,0.542-0.373,0.569-0.603c0.024-0.204,0.071-0.406,0.1-0.61
	c-0.015,0.103-0.013,0.094-0.008,0.066c-0.004,0.028-0.007,0.037,0.008-0.066c0.007-0.031-0.025-0.064-0.058-0.135
	C693.764,946.563,693.781,946.861,693.656,947.125z M707.883,960.911c-0.125,0.019-0.195,0.025-0.27,0.037
	c-0.118,0.025-0.229,0.052-0.337,0.076c-0.223-0.048-0.374,0.017-0.458,0.185c0.071,0.062,0.146,0.064,0.226,0.021
	c0.088-0.08,0.186-0.07,0.289-0.067c-0.054,0-0.003,0,0.033,0c-0.036,0-0.087,0-0.033,0
	C707.529,961.169,707.711,961.108,707.883,960.911z M716.322,947.924c-0.09,0.35-0.07,0.618,0.059,0.783
	C716.368,948.437,716.467,948.2,716.322,947.924z M717.296,947.873c-0.051-0.223-0.139-0.432-0.198-0.65
	c-0.042-0.109-0.049-0.23-0.088-0.333c-0.247-0.472-0.598-0.844-1.042-1.122c-0.077-0.049-0.172-0.068-0.26-0.096
	c-0.007,0.015-0.017,0.027-0.023,0.045c0.048,0.045,0.098,0.098,0.142,0.136c0.341,0.228,0.731,0.518,0.93,0.87
	c0.163,0.276,0.277,0.561,0.304,0.886c0.018,0.18-0.026,0.337-0.121,0.48c-0.02,0.028-0.091,0.031-0.155,0.055
	c-0.01-0.145-0.017-0.241-0.022-0.335c-0.008,0-0.028,0.001-0.049,0.001c-0.093,0.318,0.064,0.627,0.044,0.946
	c0.183-0.122,0.173-0.342,0.298-0.486c0.023,0.075,0.029,0.149,0.029,0.218c-0.003,0.085-0.037,0.171,0.102,0.198
	C717.293,948.422,717.347,948.15,717.296,947.873z M718.988,945.119c0.023,0.054,0.047,0.103,0.074,0.163
	c-0.196,0.125-0.31-0.209-0.492-0.025c0.098,0.071,0.183,0.14,0.271,0.199c0.185,0.122,0.367,0.236,0.512,0.419
	c0.061,0.084,0.111,0.238,0.337,0.172c-0.037-0.077-0.047-0.157-0.091-0.216C719.459,945.648,719.227,945.307,718.988,945.119
	c-0.027-0.066-0.058-0.137-0.088-0.201c-0.023,0.015-0.063,0.029-0.097,0.045C718.865,944.977,718.927,945.068,718.988,945.119z
	 M718.519,945.501c-0.014,0.01-0.026,0.024-0.039,0.036c0.039,0.074,0.063,0.155,0.12,0.224c0.115,0.148,0.222,0.311,0.379,0.432
	c0.343,0.283,0.575,0.657,0.855,0.994c0.037,0.041,0.032,0.103,0.05,0.157c-0.02,0.008-0.037,0.015-0.054,0.023
	c-0.04-0.039-0.098-0.069-0.135-0.111c-0.114-0.114-0.22-0.232-0.334-0.342c-0.208-0.203-0.427-0.404-0.653-0.593
	c-0.185-0.152-0.321-0.367-0.59-0.392c-0.059-0.003-0.095-0.051-0.148-0.075c-0.188-0.089-0.367-0.184-0.553-0.271
	c-0.195-0.093-0.387-0.181-0.593-0.268c-0.054-0.022-0.122-0.049-0.161-0.032c-0.2,0.103,0.093,0.287,0.13,0.335
	c0.261,0.298,0.53,0.585,0.772,0.902c0.381,0.508,0.081,0.785,0.111,1.311c0.077-0.058,0.115-0.093,0.198-0.148
	c0,0.067,0.007,0.101,0,0.122c-0.145,0.298,0.104,0.356,0.058,0.602c-0.051,0.206,0.044,0.383,0.111,0.561
	c0.101,0.306,0.135,0.628,0.311,0.907c0.086,0.14,0.148,0.3,0.215,0.453c0.021-0.002,0.04-0.005,0.047-0.01
	c0.004-0.052,0.031-0.11,0.018-0.16c-0.021-0.117-0.044-0.245-0.11-0.344c-0.095-0.168-0.049-0.358-0.156-0.538
	c-0.186-0.31-0.232-0.677-0.3-1.033c-0.01-0.099,0.021-0.153,0.105-0.185c0.08,0.294,0.164,0.587,0.258,0.876
	c0.042,0.144,0.108,0.278,0.159,0.421c0.111,0.346,0.354,0.976,0.246,1.341c-0.033,0.137-0.229,0.553-0.125,0.664
	c0.071-0.141,0.165-0.271,0.188-0.41c0.155-0.725-0.016-1.551-0.316-2.214c-0.078-0.179-0.073-0.313,0.064-0.429
	c0.111,0.313,0.223,0.619,0.331,0.92c0.009-0.093,0.019-0.187,0.009-0.277c-0.067-0.333-0.205-0.613-0.276-0.94
	c-0.04-0.216-0.074-0.432-0.132-0.643c-0.036-0.133-0.124-0.246-0.161-0.377c0.077,0.255-0.239-0.745,0.074-0.475
	c0.124,0.104,0.243,0.218,0.337,0.349c0.175,0.241,0.34,0.494,0.5,0.738c0.171,0.266,0.342,0.529,0.511,0.793
	c0.048,0.065,0.08,0.13,0.119,0.196c0.01-0.008,0.025-0.013,0.044-0.015c-0.059-0.29,0.144-0.577-0.019-0.87
	c-0.016-0.02,0-0.057,0-0.082c0.038-0.421-0.036-0.83-0.339-1.154c-0.268-0.282-0.554-0.546-0.84-0.804
	C718.729,945.594,718.616,945.552,718.519,945.501z M714.586,942.715c-0.014-0.082-0.037-0.114-0.057-0.126
	c-0.082-0.214-0.227-0.379-0.381-0.58C714.021,942.374,714,942.643,714.586,942.715z M713.906,943.148
	c0.151,0.066,0.32-0.139,0.462,0.017c0.078,0.336-0.277,0.243-0.419,0.412c0.126,0.06,0.176,0.065,0.2,0.053
	c0.35,0.121,0.708,0.141,1.061,0.091c0.019-0.022,0.03-0.042,0.049-0.066c-0.264-0.173-0.348-0.477-0.598-0.628
	c-0.15-0.094-0.323-0.179-0.485-0.266c-0.034-0.021-0.085-0.04-0.098-0.047C714.017,942.874,713.963,943.006,713.906,943.148z
	 M710.219,945.782c0.3,0.183,0.616,0.146,0.93,0.195c0.052,0.01,0.125-0.055,0.188-0.082c-0.142-0.057-0.273-0.088-0.407-0.084
	c-1.258,0.02-1.719-2.186-2.703-2.102c0.02-0.001,0.007-0.001-0.006,0c0.013-0.001,0.025-0.001,0.006,0
	c-0.058,0.004-0.112,0.019-0.188,0.026c0.101,0.035,0.183,0.054,0.256,0.088c0.108,0.041,0.135,0.306,0.254,0.408
	c0.229,0.134,0.42,0.305,0.586,0.513c0.147,0.109,0.252,0.247,0.34,0.407c0.034,0.057,0.071,0.123,0.124,0.163
	C709.804,945.469,709.993,945.644,710.219,945.782z M706.69,949.681c-0.091,0.075-0.178,0.149-0.27,0.228
	c0.01,0.016,0.024,0.033,0.031,0.055c0.074-0.019,0.148-0.026,0.218-0.054c0.183-0.086,0.354-0.178,0.536-0.264
	c0.176-0.09,0.354-0.199,0.542-0.247c0.396-0.096,0.904,0.034,1.258-0.204c-0.09-0.024-0.141-0.047-0.195-0.052
	c-0.306-0.034-0.607-0.074-0.913-0.095c-0.149-0.007-0.307,0.012-0.445,0.058c-0.209,0.069-0.4,0.177-0.606,0.26
	C706.62,949.458,706.62,949.456,706.69,949.681C706.62,949.456,706.599,949.756,706.69,949.681z M705.801,951.462
	C705.743,951.418,705.668,951.361,705.801,951.462C705.88,951.521,705.844,951.493,705.801,951.462
	c0.186,0.138,0.546,0.044,0.641-0.188c-0.074,0-0.131,0-0.182,0c-0.084-0.002-0.168,0.011-0.229-0.017
	c-0.047-0.029-0.108-0.129-0.091-0.17c0.047-0.116,0.091-0.234,0.239-0.288c0.104-0.037,0.189-0.129,0.283-0.191
	c0.233-0.165,0.456-0.334,0.697-0.483c0.206-0.127,0.421-0.233,0.653-0.355c-0.222-0.069-0.796,0.268-1,0.361
	c-0.104,0.049-0.206,0.121-0.293,0.195c-0.249,0.21-0.482,0.437-0.728,0.648C705.569,951.157,705.569,951.287,705.801,951.462z
	 M700.003,951.287c-0.115,0.06-0.115,0.165-0.021,0.313c0.049-0.143,0.135-0.264,0.246-0.366c0.239-0.152,0.499-0.25,0.785-0.294
	c0.319-0.046,0.647-0.035,0.969-0.038c0.002-0.02,0.005-0.045,0.01-0.063c-0.076-0.021-0.153-0.052-0.236-0.055
	c-0.377-0.005-0.973-0.395-1.307-0.121c-0.044,0.032-0.076,0.088-0.124,0.104C700.065,950.878,700.239,951.177,700.003,951.287
	c0.052-0.023,0.023-0.01-0.003,0.005C700.026,951.277,700.055,951.264,700.003,951.287z M699.781,953.889
	c0.192,0.612,0.388,0.465,0.755,0.921c0.025,0.036,0.066,0.057,0.101,0.088c0.012-0.014,0.025-0.027,0.037-0.042
	c-0.285-0.326-0.567-0.653-0.849-0.981C699.809,953.878,699.797,953.884,699.781,953.889z M699.094,952.112
	c-0.022,0.081,0.149,0.735,0.199,0.845c0.059,0.126,0.16,0.241,0.179,0.367c0.032,0.213,0.175,0.326,0.308,0.465
	c0.017-0.055,0.017-0.106-0.007-0.153c-0.069-0.149-0.172-0.285-0.208-0.442c-0.045-0.231-0.049-0.473-0.049-0.711
	c0-0.053,0-0.121,0-0.122c0,0.001,0,0.069,0,0.122C699.517,952.109,699.472,952.063,699.094,952.112z M698.85,951.027
	c-0.063-0.241-0.1-0.259-0.304-0.121c-0.025,0.021-0.052,0.036-0.106,0.066c-0.024-0.092-0.039-0.167-0.059-0.258
	c-0.069,0.027-0.112,0.073-0.128,0.133c-0.169-0.055-0.313-0.105-0.457-0.156c-0.001,0.022-0.012,0.044-0.02,0.067
	c0.096,0.214,0.254,0.367,0.503,0.343c0.212-0.02,0.391-0.015,0.546,0.132c0.005,0.005,0.027-0.005,0.049-0.011
	C698.866,951.157,698.866,951.089,698.85,951.027z M698.855,947.086c0.069-0.143,0.1-0.316,0.146-0.473
	c-0.022-0.01-0.042-0.022-0.062-0.032c-0.052,0.083-0.12,0.162-0.15,0.253c-0.069,0.252-0.178,0.489-0.345,0.691
	c-0.288,0.34-0.689,0.852-1.156,0.937c-0.091,0.015-0.156,0.07-0.141,0.193c0.035,0.188,0.005,0.37-0.096,0.535
	c-0.346,0.543,0.034,0.391,0.353,0.802c0.066,0.122,0.133,0.12,0.209-0.009c0.103-0.212,0.194-0.435,0.298-0.654
	c0.138-0.293,0.234-0.614,0.433-0.875c0.137-0.185,0.269-0.37,0.402-0.555c-0.018-0.022-0.037-0.039-0.059-0.063
	c-0.01,0.032-0.015,0.078-0.044,0.091c-0.194,0.13-0.313,0.344-0.541,0.442c-0.218,0.095-0.369,0.279-0.446,0.514
	c-0.039,0.101-0.108,0.191-0.147,0.293c-0.037,0.093-0.087,0.197-0.075,0.288c0.025,0.122-0.019,0.168-0.115,0.215
	c-0.684-0.453,0.544-1.332,0.855-1.581c0.318-0.262,0.488-0.625,0.666-0.979c-0.041,0.081-0.103,0.206,0.015-0.029
	C698.872,947.053,698.866,947.063,698.855,947.086z M698.499,950.442c0.017,0.041,0.09,0.067,0.106,0.077
	c0.305,0.039,0.266-0.277,0.17-0.493C698.683,950.078,698.457,950.325,698.499,950.442z M699.145,947.798
	c-0.01-0.012-0.023-0.019-0.039-0.027c-0.09,0.126-0.177,0.256-0.268,0.385c-0.227,0.316-0.227,0.313-0.2,0.411
	C698.802,948.292,699.055,948.102,699.145,947.798z M696.779,946.668c-0.079,0.002-0.153,0.032-0.235,0.046
	c0.012,0.012,0.023,0.023,0.037,0.035c-0.04,0.078-0.084,0.155-0.121,0.239c-0.023,0.051-0.077,0.117-0.066,0.164
	c0.017,0.105,0.071,0.206,0.11,0.302c0.084-0.02,0.138-0.036,0.224-0.054c-0.006,0.15-0.011,0.278-0.018,0.404
	c0.018,0.002,0.039,0.007,0.06,0.01c0.147-0.33,0.292-0.751,0.7-0.842c0.03-0.008,0.059-0.03,0.092-0.04
	c0.199-0.081,0.403-0.166,0.606-0.238c0.032-0.016,0.078,0.015,0.142,0.026c-0.069,0.051-0.135,0.074-0.14,0.11
	c-0.047,0.207-0.699,0.395-0.869,0.534c-0.014,0.012-0.013,0.058-0.017,0.117c0.256-0.128,0.477-0.28,0.744-0.348
	c-0.187,0.359-0.463,0.651-0.609,1.018c0.063-0.004,0.118-0.008,0.148-0.042c0.187-0.184,0.377-0.362,0.555-0.556
	c0.328-0.376,0.525-0.796,0.797-1.217c0.045-0.069,0.025-0.039,0,0c0.106-0.163,0.182-0.344,0.274-0.517
	c-0.019-0.025-0.042-0.044-0.057-0.069c-0.116,0.034-0.226,0.066-0.341,0.108c-0.351,0.123-0.671,0.32-1.023,0.437
	c-0.059,0.022-0.112,0.057-0.163,0.085C697.339,946.507,697.093,946.667,696.779,946.668z M695.763,946.029
	c0.081,0.31,0.165,0.394,0.397,0.404c0.269,0.01,0.531-0.009,0.794-0.093c0.063-0.022,0.122-0.067,0.186-0.101
	c-0.003-0.017-0.008-0.036-0.013-0.049c-0.152-0.053-0.307-0.113-0.458-0.007c-0.219,0.146-0.413,0.108-0.622-0.008
	C695.959,946.128,695.87,946.086,695.763,946.029z M694.351,943.729c0.057-0.238,0.273-0.315,0.445-0.42
	c0.268-0.173,0.551-0.32,0.844-0.453c0.05-0.022,0.087-0.039,0.002,0c0.212-0.096,0.239-0.113,0.104-0.357
	c-0.087,0.037-0.162,0.07-0.232,0.106c-0.049,0.025-0.089,0.076-0.14,0.091c-0.136,0.037-0.28,0.051-0.415,0.096
	c-0.113,0.039-0.241,0.083-0.322,0.167C694.541,943.066,694.228,943.588,694.351,943.729z M694.361,944.574
	c0.162-0.332,0.437-0.556,0.733-0.745c0.221-0.138,0.378-0.324,0.534-0.541c-0.765-0.206-1.018,0.991-1.431,1.095
	c0-0.182,0.002-0.34,0.003-0.512c-0.072-0.003-0.129-0.007-0.217-0.012c0.083,0.296,0.155,0.576,0.238,0.875
	C694.275,944.674,694.338,944.632,694.361,944.574z M694.405,945.247c0.137-0.137,0.415-0.677,0.396-0.814
	c-0.091,0.113-0.184,0.227-0.274,0.339c0.028-0.025-0.009,0.008-0.034,0.03c0.025-0.022,0.062-0.056,0.034-0.03
	C694.377,944.901,694.321,945.044,694.405,945.247z M694.6,945.639c0.021,0.175,0.127,0.344,0.216,0.554
	c0.13-0.199,0.233-0.34,0.13-0.54c-0.032-0.057,0.019-0.159,0.05-0.238c0.055-0.15,0.115-0.306,0.189-0.457
	c0.108-0.243,0.23-0.477,0.347-0.714c0.042-0.088,0.101-0.167,0.14-0.253c0.012-0.027-0.019-0.069-0.032-0.109
	c-0.032,0.019-0.078,0.025-0.095,0.047c-0.268,0.422-0.554,0.851-0.79,1.294C694.684,945.356,694.588,945.506,694.6,945.639
	c-0.005-0.067-0.001-0.023,0.003,0.015C694.598,945.616,694.595,945.572,694.6,945.639z M695.144,947.004
	c0.179-0.197,0.329-0.375,0.48-0.544c-0.089-0.216-0.177-0.413-0.253-0.612c-0.022-0.052-0.029-0.128,0-0.174
	c0.073-0.131,0.005-0.236-0.044-0.387c-0.229,0.387-0.081,0.734,0.003,1.147c-0.065,0.047-0.133,0.089-0.189,0.128
	c-0.106-0.081-0.049-0.3-0.279-0.217C694.912,946.586,695.001,946.804,695.144,947.004z M695.333,947.515
	c0.156,0.021,0.295-0.021,0.418-0.116c0.091-0.151,0.185-0.302,0.357-0.393c0.088-0.045,0.157-0.125,0.276-0.224
	c-0.208-0.059-0.372-0.106-0.566-0.16c-0.22,0.373-0.288,0.405-0.63,0.593C695.244,947.336,695.288,947.426,695.333,947.515z
	 M696.607,949.29c0.174-0.151,0.225-0.357,0.231-0.576c0.012-0.376-0.352,0-0.413,0.063c-0.106,0.121-0.285,0.151-0.446,0.033
	c0.111-0.064,0.212-0.126,0.315-0.188c-0.009-0.01-0.015-0.021-0.024-0.031c-0.17,0.016-0.34,0.028-0.524,0.044
	c0.083,0.354,0.197,0.685,0.376,1.047C696.309,949.53,696.462,949.414,696.607,949.29z M698.012,953.412
	c-0.088-0.512,0.182-0.976,0.13-1.469c-0.068-0.685-0.721-1.375-1.08-1.932c-0.069-0.114-0.174-0.186-0.304-0.174
	c-0.694,0.092-0.138,1.308,0.017,1.604c0.084,0.147,0.178,0.238,0.349,0.248c0.125,0.006,0.254,0.038,0.357,0.05
	c0.044,0.186,0.019,0.359-0.082,0.509c-0.44,0.327-0.01,1.438,0.23,1.813c0.074,0.112,0.091,0.266,0.135,0.398
	c-0.022-0.065-0.01-0.027,0.002,0.007c-0.012-0.034-0.024-0.072-0.002-0.007c0.049,0.152,0.058,0.322,0.189,0.438
	c0.022-0.003,0.037-0.006,0.059-0.008c0.013-0.181-0.015-0.371,0.04-0.539C698.159,954.025,698.067,953.728,698.012,953.412z
	 M700.864,957.644c-0.281,0.384-0.175,0.279-0.083,0.151c-0.341,0.509-0.539,1.028-0.575,1.606c0.025,0.009,0.055,0.014,0.083,0.024
	c0.054-0.201,0.101-0.405,0.161-0.61c0.023-0.098,0.065-0.192,0.104-0.285c0.099-0.232,0.204-0.461,0.3-0.694
	C700.867,957.795,700.86,957.74,700.864,957.644z M700.833,955.134c-0.085,0.071-0.225,0.149-0.308,0.125
	c-0.216-0.07-0.417-0.18-0.607-0.303c-0.099-0.059-0.196-0.167-0.239-0.276c-0.113-0.288-0.192-0.583-0.289-0.879
	c-0.03-0.104-0.079-0.201-0.105-0.307c-0.046-0.185-0.167-0.782-0.28-0.912c-0.07-0.086-0.15-0.168-0.232-0.248
	c-0.408,0.251-0.574,0.718-0.445,1.15c0.068,0.209,0.126,0.42,0.096,0.644c-0.059,0.394-0.125,0.742-0.213,1.125
	c-0.034,0.12-0.083,0.265-0.044,0.375c0.057,0.19,0.17,0.36,0.226,0.565c0.091,0.335,0.254,0.721,0.41,1.032
	c0.203,0.42,0.438,0.838,0.495,1.314c0.005,0.036,0.044,0.072,0.071,0.106c0.704-0.407,1.069-0.861,1.525-1.523
	c0.094-0.137,0.162-0.291,0.27-0.417c0.121-0.145,0.262-0.271,0.401-0.396C701.812,956.086,701.094,954.94,700.833,955.134z
	 M709.127,959.011c-0.051-0.109-0.088-0.2-0.139-0.311c-0.06,0.035-0.117,0.077-0.182,0.108c-0.051,0.022-0.104,0.036-0.162,0.051
	c-0.011-0.053-0.033-0.108-0.041-0.167c-0.002-0.028,0.023-0.063,0.034-0.088c-0.007-0.014-0.021-0.025-0.03-0.033
	c-0.138,0.049-0.337,0.206-0.451,0.025c-0.135-0.064-0.271-0.112-0.419-0.148c-0.434-0.121-0.825-0.475-1.326-0.232
	c-0.01,0.009-0.042,0-0.058-0.002c-0.142-0.023-0.249,0.048-0.327,0.145c-0.135,0.155-0.249,0.316-0.357,0.493
	c-0.05,0.081-0.101,0.216-0.063,0.281c0.202,0.408,0.509,0.696,0.967,0.787c0.243,0.046,0.491,0.102,0.748-0.011
	c0.168-0.075,0.357-0.098,0.532-0.144c0.132-0.034,0.273-0.058,0.397-0.112c0.179-0.07,0.344-0.166,0.516-0.257
	c0.031-0.02,0.078-0.054,0.08-0.083c0.021-0.137,0.078-0.218,0.22-0.229C709.1,959.079,709.116,959.023,709.127,959.011z
	 M711.502,953.395c-0.006,0.028-0.016,0.074-0.009,0.046c0.044-0.183-0.071-0.271-0.206-0.373c0.047,0.253,0.093,0.474,0.135,0.689
	c0.01,0,0.022,0.003,0.043,0.003c0.042-0.105,0.052-0.209,0.028-0.319C711.487,953.469,711.496,953.423,711.502,953.395z
	 M712.359,950.313c-0.104-0.02-0.206-0.062-0.286-0.047c-0.088,0.017-0.159,0.088-0.27,0.159c0.007-0.293-0.242-0.236-0.411-0.378
	c0.185-0.11,0.289-0.093,0.441,0.046c0.05,0.044,0.11,0.067,0.191,0.109c0.078-0.31,0.034-0.372-0.215-0.569
	c-0.044-0.038-0.104-0.023-0.159-0.038c-0.242-0.074-0.465,0-0.69,0.059c-0.239,0.067-0.473,0.142-0.668,0.314
	c-0.057,0.051-0.299-0.276-0.472-0.305c-0.192-0.027-0.384-0.092-0.579,0.003c0.366,0.116,0.974,0.205,0.469,0.742
	c-0.024,0.027-0.048,0.071-0.059,0.109c-0.124,0.32-0.353,0.525-0.669,0.65c-0.103,0.04-0.192,0.105-0.294,0.147
	c-0.149,0.113-0.297,0.134-0.445,0.057c-0.064-0.153-0.208-0.183-0.344-0.233c-0.044-0.014-0.098-0.106-0.088-0.155
	c0.008-0.043,0.093-0.087,0.152-0.1c0.081-0.026,0.179-0.003,0.263-0.029c0.634-0.167,0.839-0.337,1.293-0.756
	c-0.097,0.095-0.097,0.095-0.069,0.069c-0.027,0.025-0.027,0.025,0.069-0.069c0.008-0.004-0.002-0.028-0.002-0.051
	c-0.159,0.028-0.159,0.028-0.525-0.129c0.013,0.424-0.304,0.567-0.61,0.643c-0.378,0.09-0.565-0.227-0.738-0.491
	c-0.115,0.05-0.205,0.09-0.301,0.134c-0.145,0.078-0.147,0.174-0.05,0.29c0.232,0.135,0.323,0.312,0.273,0.533
	c-0.078,0.01-0.149-0.014-0.21-0.069c-0.07,0.038-0.131,0.079-0.195,0.114c-0.107-0.04-0.146-0.22-0.292-0.146
	c-0.027,0.081-0.053,0.104-0.168,0.189c-0.031,0.021-0.04,0.084-0.077,0.172c0.151-0.049,0.316-0.06,0.477-0.03
	c0.186,0.142,0.499,0.132,0.711,0.152c0.085,0.003,0.155,0.03,0.146,0.135c-0.017,0.177-0.254,0.205-0.395,0.194
	c-0.157-0.013-0.337,0.031-0.452-0.138c-0.278,0.111-0.397-0.049-0.713,0.009c-0.027,0.005-0.044,0.056-0.087,0.107
	c0.091,0.019,0.148,0.038,0.206,0.041c0.11,0.008,0.195,0.036,0.267,0.127c0.148,0.173,0.361,0.174,0.555,0.169
	c0.088-0.003,0.166-0.04,0.246-0.04c0.169,0,0.347,0.004,0.516,0.03c0.044,0.007,0.08,0.092,0.122,0.138
	c-0.052,0.027-0.098,0.081-0.148,0.081c-0.295,0.003-0.581-0.008-0.887-0.014c-0.024-0.031-0.054-0.082-0.102-0.156
	c-0.07,0.125-0.12,0.229-0.171,0.331c-0.031,0.013-0.057,0.025-0.091,0.039c-0.028-0.08-0.054-0.159-0.094-0.275
	c-0.229,0.266-0.563,0.231-0.708,0.425c-0.068,0.085-0.142,0.154-0.202,0.244c-0.037,0.057-0.062,0.131-0.098,0.217
	c0.01,0.015,0.098,0.691,0.105,0.68c-0.024,0.04-0.054,0.076-0.082,0.112c0.182,0.283,0.526,0.469,0.391,0.897
	c0.071-0.018,0.094-0.027,0.121-0.035c0.236-0.09,0.472-0.175,0.701-0.272c0.05-0.024,0.134-0.107,0.124-0.142
	c-0.029-0.146,0.067-0.307-0.054-0.436c-0.063-0.062-0.158-0.103-0.208-0.18c-0.03-0.034-0.374-0.258-0.367-0.269
	c0.108-0.15-0.05-0.211-0.104-0.306c0.405-0.236,0.505,0.255,0.711,0.438c0.255,0.216,0.461,0.463,0.532,0.803
	c0.01,0.051,0.017,0.115-0.011,0.157c-0.107,0.213-0.183,0.456-0.384,0.611c-0.027,0.02-0.037,0.058-0.058,0.086
	c-0.181,0.225-0.42,0.336-0.71,0.353c-0.239,0.015-0.481,0.027-0.721,0.057c-0.057,0.01-0.121,0.108-0.168,0.103
	c-0.182-0.038-0.25,0.083-0.344,0.194c-0.03,0.034-0.084,0.046-0.138,0.081c-0.003-0.057-0.007-0.079-0.007-0.094
	c0.004-0.22-0.013-0.238-0.215-0.276c-0.059-0.014-0.114-0.037-0.171-0.066c-0.082-0.044-0.586-0.202-0.486-0.436
	c0.054-0.112,0.152-0.056,0.232-0.021c0.008,0.006,0.012,0.012,0.019,0.014c0.338,0.198,0.692,0.299,1.083,0.174
	c0.051-0.021,0.104-0.081,0.125-0.135c0.064-0.199,0.108-0.401,0.158-0.598c0.024-0.097,0.007-0.177-0.067-0.244
	c-0.162-0.149-0.333-0.289-0.485-0.445c-0.28-0.275-0.232-0.927-0.22-1.3c-0.009-0.17-0.03-0.334-0.063-0.506
	c-0.01-0.047-0.014-0.102-0.041-0.136c-0.135-0.196-0.096-0.423-0.118-0.634c-0.053-0.45,0.536-0.6,0.519-0.982
	c-0.107,0.005-0.212,0.007-0.313,0.01c-0.027,0.034-0.058,0.083-0.095,0.137c-0.098-0.06-0.182-0.112-0.275-0.163
	c-0.004,0.011-0.013,0.021-0.021,0.031c0.061,0.09,0.117,0.178,0.208,0.305c-0.039,0.004-0.573-0.011-0.634,0.074
	c-0.075,0.108-0.189,0.128-0.281,0.191c-0.182,0.135-0.022,0.24,0.01,0.41c0.092,0.449,0.103,1.167,0.416,1.536
	c0.074,0.091,0.02,0.144-0.073,0.184c-0.068-0.05-0.098-0.228-0.217-0.188c-0.057,0.017-0.091,0.1-0.135,0.153
	c-0.019,0.026-0.023,0.048-0.039,0.077c-0.125,0.238-0.366,0.345-0.65,0.283c0.043-0.153,0.087-0.31,0.135-0.474
	c0.106,0.041,0.206,0.025,0.256-0.107c-0.088-0.067-0.201-0.132-0.137-0.25c0.056-0.096,0.153-0.169,0.228-0.247
	c0.059,0.03,0.103,0.057,0.18,0.093c-0.128-0.338-0.253-0.621-0.42-0.943c-0.052,0.073-0.057,0.161-0.012,0.255
	c-0.118,0.014-0.214-0.013-0.303-0.079c-0.168,0.113-0.315,0.188-0.428,0.299c-0.153,0.137-0.297,0.088-0.438,0.015
	c-0.2-0.102-0.394-0.776-0.581-0.685c-0.133,0.065-0.273,0.124-0.403,0.195c-0.103,0.115-0.095,0.228,0.045,0.343
	c0.089,0.121,0.189,0.238,0.27,0.338c0.133,0.038,0.251,0.09,0.373,0.108c0.091,0.015,0.194,0.002,0.278-0.026
	c0.228-0.075,0.379-0.039,0.529,0.145c0.123-0.037,0.164-0.135,0.182-0.247c0.052-0.27,0.359-0.226,0.56-0.25
	c0.106,0.079,0.101,0.206,0.042,0.309c-0.023,0.049-0.143,0.058-0.212,0.058c-0.133,0.005-0.19,0.098-0.263,0.182
	c-0.067,0.08-0.133,0.157-0.209,0.222c-0.089,0.066-0.165,0.044-0.215-0.064c-0.078-0.156-0.147-0.17-0.305-0.112
	c-0.396,0.154-0.804,0.276-1.238,0.146c-0.078-0.02-0.167-0.028-0.25-0.041c-0.138,0.041-0.211,0.129-0.223,0.265
	c-0.017,0-0.027,0-0.044-0.002c-0.027-0.067-0.048-0.134-0.074-0.198c-0.091,0-0.175,0-0.266,0c0.059-0.219,0.059-0.219-0.096-0.37
	c0.192-0.253,0.417-0.229,0.667,0.086c0.017-0.076,0.047-0.14,0.03-0.185c-0.04-0.129-0.209-0.221-0.345-0.188
	c-0.19,0.047-0.175-0.093-0.187-0.221c-0.485,0.337-0.349,0.851-0.396,1.311c-0.009,0.075,0.047,0.153,0.079,0.231
	c0.016,0.004,0.038,0.011,0.056,0.017c0.039-0.234,0.178-0.31,0.379-0.301c0.068,0.128,0.17,0.25,0.19,0.387
	c0.058,0.347,0.214,0.598,0.504,0.786c0.103,0.07,0.188,0.176,0.257,0.278c0.095,0.151,0.152,0.322,0.245,0.481
	c0.092,0.112,0.188,0.219,0.283,0.335c0.081,0.17,0.135,0.347,0.208,0.532c0.032-0.002,0.073-0.005,0.109-0.007
	c0.017,0.102,0.037,0.194,0.056,0.308c0.085-0.067,0.138-0.117,0.227-0.184c0.008,0.14,0.022,0.248,0.037,0.35
	c0.293-0.009,0.366,0.284,0.5,0.497c-0.018,0.06-0.072,0.165-0.07,0.271c0.016,0.193,0.023,0.381,0.133,0.573
	c0.179,0.329,0.422,0.585,0.701,0.827c0.281,0.25,0.651,0.02,0.937-0.067c0.253-0.073,0.6-0.494,0.034-0.565
	c-0.023-0.002-0.041-0.006-0.063-0.015c-0.089-0.156-0.042-0.245,0.14-0.266c0.364-0.019,1.123-0.247,1.457-0.127
	c0.037,0.015,0.098,0.005,0.138-0.013c0.272-0.109,0.539-0.229,0.808-0.34c0.132-0.051,0.256-0.108,0.385-0.157
	c0.249-0.091,0.427,0.08,0.66,0.149c-0.115,0.108-0.088,0.208,0.014,0.328c-0.131,0.076-0.268,0.155-0.395,0.23
	c0.073,0.061,0.125,0.146,0.171,0.142c0.22-0.025,0.442,0.139,0.651-0.049c0.041,0.248,0.077,0.471,0.115,0.715
	c0.151-0.08,0.293-0.15,0.425-0.222c0.157,0.178-0.038,0.228-0.118,0.37c0.134-0.071,0.172,0.232,0.318,0.031
	c-0.043-0.043-0.073-0.081-0.113-0.126c0.054-0.054,0.256-0.462,0.296-0.467c0.307-0.063,0.281-0.678,0.445-0.884
	c-0.071,0.014-0.139,0.028-0.208,0.041c-0.007-0.011-0.021-0.022-0.039-0.035c0.039-0.069,0.083-0.145,0.129-0.211
	c0.033-0.058,0.067-0.107,0.102-0.165c0.114-0.188,0.3-0.548,0.354-0.762c0.01-0.055,0.01-0.121,0.037-0.161
	c0.098-0.137,0.104-0.286,0.064-0.436c-0.037-0.107-0.034-0.184,0.084-0.237c0.036-0.019,0.085-0.081,0.075-0.113
	c-0.049-0.247,0.083-0.492-0.011-0.743c-0.01-0.028,0.03-0.082,0.044-0.124c0.021-0.051,0.036-0.103,0.063-0.151
	c0.047-0.076-0.041-0.803-0.066-0.89c-0.019-0.04-0.005-0.085-0.005-0.129c0.014-0.01,0.034-0.017,0.051-0.025
	c0.135,0.192,0.273,0.41,0.212,0.659c-0.022,0.082,0.093,0.265,0.093,0.37c0,0.1-0.075,0.21,0.025,0.296
	c0.102-0.102,0.148-0.384,0.088-0.49c-0.017-0.044-0.023-0.109,0-0.144c0.067-0.102,0.054-0.178-0.047-0.244
	c-0.031-0.023-0.044-0.066-0.057-0.103c-0.063-0.122-0.122-0.247-0.176-0.37c-0.007-0.029,0.007-0.07,0.017-0.137
	c0.077,0.09,0.131,0.151,0.183,0.208c0.016-0.006,0.036-0.014,0.053-0.022c-0.017-0.111-0.026-0.219-0.047-0.33
	c0.064-0.015,0.122-0.026,0.179-0.041c-0.054-0.168-0.104-0.319-0.154-0.471c0.006-0.009,0.02-0.017,0.033-0.022
	c0.088,0.097,0.179,0.189,0.264,0.284c0.016-0.006,0.032-0.011,0.043-0.016c-0.011-0.064-0.013-0.126-0.022-0.175
	c0.063,0.003,0.134,0.004,0.252,0.008c-0.108-0.183-0.192-0.321-0.283-0.463c0.018-0.01,0.036-0.023,0.047-0.039
	c0.107,0.11,0.209,0.217,0.326,0.345c0.088-0.306-0.235-0.35-0.278-0.53c0.066-0.053,0.121-0.098,0.175-0.136
	c-0.051-0.111-0.316-0.023-0.159-0.235c0.149,0.025,0.203,0.254,0.419,0.171c-0.058-0.075-0.107-0.144-0.159-0.229
	c0.091-0.057,0.179-0.108,0.277-0.172c-0.176-0.13-0.169-0.302-0.187-0.463c0.213-0.079,0.257,0.084,0.344,0.18
	C712.46,950.541,712.301,950.402,712.359,950.313z M701.37,951.953c-0.106-0.036-0.21-0.074-0.337-0.116
	C701.086,952.064,701.115,952.077,701.37,951.953z M711.581,947.572c-0.005,0.129-0.008,0.231-0.011,0.359
	C711.8,947.772,711.8,947.722,711.581,947.572z M712.557,947.164c-0.003-0.005-0.003-0.017-0.006-0.02
	c-0.24-0.121-0.492-0.238-0.721-0.381c-0.169-0.096-0.308-0.236-0.362-0.428c-0.056-0.18-0.08-0.194-0.263-0.138
	c0.092-0.029,0.078-0.024,0.048-0.016c0.03-0.008,0.044-0.014-0.048,0.016c-0.057,0.015-0.11,0.039-0.194,0.065
	c0.182,0.273,0.506,0.637,0.893,0.812C712.116,947.166,712.399,947.211,712.557,947.164z M714.095,948.264
	c0.09-0.274,0.09-0.274-0.085-0.418c-0.121-0.095-0.223-0.203-0.345-0.275c0.021,0.009,0.025,0.01-0.01-0.01
	c-0.09-0.049-0.087-0.045-0.06-0.03c-0.219-0.12-0.432-0.239-0.738-0.243C713.333,947.569,713.797,947.793,714.095,948.264z
	 M714.28,948.571c0.071-0.261,0.071-0.261-0.102-0.274c-0.026,0.186-0.037,0.358-0.057,0.514c0.135-0.001,0.246-0.052,0.326-0.146
	C714.427,948.567,714.371,948.531,714.28,948.571c0.023-0.001,0.041-0.067,0.044-0.099
	C714.321,948.504,714.303,948.57,714.28,948.571z M714.074,950.579c0.006,0.091-0.021,0.112-0.033,0.102
	C714.054,950.691,714.08,950.67,714.074,950.579c-0.111,0.091-0.209,0.159-0.301,0.227c0.005,0.026,0.005,0.049,0.005,0.075
	c0.056,0.016,0.124,0.059,0.168,0.038C714.057,950.861,714.09,950.759,714.074,950.579z M713.875,948.909
	c0.03-0.021,0.051-0.068,0.047-0.103c-0.026-0.173-0.054-0.342-0.084-0.515c-0.016,0-0.037,0-0.054,0.001
	c-0.004,0.018-0.017,0.04-0.014,0.051c0.054,0.229,0.008,0.401-0.226,0.51c-0.085,0.041-0.071,0.139-0.021,0.221
	c0.067,0.088,0.115,0.175,0.175,0.272c0.021-0.01,0.061-0.023,0.091-0.037C713.699,949.082,713.699,949.08,713.875,948.909z
	 M713.559,950.176c-0.011,0.098,0.033,0.167,0.111,0.192c0.046-0.172,0.108-0.328,0.134-0.49c0.024-0.083,0.048-0.14,0.136-0.159
	c0.117-0.029,0.141-0.137,0.117-0.229c0.01,0.046,0.01,0.022,0.004,0c0.006,0.022,0.006,0.046-0.004,0
	c-0.013-0.095-0.077-0.193-0.185-0.189c-0.027,0.125-0.021,0.279-0.094,0.341C713.603,949.792,713.575,949.973,713.559,950.176z
	 M713.758,951.896c-0.042-0.016-0.034-0.012-0.021-0.008C713.724,951.885,713.716,951.881,713.758,951.896
	c0.022,0.013,0.083-0.033,0.107-0.046c-0.081-0.101-0.125-0.174-0.182-0.251c-0.014-0.02-0.03-0.048-0.058-0.058
	c-0.205-0.088,0.058-0.3-0.034-0.437c-0.111-0.166-0.091-0.355-0.114-0.536c-0.011-0.064-0.036-0.133-0.055-0.192
	c-0.02,0.001-0.033,0.004-0.056,0.007c-0.028,0.164-0.039,0.331-0.024,0.502c-0.015,0.304-0.007,0.611,0.192,0.864
	C713.592,951.819,713.676,951.864,713.758,951.896z M714.087,952.688c0.062-0.2-0.11-0.303-0.057-0.464
	c-0.021-0.01-0.04-0.02-0.061-0.029c-0.034,0.039-0.102,0.065-0.111,0.108c-0.051,0.228-0.08,0.456-0.124,0.727
	C713.868,952.893,714.031,952.9,714.087,952.688C714.031,952.9,714.149,952.487,714.087,952.688z M714.344,951.955
	c-0.176-0.07-0.226-0.026-0.267,0.22C714.277,952.224,714.277,952.224,714.344,951.955z M715.199,950.253
	c-0.016-0.001-0.026-0.001-0.034-0.002c-0.124,0.128-0.235,0.267-0.362,0.375c-0.173,0.136-0.317,0.271-0.371,0.494
	c-0.005,0.028-0.115,0.048-0.189,0.048c-0.044-0.001-0.094-0.048-0.138-0.079c-0.114,0.307-0.068,0.476,0.107,0.514
	c0.125-0.285,0.298-0.32,0.466-0.548c0.158-0.208,0.323-0.421,0.485-0.633C715.186,950.378,715.184,950.307,715.199,950.253z
	 M714.704,948.719c-0.044,0.057-0.04,0.159-0.017,0.23c-0.014-0.036-0.01-0.026-0.007-0.012c-0.003-0.015-0.007-0.024,0.007,0.012
	c0.01,0.038,0.084,0.059,0.139,0.096c0-0.115,0.007-0.194-0.008-0.264C714.808,948.714,714.754,948.65,714.704,948.719z
	 M714.988,948.528c-0.021-0.245-0.027-0.501-0.253-0.673C714.849,948.067,714.808,948.342,714.988,948.528z M715.618,948.895
	c0-0.029-0.008-0.054-0.01-0.082c-0.021-0.007-0.042-0.016-0.055-0.023c-0.064,0.089-0.132,0.181-0.22,0.299
	c0.115,0.015,0.182,0.022,0.253,0.032C715.598,949.03,715.609,948.959,715.618,948.895z M716.269,947.244
	c-0.021-0.106-0.048-0.202,0.063-0.312c0.132,0.259,0.237,0.5,0.348,0.743c0.023-0.005,0.044-0.013,0.067-0.02
	c-0.014-0.096-0.007-0.199-0.05-0.289c-0.091-0.222-0.199-0.438-0.311-0.652c-0.124-0.188-0.283-0.346-0.465-0.489
	c-0.095-0.077-0.186-0.153-0.28-0.226c-0.022,0.059-0.032,0.105-0.013,0.134c0.142,0.23,0.154,0.674,0.006,0.352
	c-0.036-0.076-0.09-0.144-0.232-0.134c0.145,0.313,0.445,0.529,0.422,0.897c-0.067-0.023-0.108-0.059-0.148-0.104
	c-0.472-0.617-0.576-0.74-1.338-0.937c-0.327-0.084-0.6-0.286-0.856-0.504c-0.182-0.155-0.395-0.29-0.425-0.569
	c-0.003-0.03-0.077-0.067-0.124-0.079c-0.142-0.022-0.282-0.037-0.428-0.052c-0.337-0.032-0.611-0.199-0.836-0.45
	c-0.419-0.46-0.84-1.113-1.433-1.372c-0.271-0.114-0.496-0.281-0.718-0.463c-0.058-0.047-0.095-0.113-0.142-0.172
	c0.008-0.017,0.023-0.03,0.037-0.044c0.111,0.073,0.235,0.146,0.347,0.221c0.125,0.078,0.226,0.197,0.364,0.228
	c0.189,0.046,0.856,0.582,0.993,0.509c0.187-0.098,0.692,0.283,0.891,0.32c0.209,0.036,0.411,0.108,0.628,0.145
	c0.266,0.045,0.538,0.074,0.812,0.111c0.296,0.037,0.044,0.268-0.101,0.305c-0.224,0.059-0.448,0.049-0.672-0.032
	c-0.313-0.114-0.664-0.121-0.967-0.293c-0.027-0.017-0.064-0.022-0.122-0.042c0.034,0.207,0.214,0.25,0.304,0.369
	c0.286-0.088,0.755,0.148,1.055,0.173c0.229,0.018,0.459-0.007,0.682-0.008c0.058,0,0.094,0.023,0.147,0.041
	c-0.021,0.049-0.03,0.104-0.064,0.145c-0.019,0.022-0.054,0.031-0.093,0.041c-0.207,0.039-0.401,0.076-0.61,0.118
	c0.148,0.09,0.216,0.316,0.438,0.344c0.132,0.021,0.242,0.041,0.374,0.061c0.051,0.007,0.371-0.125,0.401-0.051
	c0.047,0.146,0.6,0.245,0.647,0.255c0.121,0.037,0.239,0.059,0.371,0.086c0.002-0.012,0.01-0.03,0.016-0.044
	c-0.201-0.118-0.445-0.182-0.575-0.395c0.223-0.023,0.434,0.024,0.653,0.061c0.223,0.036,0.414,0.147,0.619,0.225
	c0.189,0.067,0.352,0.198,0.53,0.3c-0.007-0.085-0.085-0.139-0.078-0.179c0.034-0.228-0.12-0.315-0.286-0.396
	c-0.017-0.114,0-0.199,0.108-0.225c0.286-0.08,0.568-0.149,0.858-0.208c0.152-0.029,0.323-0.048,0.476-0.02
	c0.216,0.034,0.418,0.126,0.633,0.175c0.092,0.022,0.203,0.076,0.321-0.032c-0.098-0.051-0.199-0.084-0.267-0.147
	c-0.311-0.279-0.678-0.424-1.075-0.55c-0.496-0.152-0.974-0.059-1.449-0.015c-0.235,0.02-0.455,0.055-0.681,0.026
	c-0.614-0.065-0.951-0.048-1.345-0.525c-0.337,0.172-0.674,0.184-1.027,0.125c-0.104-0.02-0.229,0.017-0.348,0.017
	c-0.304,0.004-0.542-0.143-0.803-0.283c-0.106-0.061-0.198-0.146-0.307-0.212c-0.125-0.074-0.279-0.118-0.391-0.208
	c-0.418-0.327-1.115-0.755-1.648-0.74c0.024,0.076,0.035,0.108,0.052,0.15c-0.31-0.102-0.695,0.014-0.866,0.254
	c0.3,0.056,0.645-0.002,0.961,0.038c0.029,0.006,0.066,0.019,0.097,0.039c0.371,0.323,0.778,0.615,1.056,1.042
	c0.253,0.383,0.62,0.652,0.993,0.899c0.28,0.187,0.672,0.327,0.91,0.56c0.217,0.221,0.438,0.512,0.715,0.657
	c0.091,0.05,1.152,0.551,1.105,0.627c-0.074,0.094-0.165,0.091-0.27-0.016c-0.051-0.02-0.074-0.072-0.122-0.072
	c-0.333-0.017-0.882-0.292-1.099-0.555c-0.046-0.056-0.12-0.145,0,0c-0.192-0.232-0.445-0.262-0.694-0.331
	c0-0.003-0.006-0.003-0.003-0.006c-0.021,0-0.017-0.021-0.037-0.021c-0.132-0.109-0.263-0.215-0.4-0.318
	c-0.018-0.017-0.082,0.02-0.121,0.032c0.069,0.203,0.256,0.286,0.521,0.286c0.01,0.009,0.021,0.016,0.03,0.024
	c0.004,0,0.007,0.002,0.01,0.003c-0.033,0.068-0.02,0.111,0.068,0.124c0.275,0.037,0.185,0.244,0.347,0.381
	c0.048-0.036,0.097-0.071,0.189-0.131c-0.018,0.18,0.212,0.187,0.161,0.372c-0.151-0.002-0.308,0.012-0.452-0.013
	c-0.194-0.034-0.388-0.098-0.579-0.144c-0.037-0.01-0.074,0.01-0.104,0.015c0.017,0.041,0.021,0.095,0.054,0.111
	c0.092,0.061,0.195,0.104,0.29,0.155c0.209,0.107,0.418,0.215,0.665,0.221c0.069,0,0.134,0.034,0.198,0.054
	c0.12,0.042,0.249,0.09,0.37,0.131c0.098,0.034,0.203,0.047,0.3,0.087c0.452,0.186,0.819,0.526,1.17,0.858
	c0.017-0.013,0.022-0.022,0.037-0.031c-0.015-0.047-0.01-0.113-0.034-0.14c-0.259-0.23-0.451-0.524-0.802-0.653
	c-0.203-0.08-0.354-0.216-0.496-0.412c0.064,0,0.108-0.012,0.143,0.003c0.296,0.131,0.596,0.25,0.879,0.406
	c0.532,0.292,0.844,0.689,1.155,1.191c0.005-0.109,0.018-0.19,0.007-0.265c-0.012-0.076-0.066-0.15-0.061-0.217
	c0.03-0.351-0.444-0.714-0.63-0.932c0.061-0.03,0.118-0.021,0.183,0.019c0.351,0.211,0.604,0.52,0.846,0.841
	c0.011,0.022,0.031,0.049,0.033,0.074c0.018,0.172,0.03,0.342,0.044,0.513c0.008,0.045,0.021,0.094,0.023,0.137
	C716.13,947.987,716.322,947.625,716.269,947.244z M712.86,944.75c-0.171-0.17-0.406-0.125-0.6-0.2
	c-0.005,0.023-0.013,0.047-0.016,0.072c0.202,0.06,0.4,0.124,0.604,0.184C712.85,944.788,712.855,944.766,712.86,944.75
	c-0.002,0.008-0.046-0.034-0.066-0.058C712.814,944.716,712.858,944.758,712.86,944.75z M712.855,958.996
	c0.118-0.178,0.208-0.381,0.316-0.576c-0.017-0.014-0.034-0.028-0.044-0.036c-0.139,0.095-0.3,0.167-0.418,0.286
	c-0.202,0.225-0.44,0.408-0.597,0.678c-0.104,0.173-0.778,0.938-0.69,1.117c0.032,0.261,0.164,0.433,0.388,0.509
	c0.036-0.007,0.08-0.081,0.104-0.136c0.044-0.116,0.067-0.238,0.118-0.35c0.085-0.158,0.188-0.306,0.27-0.471
	c0.168-0.338,0.324-0.695,0.547-1.014C712.885,958.947,712.874,958.963,712.855,958.996z M712.848,959.004
	c0.002-0.004,0.002-0.007,0.007-0.008C712.804,959.063,712.696,959.223,712.848,959.004z M710.189,944.601
	c-0.151-0.291-0.29-0.593-0.586-0.818c-0.034-0.024-0.064-0.049-0.068-0.069c0.034,0.286,0.279,0.514,0.415,0.763
	C710.009,944.578,710.072,944.62,710.189,944.601z M710.637,953.908c-0.183,0.083-0.304,0.448-0.213,0.627
	C710.63,954.343,710.714,954.064,710.637,953.908z M709.603,943.783c-0.028-0.021-0.039-0.051-0.068-0.069
	C709.538,943.733,709.569,943.758,709.603,943.783z M713.764,940.319c-0.404,0.241-0.806,0.277-1.251,0.364
	c0,0.024-0.002,0.044-0.002,0.068c0.076,0.014,0.076,0.008,0.056,0.001c0.021,0.007,0.021,0.012-0.056-0.001
	c0.148,0.025,1.955,0.351,1.604-0.187C714.01,940.4,713.984,940.18,713.764,940.319z M709.534,943.713
	c0.029,0.019,0.04,0.048,0.068,0.069C709.686,943.841,709.79,943.875,709.534,943.713z M711.556,950.854
	c0.125,0.207,0.18,0.221,0.323,0.094c-0.049-0.021-0.123-0.034-0.167-0.067C711.657,950.837,711.62,950.765,711.556,950.854z
	 M713.656,947.56c-0.02-0.01-0.039-0.02-0.06-0.03c0.021,0.012,0.051,0.029,0.069,0.041
	C713.663,947.567,713.66,947.562,713.656,947.56z M711.186,950.588c-0.034,0.016-0.044,0.063-0.068,0.092
	c0.031,0.016,0.068,0.046,0.099,0.041c0.179-0.029,0.357-0.066,0.579-0.112C711.571,950.538,711.38,950.483,711.186,950.588z
	 M711.971,945.558c0.01,0.009,0.021,0.016,0.03,0.024c0.004,0,0.007,0.002,0.01,0.003c0-0.003-0.006-0.003-0.003-0.006
	C711.988,945.579,711.991,945.558,711.971,945.558z M712.705,945.916L712.705,945.916
	C712.585,945.771,712.659,945.86,712.705,945.916z M714.087,952.688C714.031,952.9,714.149,952.487,714.087,952.688L714.087,952.688
	z M712.705,945.916L712.705,945.916C712.756,945.976,712.736,945.951,712.705,945.916z M711.664,936.94
	c0.004-0.003,0.007-0.005,0.01-0.006l-0.003,0.001C711.668,936.937,711.664,936.939,711.664,936.94z M708.476,935.587
	c0.294-0.387,0.726-0.616,1.015-0.967c0.136-0.14,0.283-0.263,0.444-0.373c0.104,0.103,0.068,0.164-0.013,0.233
	c-0.102,0.084-0.201,0.178-0.273,0.279c-0.085,0.124,0.044,0.578,0.169,0.642c0.186,0.032,0.36-0.016,0.526-0.153
	c0.168-0.053,0.339-0.094,0.52-0.132c0.396-0.093,0.784-0.22,1.121-0.47c0.155-0.119,0.344-0.208,0.502-0.329
	c0.226-0.186,0.378-0.415,0.461-0.689c0.031-0.053,0.833-1.515,0.801-1.029c-0.024,0.228-0.064,0.452-0.093,0.677
	c-0.05,0.365,0.035,1.074-0.34,1.301c-0.013,0.015-0.031,0.042-0.05,0.066c-0.23,0.375-0.674,0.652-0.997,0.95
	c-0.019,0.016-0.024,0.046-0.052,0.093c0.509,0.144,0.971-0.111,1.372-0.418c0.131-0.111,0.249-0.254,0.374-0.382
	c0.094-0.087,0.178-0.169,0.283-0.233c-0.236,0.366-0.283,0.779-0.351,1.184c-0.027,0.199-0.117,0.355-0.216,0.513
	c-0.098,0.158-0.095,0.207,0.05,0.31c0.085,0.022,0.146,0.074,0.196,0.148c-0.041,0.122-0.102,0.129-0.206,0.03
	c-0.114-0.108-0.209-0.241-0.322-0.337c-0.139-0.103-0.291-0.179-0.45-0.25c-0.033-0.017-0.1,0.03-0.161,0.045
	c0.014,0.091,0.058,0.162,0.125,0.212c-0.088,0.057-0.088,0.057-0.36,0c-0.091,0.128-0.183,0.259-0.282,0.398
	c0.08,0.03,0.127,0.052,0.191,0.077c-0.099,0.096-0.099,0.096-0.226,0.005c-0.023,0.069-0.049,0.137-0.085,0.241
	c0.168-0.02,0.324-0.042,0.486-0.061c0.003-0.034,0.016-0.053,0.014-0.069c-0.068-0.402,0.144,0.144,0.293-0.04
	c0.09-0.103,0.181-0.068,0.275-0.053c0.276,0.109,0.561,0.135,0.843,0.076c0-0.052,0-0.111,0-0.169
	c0.186-0.079,0.276,0.233,0.436,0.245c0.307,0.02,0.434,0.294,0.639,0.462c0.192,0.162,0.391,0.3,0.635,0.381
	c0.898,0.307,1.499,0.409,2.473,0.534c0.055,0.006,0.108,0.037,0.209,0.069c-0.188,0.105-0.41,0.203-0.582,0.325
	c-0.156,0.105-0.287,0.242-0.509,0.193c0.074,0.205,0.15,0.245,0.362,0.206c0.115-0.02,0.233-0.067,0.337,0.051
	c-0.215,0.105-0.406,0.255-0.653,0.256c-0.127,0.074-0.229,0.176-0.303,0.304c-0.07,0.066-0.145,0.124-0.216,0.186
	c0.128,0.18,0.361,0.03,0.449,0.209c-0.271,0.315-0.436-0.13-0.742-0.078c0.08,0.086,0.138,0.16,0.198,0.212
	c0.163,0.126,0.337,0.239,0.505,0.366c0.032,0.028,0.088,0.099,0.075,0.126c-0.033,0.072-0.085,0.145-0.148,0.191
	c-0.121,0.103-0.67-0.655-0.758-0.759c0.023-0.047,0.064-0.096,0.102-0.144c-0.027-0.021-0.037-0.04-0.058-0.042
	c-0.312-0.045-0.609-0.057-0.902-0.138c-0.257-0.062-0.503-0.199-0.75-0.299c-0.215-0.086-0.424-0.201-0.633-0.245
	c-0.381-0.077-0.907,0.005-1.237-0.207c0.081-0.057,0.139-0.13,0.223-0.15c0.436-0.138,0.83-0.153,1.244-0.352
	c0.107-0.052,0.209-0.11,0.307-0.17c0.041-0.024,0.057-0.071,0.104-0.123c-0.063-0.01-0.107-0.027-0.148-0.017
	c-0.196,0.056-0.384,0.116-0.587,0.171c-0.381,0.108-0.728-0.104-1.114,0.116c-0.169,0.095-0.352,0.157-0.53,0.231
	c-0.033,0.015-0.084-0.007-0.169-0.019c0.648-0.451,1.423-0.575,1.952-1.157c-0.205-0.095-0.418-0.118-0.653-0.064
	c-0.129,0.022-0.229-0.007-0.307-0.108c-0.108-0.14-2.006,1.065-2.276,1.23c-0.131,0.083-0.276,0.154-0.417,0.223
	c-0.047,0.026-0.108,0.031-0.159,0.054c-0.266,0.138-0.528,0.282-0.799,0.42c-0.046,0.025-0.104,0.017-0.171,0.024
	c0.051-0.234,0.357-0.197,0.36-0.428c0.316,0.086,0.583-0.337,0.711-0.548c-0.014-0.015-0.023-0.029-0.04-0.04
	c-0.115,0.059-0.232,0.121-0.348,0.182c-0.198,0.101-0.37,0.25-0.607,0.246c-0.056-0.002-0.117,0.052-0.18,0.091
	c-0.074-0.104-0.146-0.126-0.237-0.008c-0.054,0.066-0.142,0.107-0.216,0.163c-0.178,0.13-0.392,0.235-0.525,0.401
	c-0.155,0.192-0.247,0.435-0.375,0.666c0.26,0.131,0.277-0.106,0.548-0.133c0.362-0.033,0.767-0.138,1.138-0.132
	c0.466,0.005,0.935,0.01,1.39-0.113c0.046-0.012,0.095-0.022,0.141-0.022c0.32,0,0.6-0.121,0.886-0.228
	c0.173-0.061,0.337-0.148,0.507-0.22c0.016-0.007,0.036,0.005,0.097,0.02c-0.213,0.224-0.411,0.433-0.609,0.641
	c0.006,0.015,0.014,0.032,0.016,0.044c0.169-0.051,0.327-0.11,0.497-0.158c0.161-0.044,0.316-0.08,0.481-0.121
	c0.003,0.018,0.01,0.035,0.017,0.05c-0.084,0.064-0.164,0.13-0.252,0.184c-0.146,0.091-0.3,0.174-0.445,0.265
	c-0.189,0.115-0.388,0.132-0.57,0.239c-0.154,0.091-0.288,0.149-0.484,0.084c-0.129-0.042-0.293,0.037-0.445,0.062
	c-0.047,0.009-0.091,0.025-0.141,0.029c-0.152,0.015-0.305,0.025-0.448,0.037c-0.321,0.019-0.645,0.023-0.955,0.061
	c-0.169,0.019-0.333,0.083-0.491,0.141c-0.118,0.039-0.473,0.306-0.526,0.008c-0.074,0.041-0.135,0.072-0.209,0.113
	c0.091,0.133,0.102,0.241-0.09,0.26c-0.018,0-0.039,0.024-0.049,0.039c-0.126,0.125-0.253,0.247-0.376,0.374
	c-0.183,0.183-0.561,0.74-0.86,0.757c-0.053,0.002-0.11,0.094-0.158,0.158c-0.1,0.146-0.259,0.201-0.417,0.259
	c-0.057-0.072-0.121-0.143-0.195-0.234c0.095-0.084,0.188-0.168,0.287-0.251c0.087-0.078,0.125-0.148,0.01-0.225
	c0.01-0.022,0.017-0.044,0.027-0.046c0.242-0.047,0.381-0.254,0.545-0.404c0.324-0.284,0.643-0.556,1.012-0.786
	c0.332-0.206,0.699-0.337,1.044-0.517c0.016-0.01,0.036-0.032,0.057-0.056c-0.198-0.152-0.447-0.131-0.65,0.052
	c-0.033,0.03-0.064,0.076-0.095,0.079c-0.212,0.015-0.313,0.206-0.479,0.288c-0.127,0.062-0.263,0.127-0.376,0.201
	c-0.083,0.056-0.159,0.118-0.24,0.168c-0.336,0.198-0.667,0.398-1.003,0.596c-0.098,0.055-0.193,0.107-0.294,0.155
	c-0.023,0.014-0.064-0.008-0.101-0.042c0.216-0.061,0.293-0.296,0.539-0.35c0.169-0.036,0.314-0.19,0.466-0.302
	c0.276-0.198,0.519-0.415,0.781-0.633c0.084-0.072,0.081-0.16,0.054-0.251c-0.04-0.137-0.021-0.254,0.064-0.375
	c0.212-0.29,0.408-0.581,0.57-0.899c-0.015-0.009-0.021-0.019-0.03-0.029c-0.075,0.034-0.143,0.067-0.217,0.1
	c-0.014-0.008-0.023-0.015-0.041-0.022c0.024-0.064,0.034-0.129,0.068-0.188c0.014-0.032,0.088-0.06,0.083-0.084
	c-0.021-0.208,0.192-0.347,0.155-0.556c0.32-0.176,0.561-0.433,0.786-0.703c0.088-0.109,0.135-0.252,0.195-0.379
	c-0.007-0.008-0.017-0.02-0.03-0.032c-0.186,0.071-0.321,0.206-0.409,0.405c-0.19,0.271-0.461,0.426-0.75,0.561
	c-0.136,0.062-0.264,0.146-0.392,0.228c-0.525,0.359-0.771,0.777-0.815,1.415c-0.02,0.276,0.044,0.547-0.02,0.817
	c-0.014,0.003-0.034,0.005-0.051,0.008c-0.041-0.149-0.101-0.292-0.111-0.443c-0.034-0.438-0.034-0.903,0.246-1.274
	c0.461-0.615,1.185-0.932,1.758-1.424c0.037-0.032,0.051-0.093,0.085-0.153c-0.051-0.012-0.095-0.037-0.126-0.027
	c-0.222,0.148-0.444,0.17-0.667,0.07c0-0.016,0-0.03,0-0.043c-0.169,0.074-0.347,0.138-0.499,0.234
	c-0.1,0.061-0.161,0.186-0.252,0.263c-0.129,0.106-0.108,0.335-0.32,0.366l0,0v-0.002l-0.013-0.015
	c0.023-0.349,0.271-0.547,0.505-0.747c0.226-0.184,1.253-0.692,1.523-0.517c0.165,0.113,0.428-0.08,0.566-0.155
	c0.063-0.037,0.142-0.078,0.198-0.13c0.125-0.12,0.26-0.181,0.438-0.155c-0.077,0.158-0.293,0.183-0.323,0.418
	c0.156-0.08,0.33-0.15,0.498-0.21c0.271-0.044,0.365-0.17,0.308-0.457c0.327-0.167,0.671-0.339,1.028-0.517
	c-0.011-0.099-0.088-0.165-0.209-0.133c-0.282,0.101-0.57,0.201-0.859,0.3c0.04-0.137,0.132-0.214,0.231-0.27
	c0.277-0.16,0.561-0.312,0.837-0.467c0.693-0.398,1.601-0.738,1.662-1.655c-0.014-0.01-0.031-0.017-0.044-0.027
	c-0.034,0.042-0.092,0.081-0.112,0.128c-0.04,0.096-0.063,0.199-0.104,0.294c-0.131,0.272-0.316,0.474-0.606,0.599
	c-0.28,0.123-0.533,0.312-0.813,0.451c-0.263,0.132-0.536,0.239-0.835,0.249c-0.103,0.003-0.206,0.075-0.311,0.103
	c-0.381,0.099-0.782,0.148-1.119,0.39c-0.064,0.049-0.132,0.102-0.195,0.146c-0.04,0.027-0.088,0.046-0.135,0.066
	c-0.013-0.013-0.034-0.028-0.046-0.044c0.178-0.323,0.263-0.505,0.278-0.871c0-0.02-0.044-0.044-0.066-0.064
	c-0.247,0.246-0.395,0.542-0.526,0.848c-0.041,0.094-0.357,0.312-0.29,0.032C708.385,935.794,708.406,935.673,708.476,935.587z
	 M709.227,940.733c0.005,0.018,0.008,0.032,0.011,0.049c0.381,0.012,1.406,0.027,1.743-0.199c0.209-0.136,0.432-0.243,0.645-0.369
	c0.036-0.026,0.076-0.073,0.131-0.131c-0.075-0.016-0.139-0.044-0.156-0.027c-0.093,0.087-0.22,0.067-0.319,0.109
	c-0.227,0.098-0.456,0.119-0.691,0.133c-0.03,0.001-0.051,0.001-0.003,0c-0.136,0.006-0.217,0.032-0.22,0.149
	c-0.151,0.044-0.29,0.098-0.432,0.113C709.693,940.584,709.447,940.6,709.227,940.733z M708.56,938.683
	c-0.191,0.125-0.259,0.275-0.274,0.46C708.362,938.997,708.548,938.924,708.56,938.683z M715.004,938.295
	c-0.111-0.182-0.111-0.178-0.391-0.287c-0.125-0.048-0.21-0.032-0.276,0.093c-0.027,0.066-0.095,0.117-0.122,0.184
	c-0.033,0.051-0.05,0.109-0.066,0.168c0.013,0.013,0.026,0.027,0.043,0.039C714.432,938.341,714.715,938.372,715.004,938.295z
	 M717.124,939.396c-0.436-0.172-1.021-0.237-1.389-0.539c-0.117-0.101-0.229-0.221-0.354-0.329
	c-0.239-0.219-0.577,0.557-0.798,0.679c-0.049,0.022-0.074,0.064-0.129,0.106c0.528,0.465,1.354,0.229,1.988,0.476
	c0.084,0.032,0.186,0.012,0.275,0.019c0.004-0.023,0.011-0.042,0.014-0.066c-0.124-0.059-0.245-0.125-0.364-0.18
	c-0.181-0.077-1.344-0.609-1.044-0.934c0.162,0.134,0.31,0.31,0.494,0.411c0.281,0.147,0.563,0.269,0.85,0.39
	C716.824,939.491,716.969,939.432,717.124,939.396z M713.665,937.452c0.325,0.103,0.594,0.06,0.921,0.229
	c0.217,0.11,0.482,0.233,0.559,0.479c0.166,0.025,0.321,0.032,0.337,0.246c0.005,0.024,0.059,0.042,0.075,0.059
	c0.145,0.091,0.27,0.19,0.404,0.295c0.272,0.049,0.55,0.074,0.82,0.1c0.043,0.003,0.087-0.041,0.157-0.069
	c-0.391-0.32-0.988-0.494-1.452-0.682c-0.337-0.14-0.557-0.361-0.778-0.649c-0.037-0.049-0.425-0.285-0.496-0.252
	C714.041,937.281,713.868,937.359,713.665,937.452z M710.701,936.532c0.01,0.022,0.02,0.042,0.025,0.062
	c0.078-0.013,0.159-0.007,0.224-0.039c0.225-0.116,0.441-0.252,0.67-0.359c0.005,0,0.005-0.001,0.007-0.003
	c0.148-0.069,0.307-0.166,0.505-0.035c-0.057-0.236-0.107-0.277-0.276-0.209c-0.285,0.113-0.568,0.241-0.845,0.374
	C710.903,936.376,710.805,936.462,710.701,936.532z M711.898,937.927c-0.287,0.101-0.476,0.297-0.638,0.524
	C711.422,938.224,711.611,938.028,711.898,937.927z M711.054,938.242c0.074-0.023,0.128-0.028,0.162-0.054
	c0.271-0.196,0.64-0.706,0.944-0.362c-0.008-0.096-0.011-0.151-0.011-0.212c0,0.03,0.018,0.024,0.026,0.012
	c-0.009,0.012-0.026,0.018-0.026-0.012c0.07-0.027,0.142-0.058,0.239-0.096C712.103,937.426,711.253,937.883,711.054,938.242z
	 M711.985,936.555c-0.447,0.098-0.825,0.455-1.258,0.531c-0.371,0.072-0.664,0.317-1.001,0.465c-0.229,0.104,0.071,0.32-0.098,0.498
	c-0.083,0.091-0.157,0.193-0.244,0.293c0.185,0.076,0.355-0.007,0.505-0.24c0.34-0.17,0.242,0.172,0.141,0.284
	c-0.129,0.133-0.253,0.266-0.373,0.398c0.054,0.023,0.11,0.018,0.154-0.005c0.124-0.064,0.242-0.133,0.36-0.209
	c0.118-0.081,0.232-0.17,0.344-0.256c0.189-0.143,0.381-0.285,0.563-0.433c0.098-0.08,0.189-0.172,0.284-0.26
	c-0.007-0.021-0.018-0.032-0.024-0.051c-0.211,0.036-0.425,0.074-0.646,0.115c-0.196,0.037-0.26,0.2-0.476,0.181
	c0.011-0.048,0.004-0.115,0.034-0.139c0.102-0.086,0.201-0.172,0.32-0.231c0.356-0.19,0.728-0.369,1.095-0.555
	c-0.088,0.044-0.22,0.112,0.007-0.005c0.08-0.042,0.051-0.027,0.003-0.001c0.229-0.119,0.458-0.238,0.688-0.361
	c-0.003-0.025-0.013-0.052-0.019-0.079C712.217,936.517,712.103,936.526,711.985,936.555z M711.625,936.195l0.002-0.002
	C711.657,936.179,711.678,936.169,711.625,936.195z M713.36,938.212c0.192-0.046,0.37-0.146,0.597-0.236
	c-0.166-0.069-0.28-0.023-0.775,0.157c-0.243,0.089-0.489,0.167-0.694,0.34C712.705,938.539,713.13,938.265,713.36,938.212z
	 M713.181,938.132C713.676,937.952,712.938,938.22,713.181,938.132L713.181,938.132z M711.62,936.196
	c0.005,0,0.005-0.001,0.007-0.003l-0.002,0.002C711.62,936.196,711.62,936.196,711.62,936.196z M706.876,938.302l0.013,0.017v-0.002
	L706.876,938.302z M718.405,942.82C718.358,942.667,718.109,942.775,718.405,942.82L718.405,942.82z M706.636,938.557
	c0.004,0.017,0.014,0.037,0.024,0.058c0.074,0,0.148,0.001,0.218,0.001c0.003-0.123,0.007-0.208,0.011-0.296l-0.013-0.017
	C706.794,938.388,706.718,938.473,706.636,938.557z M710.589,940.299h-0.003C710.538,940.301,710.559,940.301,710.589,940.299z
	 M716.444,939.789C716.114,939.664,716.528,939.821,716.444,939.789L716.444,939.789z M711.625,936.195
	c-0.005,0.001-0.005,0.001-0.005,0.001C711.563,936.223,711.487,936.26,711.625,936.195z M710.586,940.299h0.003
	C710.644,940.296,710.737,940.291,710.586,940.299z M698.853,947.091c0-0.001,0.001-0.002,0.001-0.005
	c-0.004,0.009-0.01,0.022-0.017,0.034C698.843,947.111,698.848,947.102,698.853,947.091z M695.64,942.855h0.002
	C695.727,942.816,695.69,942.833,695.64,942.855z M698.917,946.336L698.917,946.336C698.884,946.388,698.84,946.457,698.917,946.336
	z M693.623,950.112C694.091,950.068,693.529,949.96,693.623,950.112L693.623,950.112z M695.642,942.855h-0.002
	C695.569,942.89,695.468,942.935,695.642,942.855z M695.746,948.635C695.828,948.989,695.929,948.619,695.746,948.635
	L695.746,948.635z M700.864,957.644c-0.036,0.05-0.049,0.102-0.083,0.151C700.823,957.734,700.862,957.674,700.864,957.644z
	 M706.69,949.681C706.62,949.456,706.599,949.756,706.69,949.681L706.69,949.681z M714.586,942.715
	c-0.01-0.048-0.04-0.082-0.057-0.126C714.476,942.561,714.438,942.699,714.586,942.715z M718.803,944.963
	c0.063,0.013,0.124,0.104,0.185,0.155c-0.027-0.066-0.058-0.137-0.088-0.201C718.876,944.933,718.836,944.947,718.803,944.963z
	 M713.948,943.577c0.064,0.031,0.132,0.03,0.2,0.053C714.203,943.603,714.046,943.458,713.948,943.577z M699.297,958.54
	C699.302,958.576,699.239,958.063,699.297,958.54L699.297,958.54z M705.801,951.462L705.801,951.462L705.801,951.462
	L705.801,951.462z M700.675,954.855C700.39,954.529,700.662,954.87,700.675,954.855L700.675,954.855z M710.454,953.449
	c-0.222-0.214-0.344-0.044-0.363,0.195c-0.015,0.172-0.015,0.339-0.015,0.512c0,0.068,0.018,0.141,0.03,0.213
	c0.159-0.026,0.186-0.118,0.196-0.227c0.004-0.078,0-0.051,0-0.017c0-0.034,0.004-0.062,0,0.017
	c0.007-0.155,0.021-0.299,0.172-0.403C710.57,953.68,710.545,953.533,710.454,953.449z M703.113,956.119
	c-0.106-0.204,0.103-0.336,0.105-0.521c-0.189,0.109-0.315,0.256-0.289,0.477c0.001,0.003,0.001,0.006,0.001,0.008
	c0.047,0.302,0.245,0.533,0.384,0.787c0.007,0.014,0.037,0.012,0.059,0.015c0.051-0.169,0.051-0.259-0.057-0.354
	c-0.119-0.102-0.098-0.203-0.032-0.313c0.032-0.058,0.084-0.105,0.13-0.155c0.057-0.067,0.094-0.137-0.001-0.212
	C703.307,955.939,703.308,956.15,703.113,956.119z M702.929,956.078c0,0.003,0.001,0.004,0.001,0.005c0-0.002,0-0.005-0.001-0.008
	C702.929,956.076,702.929,956.076,702.929,956.078z M703.667,956.229c0.01-0.021,0.014-0.019-0.015,0.064
	c0.059-0.167,0.125-0.329,0.19-0.501c-0.061,0.174-0.344,0.244-0.249,0.482c0.018,0.008,0.039,0.016,0.059,0.019
	C703.681,956.211,703.677,956.209,703.667,956.229z M709.515,956.261c-0.166-0.074-0.156,0.094-0.229,0.145
	c-0.048,0.03-0.095,0.059-0.146,0.084c-0.026-0.05-0.044-0.098-0.063-0.135c-0.132-0.065-0.256-0.112-0.361-0.19
	c-0.113-0.079-0.209-0.105-0.34-0.035c-0.132,0.069-0.286,0.101-0.428,0.15c-0.007-0.024-0.018-0.039-0.027-0.062
	c0.058-0.051,0.108-0.104,0.175-0.161c-0.029-0.029-0.07-0.081-0.091-0.074c-0.114,0.047-0.236,0.106-0.367,0.17
	c0.081,0.065,0.125,0.109,0.193,0.164c-0.193,0.047-0.358,0.113-0.53,0.119c-0.242,0.013-0.478-0.022-0.714-0.03
	c-0.232-0.123-0.394-0.314-0.481-0.572c-0.027-0.033-0.118-0.015-0.179-0.02c0.014,0.304,0.412,0.517,0.176,0.816
	c-0.078,0.104-0.165,0.112-0.347,0.032c-0.36-0.158-1.072,0.624-1.326,0.098c-0.106-0.039-0.172,0-0.208,0.108
	c-0.189-0.01-0.329,0-0.283-0.245c0.006-0.077,0.031-0.146,0.046-0.225c0.01-0.089,0.021-0.177-0.107-0.243
	c-0.036,0.132-0.089,0.243-0.095,0.36c-0.011,0.244-0.333,0.217-0.048,0.43c-0.061,0.065-0.089,0.104-0.125,0.144
	c0.104,0.19,0.162,0.371,0.052,0.584c-0.063,0.124,0.025,0.305,0.162,0.398c0.14-0.063,0.395-0.472,0.536-0.571
	c0.338-0.231,0.692-0.463,1.117-0.433c0.32,0.02,0.603-0.061,0.89-0.179c0.07-0.031,0.151-0.031,0.225-0.036
	c0.216-0.026,0.435-0.032,0.653-0.07c0.378-0.066,0.711-0.2,1.109-0.179c0.113,0.006,0.252,0.002,0.337,0.063
	c0.104,0.077,0.183,0.085,0.304,0.067c0.107-0.019,0.216,0.025,0.285-0.103c0.008-0.009,0.055,0.002,0.111,0.007
	c-0.037,0.066-0.06,0.11-0.093,0.154c0.063,0.081,0.12,0.155,0.168,0.227c0.238-0.103,0.495-0.167,0.52-0.532
	c-0.18,0.125-0.325,0.224-0.476,0.322C709.4,956.609,709.508,956.434,709.515,956.261z M702.929,956.078c0-0.002,0-0.002,0-0.003
	C702.923,956.026,702.918,955.99,702.929,956.078z M701.812,952.805c-0.201-0.043-0.399-0.084-0.604-0.11
	c-0.039-0.007-0.087,0.057-0.131,0.086c0.034,0.029,0.073,0.091,0.109,0.088c0.334-0.031,0.57,0.278,0.923,0.229
	c0.069-0.305,0.059-0.322-0.232-0.295C701.853,952.805,701.834,952.805,701.812,952.805z M709.929,954.168
	c0.145-0.174,0.129-0.377-0.061-0.664C709.753,953.645,709.794,953.968,709.929,954.168z M709.173,953.176
	c-0.178,0.126-0.083,0.427,0.179,0.6C709.481,953.511,709.241,953.368,709.173,953.176z M701.878,952.803
	C702.169,952.775,701.853,952.805,701.878,952.803L701.878,952.803z M702.931,956.083c0-0.001-0.001-0.002-0.001-0.005
	C702.956,956.255,702.943,956.157,702.931,956.083z M708.823,953.039c-0.131,0.085-0.138,0.186-0.022,0.301
	c0.041-0.036,0.076-0.071,0.134-0.122C708.89,953.143,708.861,953.091,708.823,953.039z M704.187,954.507
	c-0.004-0.102-0.004-0.084-0.002-0.048C704.183,954.423,704.183,954.405,704.187,954.507c-0.007-0.201,0.089-0.34,0.229-0.461
	c0.242-0.215,0.027-0.504-0.093-0.739c-0.189-0.384-0.288,0.831-0.324,0.906c-0.107,0.224-0.062,0.386,0.132,0.55
	C704.156,954.66,704.19,954.579,704.187,954.507z M703.226,953.052c-0.025-0.03-0.057-0.086-0.096-0.149
	c-0.081,0.05-0.14,0.081-0.186,0.119c-0.061,0.052-0.049,0.043-0.029,0.025c-0.02,0.018-0.032,0.026,0.029-0.025
	c-0.273,0.111-0.389,0.295-0.345,0.543C702.688,953.688,703.172,953.103,703.226,953.052z"/>
</svg>
