<svg version="1.1" id="Ebene_1" xmlns="http://www.w3.org/2000/svg" xmlns:xlink="http://www.w3.org/1999/xlink" x="0px" y="0px"
	 width="170px" height="193px" viewBox="0 0 170 193" enable-background="new 0 0 170 193" xml:space="preserve">
<g>
	<path fill-rule="evenodd" clip-rule="evenodd" fill="none" d="M13.479,102.057c0-30.824,0-61.647,0-92.577
		c38.534,0,77.068,0,115.602,0c-2.43,1.717-4.866,3.425-7.288,5.154c-2.059,1.47-4.1,2.964-6.148,4.447
		c-0.188-0.034-0.377-0.068-0.565-0.103c-0.334,0.149-0.669,0.298-1.004,0.447c-0.317,0.317-0.636,0.634-0.953,0.951
		c-0.158,0.167-0.315,0.335-0.473,0.502c-0.321,0.152-0.644,0.305-0.966,0.457c-0.161,0.162-0.323,0.324-0.485,0.485
		c-0.159,0.16-0.318,0.319-0.478,0.478c-0.32,0.16-0.64,0.32-0.959,0.48c-0.161,0.16-0.321,0.321-0.482,0.481
		c-0.155,0.166-0.312,0.332-0.467,0.497c-0.261,0.339-0.521,0.678-0.782,1.017c-0.223-0.025-0.445-0.05-0.668-0.075
		c-0.16,0.16-0.321,0.32-0.481,0.48c-0.155,0.166-0.312,0.331-0.467,0.496c-0.322,0.153-0.644,0.305-0.966,0.458
		c-0.161,0.162-0.323,0.323-0.485,0.485c-0.156,0.166-0.312,0.332-0.468,0.497c-0.261,0.339-0.521,0.678-0.782,1.017
		c-0.223-0.025-0.446-0.05-0.669-0.075c-0.156,0.166-0.312,0.332-0.468,0.497c-1.121,0.792-2.243,1.584-3.363,2.376
		c-0.162,0.162-0.324,0.323-0.486,0.485c-0.156,0.166-0.312,0.332-0.468,0.497c-1.238,0.998-2.478,1.997-3.717,2.994l0.004-0.003
		c-0.68,0.382-1.411,0.695-2.032,1.156c-8.691,6.465-17.417,12.887-26.032,19.452c-6.295,4.797-12.452,9.778-18.632,14.723
		c-0.42,0.336-0.528,1.062-0.781,1.607l-0.015-0.017c1.065-0.266,1.509,0.078,0.67,0.951c-0.499,0.52-1.363,0.688-2.063,1.014
		c-0.206,0.044-0.41,0.089-0.149,0.032c-0.244,0.114-0.06,0.028,0.125-0.058c0.382,0.037,0.765,0.074,1.147,0.11
		c0.01,0.143,0.02,0.286,0.03,0.429c-1.511,0.297-3.022,0.594-4.534,0.891c-0.184-0.085-0.368-0.17-0.131-0.06
		c-0.252-0.054-0.048-0.01,0.155,0.033c-4.399,1.295-8.808,2.559-13.187,3.918c-0.678,0.21-1.218,0.861-1.822,1.309
		c0.13,0.181,0.26,0.362,0.39,0.543c2.343-0.48,4.686-0.961,7.028-1.442c0.049,0.143,0.099,0.287,0.148,0.43
		c-0.237,0.196-0.474,0.392-0.711,0.586c-0.642,0.156-1.283,0.312-1.924,0.468c-0.068,0.037-0.136,0.073-0.203,0.111
		c0.06-0.046,0.12-0.091,0.18-0.137c0.642-0.156,1.284-0.312,1.925-0.468c4.575-1.109,9.126-2.34,13.74-3.257
		c1.504-0.299,3.298-0.103,4.736,0.449c2.185,0.838,4.137,2.26,6.258,3.292c1.904,0.926,3.94,1.579,5.85,2.494
		c4.651,2.228,9.175,4.745,13.923,6.733c2.588,1.083,5.522,1.356,8.312,1.938c7.11,1.483,14.226,2.947,21.343,4.394
		c6.23,1.267,12.467,2.5,18.684,3.744c-0.074,0.919-0.138,1.716-0.249,3.087c7.442-5.043,14.472-9.807,21.796-14.771
		c0.111,0.99,0.261,1.594,0.234,2.189c-0.295,6.624-0.75,13.243-0.87,19.869c-0.052,2.834-1.033,4.936-2.811,7.066
		c-7.311,8.767-14.521,17.617-21.64,26.54c-2.152,2.698-3.892,5.727-5.886,8.701c4.759-4.602,9.406-9.095,14.169-13.7
		c0.248,4.438,0.479,8.56,0.709,12.681c-0.047,0.002-0.093,0.005-0.14,0.008c-0.254-1.948-0.507-3.896-0.761-5.845
		c-0.238,0.022-0.478,0.046-0.716,0.068c0.626,13.349,1.253,26.696,1.881,40.077c1.502,0.019,2.344-0.491,1.854-2.382
		c-0.127-0.487,0.545-1.192,0.876-1.783c0.295-0.526,0.835-1.004,0.905-1.551c0.262-2.041,0.484-4.099,0.522-6.154
		c0.077-4.109,0.022-8.221,0.022-12.331c0.127-0.001,0.253-0.002,0.379-0.003c0,2.746,0,5.492,0,8.238
		c0.76-3.517,1.396-7.031,1.478-10.559c0.104-4.446-0.315-8.902-0.385-13.355c-0.073-4.743-0.042-9.489,0.049-14.232
		c0.016-0.803,0.387-1.735,0.893-2.368c2.426-3.035,4.787-6.149,7.487-8.927c3.376-3.47,4.642-7.456,4.549-12.219
		c-0.099-5.087,0.246-10.185,0.436-15.276c0.108-2.903,0.365-5.802,0.381-8.705c0.003-0.559-0.776-1.571-1.25-1.605
		c-1.993-0.141-2.207-1.604-2.47-2.981c-1.331-6.98-2.559-13.981-3.925-20.955c-0.521-2.657-1.314-5.261-1.984-7.888l0.01,0.009
		c-0.274-0.918-0.548-1.835-0.821-2.753c0.137-0.42,0.272-0.84,0.408-1.26c-0.129-0.042-0.259-0.083-0.388-0.124
		c-0.104,0.377-0.208,0.755-0.312,1.132c-0.063-0.716-0.126-1.431-0.188-2.147c0.137-0.42,0.272-0.839,0.408-1.26
		c-0.129-0.041-0.259-0.083-0.388-0.124c-0.104,0.377-0.208,0.755-0.312,1.132c-0.021-1.113,0.103-2.253-0.095-3.334
		c-0.427-2.338-1.019-4.647-1.543-6.968c0.063-0.152,0.129-0.305,0.194-0.457c-0.152,0.066-0.305,0.132-0.456,0.198
		c-0.256-1.408-0.459-2.828-0.779-4.221c-0.564-2.448-1.193-4.882-1.808-7.318c-0.607-2.409-1.167-4.787,1.771-6.194
		c0.252-0.121,0.381-0.494,0.566-0.75c0.121-0.197,0.242-0.394,0.363-0.591c0.359-0.122,0.718-0.245,1.077-0.368
		c0.122-0.195,0.244-0.389,0.366-0.583c0.038-0.063,0.076-0.127,0.113-0.191c-0.03,0.07-0.062,0.141-0.093,0.211
		c-0.206,0.112-0.413,0.225-0.619,0.336c-0.271,0.209-0.541,0.419-0.812,0.628c-0.209,0.111-0.418,0.222-0.626,0.333
		c-0.924,0.579-1.847,1.157-2.94,1.843c-0.425-1.671-0.793-3.124-1.162-4.578c-0.555,0.862-0.767,1.701-0.517,2.367
		c0.958,2.548-0.361,3.745-2.25,5.241c-4.67,3.697-9.376,7.447-13.47,11.746c-3.498,3.673-4.795,8.301,0.586,12.9
		c0.225,0.192,0.362,0.488,0.569,0.775c-0.214,0.32-0.358,0.603-0.563,0.832c-2.967,3.316-5.909,6.655-8.94,9.911
		c-0.549,0.589-1.423,0.995-2.222,1.212c-4.921,1.335-9.837,2.708-14.806,3.847c-6.979,1.602-14.021,2.928-21,4.532
		c-4.782,1.099-9.501,2.471-14.249,3.722l0.035-0.036c-0.653,0.176-1.306,0.352-1.959,0.527l0.029-0.038
		c-0.806-0.007-1.612-0.015-2.418-0.023l0.023,0.023c3.417-2.731,6.82-5.479,10.251-8.192c11.667-9.225,23.351-18.426,35.008-27.664
		c2.385-1.89,4.677-3.897,7.012-5.85c0,0,0.077,0.052,0.077,0.052l-0.052-0.077c0.471-0.318,0.941-0.637,1.412-0.956
		c0.166,0,0.331,0,0.496,0c-0.005-0.16-0.011-0.319-0.016-0.479c6.158-4.688,12.385-9.291,18.441-14.107
		c2.404-1.913,4.579-3.172,7.744-1.773c1.79,0.791,3.857,0.97,5.811,1.37c0.7,0.143,1.435,0.123,2.153,0.177
		c0.043-0.226,0.085-0.452,0.128-0.678c-4.067-1.229-8.134-2.458-12.201-3.688c7.675,0,15.35,0,23.024,0c0,59.16,0,118.32,0,177.479
		c-46.368,0-92.737,0-139.105,0c0-26.861,0-53.724,0-80.585c0.428,1.486,0.856,2.974,1.285,4.461
		c0.483-1.613,0.604-3.288,0.661-4.965c0.098-2.963,0.737-3.776,3.584-4.438c4.404-1.023,4.988-1.791,5.078-6.442
		c0.027-1.419,0.141-2.878,2.165-3.018c0.374,2.063,0.662,4.024,1.101,5.952c0.292,1.285-0.132,1.896-1.355,2.265
		c-2.435,0.735-4.875,1.484-7.235,2.424c-0.764,0.304-1.811,1.233-1.795,1.853c0.024,0.974,0.84,1.927,1.32,2.89l-0.035-0.036
		c8.161,3.381,16.271,6.892,24.493,10.116c17.136,6.724,34.322,13.322,51.51,19.915c5.742,2.202,11.552,4.229,17.743,6.486
		c0.072,1.192,0.181,2.978,0.29,4.764c0,0.001,0.021-0.021,0.021-0.021c-0.009,0.161-0.018,0.321-0.026,0.482l0.037-0.028
		c-0.856,1.979-2.173,0.981-3.358,0.482c-10.587-4.464-21.097-9.119-31.764-13.381c-17.625-7.043-35.344-13.853-53.042-20.714
		c-2.271-0.881-4.649-1.481-6.979-2.211c0.163,0.43,0.414,0.62,0.695,0.739c8.078,3.412,16.168,6.795,24.223,10.261
		c0.763,0.328,1.772,1.104,1.872,1.787c0.781,5.381,1.334,10.794,2.059,16.185c0.087,0.65,0.775,1.221,0.965,1.504
		c4.593-4.575,1.816-9.909,2.733-14.904c0.085,1.573,0.165,3.029,0.244,4.484c0.1-0.014,0.199-0.026,0.3-0.04
		c0.341-1.652,0.683-3.304,1.062-5.132c6.237,2.65,12.174,5.134,18.074,7.701c2.115,0.921,3.142,2.554,2.993,4.993
		c-0.157,2.579,0.045,5.179-0.095,7.76c-0.066,1.218-0.565,2.412-0.849,3.538c-0.896,0-1.547,0-2.393,0
		c0.233,0.571,0.379,0.93,0.524,1.289l0.025-0.025c-0.928,2.107-0.537,6.754,0.776,7.451c4.821,2.561,9.662,5.088,14.575,7.466
		c0.841,0.407,2.34,0.424,3.069-0.068c4.159-2.807,7.968-5.938,6.626-11.865c-0.156-0.688-0.283-1.383-0.469-2.062
		c-0.079-0.29-0.203-0.692-0.425-0.801c-3.787-1.859-1.725-4.866-1.835-7.864c1.485,0.587,2.573,1.006,3.654,1.444
		c4.825,1.957,9.661,3.89,14.465,5.898c1.393,0.582,2.691,1.384,4.033,2.085c1.452,0.413,2.616-0.127,2.68-2.269
		c0.107-3.634,0.522-7.257,0.808-10.885l-0.028,0.022c1.836-2.477,3.851-4.847,5.434-7.476c0.805-1.338,1.27-3.187,1.121-4.73
		c-0.354-3.675-1.165-7.306-1.757-10.754c-2.728,1.311-1.914,4.461-1.966,7.468c-2.236-0.968-4.124-2.016-6.144-2.621
		c-11.619-3.487-23.291-6.8-34.906-10.303c-16.501-4.976-32.972-10.052-49.435-15.151c-0.649-0.201-1.523-1.064-1.55-1.652
		c-0.149-3.333-0.072-6.676-0.072-10.184c0.972,0.171,1.75,0.258,2.502,0.448c26.148,6.6,52.288,13.237,78.449,19.787
		c3.938,0.985,7.767,2.699,11.985,2.261c0.596,3.792,2.158,5.924,4.839,6.922c0.21-1.23,0.427-2.508,0.646-3.785l0.019,0.049
		c-0.053-2.085-0.067-4.171-0.197-6.25c-0.022-0.359-0.538-0.688-0.826-1.029l0.037,0.023c-0.475-0.422-0.901-1.123-1.434-1.216
		c-2.701-0.472-2.521,1.943-3.139,3.445c-2.666-0.284-3.331-0.619-3.619-1.772c0.202-0.029,0.403-0.059,0.102-0.015
		c0.276-0.147,0.1-0.053-0.078,0.042c-0.782-0.167-1.563-0.333-2.346-0.499l-0.023,0.027c0.324-0.061,0.649-0.121,1.255-0.232
		c-0.531-0.252-0.736-0.394-0.962-0.451c-19.088-4.888-38.168-9.809-57.271-14.635c-9.281-2.345-18.608-4.511-27.914-6.757
		c-0.181-0.082-0.36-0.164-0.093-0.042c-0.289-0.035-0.086-0.011,0.117,0.014c-0.023,0.177-0.046,0.353-0.069,0.529l0.035-0.036
		c-1.411-0.207-2.822-0.414-3.953-0.58c-0.36,1.254-0.612,2.134-0.865,3.014l0.046-0.034c-0.27-0.971-0.455-1.979-0.839-2.902
		c-0.255-0.613-0.795-1.106-1.207-1.653c-0.326,0.619-0.876,1.215-0.94,1.86c-0.273,2.771,0.801,4.971,3.562,6.397
		c-4.341,1.324-4.447,1.451-4.495,5.022c-0.006,0.478,0.011,0.955-0.005,1.432c-0.051,1.467-0.582,2.359-2.151,2.953
		C17.34,99.629,15.454,100.959,13.479,102.057z M71.291,137.641c-0.053,0.047-0.146,0.092-0.15,0.142
		c-0.003,0.051,0.083,0.106,0.13,0.16c0.054-0.046,0.146-0.091,0.15-0.142C71.425,137.751,71.338,137.694,71.291,137.641z"/>
	<path fill-rule="evenodd" clip-rule="evenodd" d="M126.686,112.133c-0.219,1.277-0.436,2.555-0.646,3.785
		c-2.681-0.998-4.243-3.13-4.839-6.922c-4.219,0.438-8.048-1.275-11.985-2.261c-26.161-6.549-52.3-13.187-78.449-19.787
		c-0.752-0.189-1.53-0.277-2.502-0.448c0,3.508-0.077,6.851,0.072,10.184c0.027,0.588,0.901,1.451,1.55,1.652
		c16.463,5.1,32.934,10.176,49.435,15.151c11.615,3.503,23.287,6.815,34.906,10.303c2.02,0.605,3.907,1.653,6.144,2.621
		c0.052-3.007-0.762-6.157,1.966-7.468c0.592,3.448,1.403,7.079,1.757,10.754c0.148,1.544-0.316,3.393-1.121,4.73
		c-1.583,2.629-3.598,4.999-5.433,7.476c0-0.343,0-0.686,0-1.027c0.168-0.309,0.335-0.616,0.502-0.924l0.065-0.066l-0.062,0.067
		c-0.158,0.315-0.316,0.631-0.476,0.947c0,0.327-0.002,0.654-0.003,0.98c-0.285,3.628-0.7,7.251-0.808,10.885
		c-0.063,2.142-1.228,2.682-2.68,2.269c-1.342-0.701-2.641-1.503-4.033-2.085c-4.804-2.009-9.64-3.941-14.465-5.898
		c-1.081-0.438-2.169-0.857-3.654-1.444c0.11,2.998-1.952,6.005,1.835,7.864c0.222,0.108,0.346,0.511,0.425,0.801
		c0.186,0.679,0.313,1.374,0.469,2.062c1.342,5.928-2.467,9.059-6.626,11.865c-0.729,0.492-2.229,0.476-3.069,0.068
		c-4.913-2.378-9.754-4.905-14.575-7.466c-1.313-0.697-1.704-5.344-0.776-7.451c0.161,0.165,0.321,0.33,0.482,0.495
		c0.045,0.029,0.091,0.057,0.136,0.085c-0.055-0.019-0.109-0.037-0.164-0.057c-0.16-0.166-0.32-0.332-0.48-0.498
		c-0.146-0.359-0.292-0.718-0.524-1.289c0.845,0,1.496,0,2.393,0c0.284-1.126,0.783-2.32,0.849-3.538
		c0.14-2.581-0.063-5.181,0.095-7.76c0.149-2.439-0.878-4.072-2.993-4.993c-5.9-2.567-11.837-5.051-18.074-7.701
		c-0.378,1.828-0.72,3.479-1.062,5.132c-0.101,0.014-0.2,0.026-0.3,0.04c-0.079-1.455-0.159-2.911-0.244-4.484
		c-0.917,4.995,1.86,10.329-2.733,14.904c-0.19-0.283-0.878-0.854-0.965-1.504c-0.725-5.391-1.278-10.804-2.059-16.185
		c-0.1-0.684-1.109-1.459-1.872-1.787c-8.055-3.466-16.146-6.849-24.223-10.261c-0.281-0.119-0.532-0.31-0.695-0.739
		c2.329,0.729,4.708,1.33,6.979,2.211c17.698,6.861,35.417,13.671,53.042,20.714c10.667,4.262,21.177,8.917,31.764,13.381
		c1.186,0.499,2.502,1.497,3.358-0.482c0.014,0.254,0.029,0.506,0.005,0.097c0.218,0.353,0.088,0.143-0.042-0.068
		c0.009-0.161,0.018-0.321,0.026-0.482l-0.021,0.021c-0.109-1.786-0.218-3.571-0.29-4.764c-6.191-2.258-12.001-4.284-17.743-6.486
		c-17.188-6.593-34.374-13.191-51.51-19.915c-8.222-3.225-16.332-6.735-24.492-10.116l0.093-0.05l-0.059,0.086
		c-0.48-0.963-1.296-1.916-1.32-2.89c-0.015-0.62,1.032-1.549,1.795-1.853c2.36-0.939,4.8-1.688,7.235-2.424
		c1.223-0.37,1.647-0.98,1.355-2.265c-0.438-1.927-0.727-3.889-1.101-5.952c-2.023,0.14-2.137,1.598-2.165,3.018
		c-0.09,4.651-0.674,5.418-5.078,6.442c-2.848,0.662-3.486,1.476-3.584,4.438c-0.056,1.677-0.178,3.352-0.661,4.965
		c-0.428-1.487-0.856-2.975-1.285-4.461c0-1.439,0-2.878,0-4.317c1.975-1.098,3.861-2.427,5.951-3.218
		c1.569-0.594,2.1-1.486,2.151-2.953c0.017-0.477-0.001-0.955,0.005-1.432c0.047-3.571,0.154-3.699,4.495-5.022
		c-2.761-1.427-3.835-3.626-3.562-6.397c0.063-0.645,0.614-1.241,0.94-1.86c0.412,0.547,0.952,1.04,1.207,1.653
		c0.384,0.924,0.569,1.931,0.839,2.902c-0.039,0.635-0.079,1.27-0.118,1.904c0.836-0.697,2.294-1.545,0.072-1.87
		c0.252-0.88,0.505-1.76,0.865-3.014c1.131,0.166,2.542,0.373,3.953,0.58l0.058,0.081l-0.093-0.045
		c0.023-0.176,0.046-0.352,0.069-0.529l-0.024,0.027c9.306,2.247,18.632,4.413,27.914,6.757
		c19.103,4.826,38.183,9.747,57.271,14.635c0.226,0.058,0.431,0.199,0.962,0.451c-0.605,0.111-0.931,0.172-1.256,0.232
		c-0.192-0.138-0.385-0.276-0.061-0.044c-0.393-0.073-0.153-0.028,0.085,0.017c0.782,0.166,1.563,0.332,2.346,0.499l-0.024-0.028
		c0.289,1.154,0.954,1.489,3.62,1.773c0.618-1.502,0.438-3.917,3.139-3.445c0.532,0.093,0.959,0.794,1.435,1.216
		c-0.142,0.962-0.285,1.923-0.428,2.885c0.13,0.013,0.26,0.025,0.39,0.038c0-0.982,0-1.964,0-2.946
		c0.288,0.342,0.804,0.67,0.826,1.029c0.13,2.079,0.145,4.165,0.197,6.249c-0.332-0.488-0.663-0.978-0.995-1.466l-0.047-0.093
		l0.083,0.059C125.638,111.437,125.009,112.531,126.686,112.133z M115.163,137.052c0.16-0.161,0.32-0.321,0.481-0.481
		c0.159-0.16,0.319-0.32,0.479-0.48c0.162-0.16,0.323-0.32,0.484-0.479c0.159-0.159,0.317-0.318,0.477-0.479
		c0.103-0.087,0.205-0.174,0.308-0.262c-0.094,0.096-0.188,0.191-0.282,0.288c-0.159,0.159-0.318,0.318-0.477,0.478
		c-0.162,0.159-0.324,0.318-0.486,0.479c-0.16,0.159-0.319,0.319-0.479,0.479c-0.158,0.162-0.317,0.324-0.476,0.486
		c-0.164,0.165-0.328,0.329-0.493,0.493c-0.317,0.479-0.636,0.956-0.953,1.435c-0.335,0.328-0.671,0.656-1.007,0.984
		c0.159,0.116,0.319,0.232,0.479,0.349c0.167-0.452,0.334-0.904,0.502-1.356c0.316-0.479,0.634-0.96,0.951-1.439
		C114.834,137.38,114.998,137.216,115.163,137.052z M105.567,126.984l0.121-0.117c0,0-0.092,0.146-0.092,0.146
		c-0.163,0.163-0.326,0.325-0.489,0.488c-0.479,0.319-0.958,0.639-1.438,0.958c-0.906,0.616-1.77,1.318-2.736,1.82
		c-0.665,0.345-1.474,0.41-2.218,0.601c0.339-0.75,0.522-1.645,1.053-2.218c0.915-0.987,2.046-1.774,3.559-3.042
		c-4.055-0.272-5.612,4.018-8.909,3.718c-0.163-0.249-0.326-0.498-0.489-0.747c0.995-0.855,1.99-1.712,2.985-2.567
		c0.481-0.318,0.963-0.635,1.445-0.952l0.109-0.073l-0.08,0.104c-0.482,0.317-0.965,0.635-1.447,0.951
		c-1.136,0.684-2.258,1.39-3.413,2.04c-0.454,0.256-0.979,0.387-1.472,0.574c-0.136-0.56-0.271-1.118-0.406-1.677
		c0.162-0.164,0.324-0.327,0.485-0.49c0.319-0.153,0.639-0.306,0.957-0.46c0.161-0.165,0.322-0.33,0.483-0.496
		c0.472-0.321,0.944-0.643,1.417-0.964c0.327-0.15,0.655-0.301,0.982-0.451l0.078-0.104l-0.05,0.13
		c-0.328,0.151-0.657,0.303-0.986,0.454c-0.471,0.321-0.941,0.644-1.413,0.965c-0.161,0.165-0.323,0.329-0.484,0.494
		c-0.317,0.154-0.636,0.308-0.954,0.462c-0.162,0.163-0.324,0.326-0.486,0.488c-0.915,0.022-1.831,0.045-2.745,0.066
		c0.571-0.741,1.06-1.571,1.736-2.199c0.812-0.754,1.783-1.335,2.687-1.991c-0.157-0.235-0.315-0.472-0.472-0.708
		c-2.024,1.261-4.031,2.554-6.088,3.761c-0.481,0.283-1.135,0.274-1.71,0.4c-0.054-0.589-0.107-1.178-0.161-1.767
		c0.314-0.127,0.628-0.253,0.942-0.38c-0.17-0.205-0.339-0.409-0.508-0.614c-0.135,0.344-0.268,0.688-0.401,1.03
		c-0.227,0.073-0.448,0.188-0.678,0.209c-0.674,0.06-1.351,0.082-2.027,0.118c0.413-0.575,0.724-1.287,1.262-1.698
		c1.139-0.871,2.397-1.584,3.606-2.361c-0.106-0.195-0.213-0.39-0.319-0.585c-0.759,0.313-1.558,0.555-2.268,0.955
		c-1.378,0.777-2.705,1.646-4.055,2.474c-1.273,0.779-2.105,0.596-2.259-1.046l0.063-0.062l-0.055,0.063
		c-1.234,1.195-2.122,0.335-3.104-0.446c-0.406-0.322-1.029-0.372-1.554-0.546c0.417-0.508,0.753-1.128,1.268-1.499
		c1.085-0.782,2.265-1.434,3.406-2.138c-2.047,0.43-3.768,1.389-5.541,2.241c-0.928,0.446-2.07,1.342-2.627-0.486
		c-0.669-0.078-1.338-0.156-2.008-0.235c0.393-0.519,0.687-1.184,1.198-1.524c1.038-0.69,2.192-1.205,3.298-1.792
		c-2.221,0.612-4.178,2.192-6.297,2.452c-1.871,0.23-3.921-1.014-6.527-1.799c1.579-1.056,2.586-1.729,3.595-2.403
		c0.331-0.155,0.662-0.312,0.993-0.468c0.309-0.162,0.618-0.325,0.928-0.487l0.03,0.034c-0.311,0.161-0.622,0.322-0.933,0.483
		c-0.33,0.156-0.661,0.313-0.991,0.47c-1.306,0.496-2.579,1.236-3.927,1.416c-1.232,0.164-2.552-0.252-3.81-0.517
		c-0.084-0.018,0.018-0.921,0.034-1.412c0.332-0.155,0.663-0.31,0.995-0.465c0.113-0.062,0.227-0.122,0.215-0.115
		c0.012-0.009-0.09,0.066-0.191,0.143c-0.332,0.155-0.663,0.311-0.994,0.466c-1.365,0.342-2.51,1.057-4.082-0.188
		c-1.239-0.981-3.408-0.71-4.865-1.527c-0.72-0.403-3.095,0.105-2.124-2.155c0.099-0.048,0.198-0.095,0.237-0.113
		c-0.034,0.021-0.124,0.08-0.213,0.138c-1.542,1.055-2.956,0.397-4.407-0.277c-2.093-0.973-4.174-1.998-6.341-2.78
		c-3.085-1.112-6.353-1.777-9.331-3.108c-1.976-0.884-3.337-0.336-5.417,0.697c4.018,1.472,7.592,2.746,11.141,4.089
		c14.454,5.465,28.88,11.001,43.354,16.41c10.459,3.908,21.05,7.475,31.431,11.579c3.315,1.311,5.598,1.453,7.876-1.509
		c1.396-1.813,3.225-3.294,4.858-4.925c-0.189-0.234-0.379-0.47-0.568-0.704c-0.823,0.482-1.711,0.883-2.455,1.467
		c-1.313,1.032-2.484,2.255-3.835,3.23c-0.445,0.321-1.262,0.129-1.908,0.171c0.175-0.551,0.198-1.242,0.553-1.626
		c0.996-1.074,2.13-2.022,3.209-3.02c-1.863,0.801-3.327,2.083-4.915,3.188c-0.487,0.339-1.313,0.191-1.984,0.266
		c0.228-0.649,0.276-1.478,0.715-1.915c1.098-1.095,2.372-2.013,3.575-3.002c-0.104-0.236-0.208-0.472-0.312-0.708
		c-0.766,0.224-1.649,0.274-2.273,0.704c-1.572,1.082-2.998,2.376-4.553,3.487c-0.326,0.233-0.952,0.049-1.439,0.057
		c0.018-0.499-0.149-1.126,0.09-1.471c0.538-0.771,1.277-1.399,1.935-2.087c0.48-0.316,0.96-0.634,1.44-0.951
		C105.242,127.31,105.404,127.146,105.567,126.984z M87.341,123.135c0.315-0.151,0.631-0.303,0.946-0.455
		c0.165-0.167,0.33-0.335,0.495-0.502c0.316-0.152,0.633-0.306,0.949-0.458l0.021,0.021c-0.314,0.155-0.629,0.311-0.943,0.465
		c-0.165,0.168-0.33,0.335-0.494,0.502c-0.316,0.151-0.632,0.302-0.948,0.454L87.341,123.135z M80.639,121.271
		c-0.318,0.149-0.637,0.3-0.955,0.45l-0.062,0.043l0.052-0.052c0.313-0.155,0.627-0.311,0.94-0.466L80.639,121.271z M90.219,155.278
		c0.192-0.174,0.384-0.348,0.575-0.521c-0.055-0.041-0.11-0.082-0.166-0.123c-0.125,0.227-0.251,0.452-0.377,0.678L90.219,155.278z
		 M86.39,159.143c-0.141-0.412-0.441-0.842-0.396-1.231c0.601-5.174,0.082-6.118-4.679-8.302c-1.084-0.497-2.134-1.108-3.265-1.447
		c-0.534-0.16-1.474-0.017-1.798,0.359c-1.208,1.406-2.238,2.967-3.58,4.804c3.987,2.047,7.983,4.134,12.027,6.12
		C85.112,159.648,85.817,159.256,86.39,159.143z M77.569,139.716c-0.185,2.396-0.368,4.763-0.549,7.108
		c3.226,0.884,6.335,1.735,9.432,2.584C88.083,143.473,83.797,141.302,77.569,139.716z M80.219,160.636
		c-1.83,1.263-1.688,2.372-0.6,3.359c0.196,0.177,0.801-0.097,1.217-0.161C80.63,162.768,80.425,161.701,80.219,160.636z
		 M75.765,158.98c-0.655,0.81-1.191,1.416-1.612,2.094c-0.037,0.06,0.978,0.897,1.02,0.858c0.573-0.537,1.105-1.138,1.523-1.8
		C76.764,160.026,76.228,159.539,75.765,158.98z M73.545,158.09c-0.239-0.305-0.478-0.609-0.717-0.914
		c-0.85,0.531-1.7,1.062-2.549,1.593c0.293,0.231,0.699,0.722,0.86,0.651C71.975,159.055,72.75,158.548,73.545,158.09z
		 M112.588,142.631c0.024-0.146,0.059-0.286,0.066-0.428c0.002-0.031-0.091-0.068-0.14-0.103c-0.028,0.142-0.065,0.282-0.077,0.426
		C112.435,142.556,112.53,142.592,112.588,142.631z M121.039,123.276c-0.007,0.073-0.029,0.151-0.011,0.217
		c0.006,0.022,0.116,0.017,0.179,0.023c0.005-0.074,0.023-0.152,0.006-0.221C121.207,123.275,121.1,123.282,121.039,123.276z
		 M20.113,107.567l0.123,0.086l0.022-0.131L20.113,107.567z M125.77,109.569l0.014-0.15l-0.152,0.063L125.77,109.569z"/>
	<path fill-rule="evenodd" clip-rule="evenodd" d="M34.151,80.508c0.237-0.195,0.474-0.391,0.71-0.587
		c-0.049-0.143-0.099-0.287-0.148-0.43c-2.343,0.481-4.686,0.962-7.028,1.442c-0.13-0.181-0.26-0.362-0.39-0.543
		c0.604-0.448,1.145-1.099,1.822-1.309c4.379-1.36,8.788-2.623,13.187-3.918l-0.024,0.027c1.511-0.297,3.022-0.594,4.534-0.891
		c-0.01-0.143-0.02-0.286-0.03-0.429c-0.383-0.036-0.765-0.073-1.147-0.11l0.024,0.027c0.7-0.326,1.564-0.495,2.063-1.014
		c0.838-0.874,0.395-1.217-0.67-0.951l0.015,0.017c0.253-0.545,0.361-1.271,0.781-1.607c6.181-4.945,12.337-9.926,18.632-14.723
		c8.615-6.565,17.34-12.987,26.032-19.452c0.621-0.461,1.353-0.774,2.03-1.154c1.237-0.996,2.477-1.995,3.715-2.993
		c0.086,0.076,0.173,0.152,0.259,0.228l0.159,0.149l0.124-0.201l0.117-0.117c0.123-0.123,0.246-0.245,0.369-0.368l0.115-0.116
		l0.204-0.114l-0.141-0.158c-0.085-0.094-0.169-0.189-0.253-0.284c1.12-0.792,2.242-1.584,3.363-2.376
		c0.086,0.077,0.173,0.152,0.259,0.228l0.159,0.145l0.124-0.197l0.117-0.117c0.122-0.123,0.245-0.245,0.369-0.368l0.108-0.113
		c0.261-0.339,0.521-0.677,0.782-1.017c0.086,0.077,0.172,0.152,0.259,0.228l0.158,0.145l0.124-0.197l0.117-0.117
		c0.123-0.123,0.246-0.245,0.369-0.368l0.116-0.116l0.203-0.115l-0.141-0.157c-0.084-0.095-0.169-0.19-0.253-0.285
		c0.322-0.152,0.644-0.305,0.966-0.458c0.085,0.076,0.171,0.153,0.256,0.229l0.127,0.164l0.115-0.18
		c0.067-0.068,0.134-0.136,0.201-0.204c0.109-0.106,0.219-0.211,0.328-0.318l0.11-0.112c0.123-0.123,0.246-0.245,0.369-0.368
		l0.109-0.113c0.261-0.338,0.521-0.677,0.782-1.016c0.086,0.076,0.172,0.151,0.258,0.228l0.159,0.145l0.124-0.197l0.122-0.123
		c0.146-0.146,0.292-0.292,0.437-0.438l-0.037,0.033c0.287-0.132,0.574-0.265,0.86-0.397c0.071-0.066,0.143-0.132,0.213-0.199
		c0.17-0.015,0.266-0.108,0.284-0.279c0.066-0.067,0.132-0.135,0.197-0.202c0.11-0.106,0.219-0.212,0.329-0.318l0.115-0.116
		l0.2-0.115l-0.138-0.157c-0.084-0.095-0.168-0.19-0.253-0.285c0.322-0.152,0.645-0.305,0.966-0.457
		c0.086,0.076,0.173,0.151,0.259,0.227l0.159,0.146l0.124-0.198l0.121-0.121l0.201-0.115l-0.138-0.157
		c-0.085-0.095-0.17-0.19-0.254-0.285c0.317-0.317,0.636-0.633,0.953-0.951c0.096,0.083,0.191,0.167,0.288,0.249
		c0.243-0.02,0.486-0.04,0.729-0.059c0,0,0.142-0.137,0.142-0.137c0.146-0.14,0.29-0.281,0.436-0.421l-0.024,0.023
		c2.049-1.483,4.09-2.977,6.148-4.447c2.422-1.729,4.858-3.437,7.288-5.154c0.16,0,0.32,0,0.479,0
		c4.067,1.229,8.134,2.459,12.201,3.688c-0.043,0.227-0.085,0.452-0.128,0.678c-0.719-0.054-1.453-0.034-2.153-0.177
		c-1.953-0.399-4.021-0.579-5.811-1.37c-3.165-1.398-5.34-0.14-7.744,1.773c-6.057,4.817-12.283,9.419-18.441,14.107l0.025-0.021
		c-0.173,0.173-0.346,0.347-0.52,0.52l0.014-0.019c-0.471,0.318-0.941,0.637-1.412,0.955l-0.025,0.025
		c-2.335,1.953-4.627,3.959-7.012,5.85c-11.657,9.237-23.341,18.439-35.008,27.664c-3.431,2.713-6.834,5.461-10.251,8.193
		c0,0-0.024-0.024-0.024-0.024c0.806,0.008,1.612,0.016,2.419,0.023c0.113,0.034,0.226,0.067,0.339,0.1
		c-0.124-0.021-0.246-0.042-0.369-0.063c0.653-0.176,1.306-0.352,1.959-0.527l0.058,0.086l-0.093-0.05
		c4.748-1.25,9.467-2.623,14.249-3.722c6.979-1.604,14.021-2.93,21-4.532c4.969-1.14,9.885-2.512,14.806-3.847
		c0.799-0.217,1.673-0.623,2.222-1.212c3.031-3.256,5.974-6.595,8.94-9.911c0.204-0.229,0.349-0.512,0.563-0.832
		c-0.207-0.287-0.345-0.583-0.569-0.775c-5.381-4.6-4.084-9.228-0.586-12.9c4.094-4.298,8.8-8.049,13.47-11.746
		c1.889-1.496,3.208-2.693,2.25-5.241c-0.25-0.666-0.038-1.505,0.517-2.367c0.369,1.454,0.737,2.907,1.162,4.578
		c1.094-0.686,2.017-1.265,2.941-1.843c0.076,0.077,0.152,0.151,0.229,0.225c-0.187,0.256-0.315,0.629-0.567,0.75
		c-2.938,1.407-2.379,3.785-1.771,6.194c0.614,2.437,1.243,4.87,1.808,7.318c0.32,1.393,0.523,2.813,0.779,4.221
		c0.087,0.086,0.174,0.173,0.262,0.259c0.524,2.321,1.116,4.629,1.543,6.968c0.197,1.081,0.073,2.221,0.095,3.334
		c0.097,0.083,0.194,0.167,0.291,0.251c0.063,0.716,0.126,1.432,0.188,2.147c0.098,0.083,0.194,0.167,0.291,0.251
		c0.273,0.917,0.547,1.835,0.821,2.753c-0.079,0.102-0.158,0.203-0.134,0.172c-0.021,0.032,0.052-0.074,0.124-0.181
		c0.67,2.627,1.464,5.231,1.984,7.888c1.366,6.974,2.594,13.974,3.925,20.955c0.263,1.376,0.477,2.84,2.47,2.981
		c0.474,0.034,1.253,1.046,1.25,1.605c-0.016,2.902-0.272,5.802-0.381,8.705c-0.189,5.091-0.534,10.188-0.436,15.276
		c0.093,4.763-1.173,8.749-4.549,12.219c-2.7,2.777-5.062,5.892-7.487,8.927c-0.506,0.633-0.877,1.565-0.893,2.368
		c-0.091,4.743-0.122,9.489-0.049,14.232c0.069,4.453,0.488,8.909,0.385,13.355c-0.081,3.527-0.718,7.042-1.478,10.559
		c0-2.746,0-5.492,0-8.238c-0.126,0.001-0.252,0.002-0.379,0.003c0,4.11,0.055,8.222-0.022,12.331
		c-0.038,2.056-0.261,4.113-0.522,6.154c-0.07,0.547-0.61,1.024-0.905,1.551c-0.331,0.591-1.003,1.296-0.876,1.783
		c0.489,1.891-0.353,2.4-1.854,2.382c-0.628-13.381-1.255-26.729-1.881-40.077c0.238-0.022,0.478-0.046,0.716-0.068
		c0.254,1.948,0.507,3.896,0.761,5.845c0.047-0.003,0.093-0.006,0.14-0.008c-0.23-4.121-0.461-8.242-0.709-12.681
		c-4.763,4.605-9.41,9.099-14.169,13.7c1.994-2.975,3.733-6.003,5.886-8.701c7.119-8.923,14.329-17.773,21.64-26.54
		c1.777-2.131,2.759-4.232,2.811-7.066c0.12-6.626,0.575-13.245,0.87-19.869c0.026-0.596-0.123-1.2-0.234-2.189
		c-7.324,4.963-14.354,9.727-21.796,14.771c0.111-1.372,0.175-2.168,0.249-3.087c-6.217-1.244-12.453-2.478-18.684-3.744
		c-7.117-1.447-14.232-2.911-21.343-4.394c-2.79-0.582-5.724-0.855-8.312-1.938c-4.748-1.988-9.272-4.505-13.923-6.733
		c-1.91-0.915-3.946-1.568-5.85-2.494c-2.121-1.032-4.073-2.454-6.258-3.292c-1.438-0.552-3.231-0.748-4.736-0.449
		c-4.614,0.917-9.165,2.148-13.74,3.256C34.127,80.48,34.151,80.508,34.151,80.508z M139.165,92.001
		c-0.16,0.161-0.32,0.322-0.48,0.483c-0.319,0.152-0.638,0.305-0.957,0.458c-0.162,0.167-0.325,0.333-0.486,0.499
		c-0.328-0.002-0.655-0.005-0.982-0.007c0.623-0.673,1.245-1.346,1.914-2.068c-9.62-3.161-14.574-6.152-14.798-9.534
		c1.436,1.147,2.806,2.799,4.56,3.526c3.504,1.451,7.197,2.466,10.857,3.503c1.172,0.333,2.485,0.166,3.733,0.227
		c0.027,0.216,0.055,0.433,0.082,0.65c0.283-0.213,0.568-0.426,0.853-0.638c0.176-0.145,0.351-0.29,0.526-0.435
		c0.466-0.336,0.931-0.673,1.397-1.01c0.498-0.301,0.996-0.603,1.494-0.904c-0.021-0.174-0.04-0.348-0.061-0.522
		c-0.818-0.6-1.552-1.468-2.468-1.753c-3.943-1.231-7.97-2.203-11.902-3.462c-1.49-0.477-2.937-1.314-4.19-2.267
		c-3.773-2.865-4.854-5.659-3.644-9.003c1.338-3.697,4.211-5.99,7.522-8.405c0.528,2.806,0.762,5.268,1.494,7.569
		c0.638,2.001,0.116,3.283-1.312,4.6c-1.064,0.982-1.905,2.208-3.034,3.55c5.391,2.861,10.736,4.214,16.494,5.076
		c-3.672-20.675-7.29-41.049-10.909-61.422c-0.315-0.079-0.631-0.158-0.947-0.236c-4.675,4.492-9.426,8.909-13.974,13.526
		c-1.226,1.244-2.177,3.002-2.646,4.693c-0.828,2.976,1.433,4.637,3.476,6.137c1.714,1.257,1.428,2.335,0.148,3.641
		c-2.115,2.157-4.216,4.331-6.252,6.562c-0.924,1.012-1.678,2.178-2.715,3.546c6.426,0.514,12.451,0.996,18.476,1.477
		c-0.379,0.359-0.787,0.51-1.192,0.506c-5.343-0.049-10.687-0.047-16.025-0.22c-2.435-0.079-2.784,1.098-2.444,3.257
		c3.909,0.348,7.74,0.688,11.571,1.028c-1.178,0.665-2.371,0.655-3.509,0.904c-3.579,0.783-7.095-2.557-10.796,0.068
		c-1.416,1.005-3.467,1.112-5.226,1.638c-12.006,3.593-24.011,7.189-36.017,10.785c0.41-0.319,0.819-0.639,1.54-1.2
		c-1.786,0.313-3.152,0.552-4.519,0.791c1.407-0.816,2.72-1.96,4.235-2.396c12.802-3.673,25.641-7.216,38.467-10.801
		c2.646-0.74,2.722-0.928,1.513-3.641c-18.218,5.095-36.438,10.19-55.04,15.392c1.07,0.363,1.852,0.697,2.667,0.896
		c10.078,2.451,20.113,5.105,30.253,7.268c15.451,3.295,30.972,6.269,46.478,9.299c1.238,0.242,2.598-0.138,3.9-0.228
		c0,0.167,0,0.334,0.001,0.502l-0.025-0.025c0.316-0.155,0.632-0.309,0.948-0.464c0.162-0.166,0.324-0.333,0.486-0.499
		c0.317-0.154,0.635-0.308,0.953-0.461c0.159-0.163,0.317-0.326,0.477-0.488l0.157-0.084L139.165,92.001z M49.463,73.27
		c0.251-0.033,0.501-0.065,0.083-0.011c0.361-0.226,0.151-0.094-0.06,0.037c-0.103,0.054-0.205,0.107-0.195,0.102
		C49.28,73.406,49.372,73.338,49.463,73.27z M131.391,63.104c-5.227,3.132-7.045,8.015-4.595,11.537
		C130.222,71.666,131.681,67.867,131.391,63.104z M137.058,154.313c-0.033,0.001-0.066,0.001-0.1,0.002c0,1.251,0,2.502,0,3.753
		c0.033-0.001,0.066-0.002,0.1-0.003C137.058,156.814,137.058,155.563,137.058,154.313z M129.18,96.171
		c0.005-0.039,0.011-0.078,0.016-0.116c-0.23,0-0.462,0-0.692,0c-0.004,0.027-0.008,0.053-0.012,0.08
		C128.721,96.147,128.95,96.159,129.18,96.171z M125.642,95.585c-0.053-0.024-0.106-0.047-0.16-0.071
		c-0.001,0.046-0.001,0.092-0.001,0.138C125.534,95.63,125.588,95.607,125.642,95.585z M116.975,64.825
		c-0.071-0.004-0.142-0.008-0.212-0.012c0.064,0.06,0.129,0.119,0.192,0.179C116.962,64.936,116.969,64.881,116.975,64.825z
		 M132.124,156.305l0.145,0.016l-0.058-0.196L132.124,156.305z M142.73,54.69l0.099-0.172l-0.144-0.028L142.73,54.69z
		 M133.009,95.074l-0.121-0.084l-0.022,0.132L133.009,95.074z M115.249,64.92l-0.124-0.09l-0.025,0.138L115.249,64.92z
		 M132.657,166.934l0.099-0.172l-0.144-0.027L132.657,166.934z"/>
	<path fill-rule="evenodd" clip-rule="evenodd" d="M32.226,80.976c0.642-0.156,1.283-0.312,1.924-0.468c0,0-0.023-0.027-0.023-0.026
		c-0.641,0.157-1.283,0.313-1.925,0.469L32.226,80.976z"/>
	<path fill-rule="evenodd" clip-rule="evenodd" d="M117.55,105.41c0.178-0.095,0.354-0.189,0.078-0.042
		c0.302-0.044,0.101-0.015-0.102,0.015C117.525,105.382,117.55,105.41,117.55,105.41z"/>
	<path fill-rule="evenodd" clip-rule="evenodd" d="M42.304,75.163c-0.204-0.043-0.407-0.086-0.155-0.033
		c-0.237-0.11-0.053-0.025,0.131,0.06C42.28,75.189,42.304,75.163,42.304,75.163z"/>
	<path fill-rule="evenodd" clip-rule="evenodd" d="M140.926,45.811c0.104-0.377,0.207-0.755,0.312-1.132
		c0.129,0.041,0.259,0.083,0.388,0.124c-0.136,0.42-0.271,0.84-0.408,1.26C141.12,45.978,141.022,45.894,140.926,45.811z"/>
	<path fill-rule="evenodd" clip-rule="evenodd" d="M141.405,48.209c0.104-0.377,0.207-0.755,0.312-1.132
		c0.129,0.041,0.259,0.082,0.388,0.124c-0.136,0.42-0.271,0.84-0.408,1.26C141.6,48.376,141.503,48.292,141.405,48.209z"/>
	<path fill-rule="evenodd" clip-rule="evenodd" d="M30.313,82.835c-0.203-0.024-0.406-0.048-0.117-0.014
		c-0.268-0.123-0.088-0.041,0.093,0.042C30.289,82.863,30.313,82.835,30.313,82.835z"/>
	<path fill-rule="evenodd" clip-rule="evenodd" d="M45.637,73.76c-0.185,0.086-0.369,0.172-0.125,0.058
		c-0.261,0.057-0.057,0.013,0.149-0.032C45.661,73.787,45.637,73.76,45.637,73.76z"/>
	<path fill-rule="evenodd" clip-rule="evenodd" d="M139.174,16.209c0.271-0.209,0.541-0.418,0.812-0.627
		c0.078,0.077,0.155,0.152,0.232,0.227c-0.359,0.122-0.718,0.245-1.077,0.367L139.174,16.209z"/>
	<path fill-rule="evenodd" clip-rule="evenodd" d="M114.075,19.424c0.335-0.149,0.67-0.298,1.004-0.447
		c0.065,0.066,0.13,0.132,0.195,0.198c-0.008,0.101-0.021,0.201-0.041,0.301c0,0-0.142,0.137-0.141,0.137
		c-0.243,0.02-0.486,0.04-0.729,0.06C114.267,19.591,114.171,19.508,114.075,19.424z"/>
	<path fill-rule="evenodd" clip-rule="evenodd" d="M32.203,80.95c-0.06,0.045-0.12,0.091-0.18,0.137
		c0.067-0.038,0.135-0.074,0.203-0.111L32.203,80.95z"/>
	<path fill-rule="evenodd" clip-rule="evenodd" d="M109.761,22.777c0.32-0.16,0.64-0.32,0.96-0.479
		c0.089,0.089,0.179,0.179,0.268,0.269c-0.012,0.08-0.025,0.16-0.04,0.24c-0.07,0.067-0.142,0.133-0.213,0.199
		c-0.235,0.014-0.471,0.027-0.707,0.042C109.939,22.957,109.851,22.867,109.761,22.777z"/>
	<path fill-rule="evenodd" clip-rule="evenodd" d="M140.604,15.245c0.031-0.071,0.063-0.141,0.093-0.211
		c-0.037,0.064-0.075,0.127-0.113,0.191L140.604,15.245z"/>
	<path fill-rule="evenodd" clip-rule="evenodd" d="M140.584,15.225c-0.122,0.194-0.244,0.389-0.366,0.583
		c-0.077-0.074-0.154-0.149-0.232-0.226c0.206-0.113,0.413-0.226,0.619-0.337C140.604,15.245,140.584,15.225,140.584,15.225z"/>
	<path fill-rule="evenodd" clip-rule="evenodd" d="M139.141,16.176c-0.121,0.197-0.242,0.394-0.363,0.591
		c-0.076-0.073-0.152-0.147-0.229-0.224c0.207-0.111,0.416-0.222,0.625-0.333L139.141,16.176z"/>
	<path fill-rule="evenodd" clip-rule="evenodd" d="M115.079,18.978c0.188,0.034,0.377,0.068,0.565,0.103l0.024-0.023
		c-0.125,0.064-0.256,0.104-0.395,0.119C115.209,19.11,115.145,19.043,115.079,18.978z"/>
	<path fill-rule="evenodd" clip-rule="evenodd" d="M112.649,20.877c0.157-0.167,0.314-0.335,0.473-0.502
		c0.084,0.095,0.169,0.189,0.254,0.285c-0.006,0.094-0.027,0.185-0.063,0.272c0,0-0.121,0.121-0.121,0.12
		c-0.091,0.035-0.186,0.053-0.283,0.053C112.822,21.029,112.735,20.954,112.649,20.877z"/>
	<path fill-rule="evenodd" clip-rule="evenodd" d="M111.198,21.819c0.162-0.161,0.324-0.323,0.485-0.485
		c0.085,0.094,0.169,0.189,0.253,0.285c-0.006,0.094-0.026,0.185-0.063,0.271c0,0-0.115,0.116-0.115,0.116
		c-0.092,0.039-0.188,0.065-0.288,0.078C111.38,21.996,111.289,21.908,111.198,21.819z"/>
	<path fill-rule="evenodd" clip-rule="evenodd" d="M110.721,22.297c0.159-0.159,0.318-0.318,0.478-0.478
		c0.091,0.088,0.182,0.176,0.272,0.265c-0.013,0.081-0.026,0.161-0.041,0.241c-0.065,0.067-0.131,0.135-0.196,0.202
		c-0.081,0.014-0.163,0.027-0.245,0.039C110.899,22.476,110.81,22.387,110.721,22.297z"/>
	<path fill-rule="evenodd" clip-rule="evenodd" d="M109.279,23.258c0.161-0.16,0.321-0.321,0.482-0.481
		c0.089,0.09,0.178,0.18,0.267,0.269c-0.024,0.13-0.075,0.249-0.153,0.356l0.037-0.033c-0.108,0.078-0.229,0.129-0.36,0.154
		C109.461,23.435,109.37,23.347,109.279,23.258z"/>
	<path fill-rule="evenodd" clip-rule="evenodd" d="M108.813,23.755c0.155-0.166,0.312-0.332,0.467-0.497
		c0.091,0.088,0.182,0.177,0.272,0.265c-0.014,0.098-0.039,0.192-0.076,0.284c0,0-0.122,0.123-0.121,0.122
		c-0.092,0.035-0.186,0.053-0.284,0.053C108.984,23.907,108.898,23.832,108.813,23.755z"/>
	<path fill-rule="evenodd" clip-rule="evenodd" d="M107.361,24.697c0.224,0.025,0.446,0.05,0.669,0.075c0,0-0.109,0.113-0.108,0.113
		c-0.093,0.038-0.189,0.064-0.289,0.078C107.542,24.874,107.452,24.786,107.361,24.697z"/>
	<path fill-rule="evenodd" clip-rule="evenodd" d="M106.881,25.177c0.16-0.16,0.321-0.32,0.481-0.479
		c0.09,0.088,0.18,0.177,0.271,0.266c-0.016,0.1-0.043,0.196-0.081,0.29c0,0-0.11,0.112-0.109,0.111
		c-0.093,0.039-0.188,0.064-0.288,0.077C107.063,25.354,106.972,25.265,106.881,25.177z"/>
	<path fill-rule="evenodd" clip-rule="evenodd" d="M104.963,26.616c0.162-0.162,0.324-0.323,0.485-0.485
		c0.084,0.095,0.169,0.19,0.253,0.285c-0.006,0.094-0.027,0.185-0.063,0.272c0,0-0.116,0.116-0.115,0.116
		c-0.093,0.039-0.189,0.064-0.289,0.078C105.144,26.793,105.053,26.705,104.963,26.616z"/>
	<path fill-rule="evenodd" clip-rule="evenodd" d="M104.495,27.113c0.156-0.166,0.312-0.331,0.468-0.497
		c0.09,0.089,0.181,0.177,0.271,0.266c-0.016,0.1-0.043,0.196-0.081,0.29c0,0-0.117,0.117-0.116,0.116
		c-0.092,0.035-0.186,0.053-0.283,0.053C104.667,27.265,104.581,27.189,104.495,27.113z"/>
	<path fill-rule="evenodd" clip-rule="evenodd" d="M103.044,28.055c0.223,0.025,0.446,0.05,0.669,0.075c0,0-0.108,0.113-0.108,0.112
		c-0.093,0.039-0.189,0.064-0.289,0.078C103.225,28.232,103.134,28.144,103.044,28.055z"/>
	<path fill-rule="evenodd" clip-rule="evenodd" d="M102.576,28.552c0.156-0.165,0.312-0.331,0.468-0.497
		c0.09,0.089,0.181,0.177,0.271,0.266c-0.016,0.1-0.043,0.196-0.08,0.29c0,0-0.117,0.117-0.117,0.116
		c-0.091,0.035-0.186,0.053-0.283,0.053C102.749,28.704,102.662,28.628,102.576,28.552z"/>
	<path fill-rule="evenodd" clip-rule="evenodd" d="M107.484,28.18c0.005,0.16,0.011,0.319,0.016,0.479l0.012,0.023
		c0-0.175-0.001-0.349-0.002-0.523L107.484,28.18z"/>
	<path fill-rule="evenodd" clip-rule="evenodd" d="M107.5,28.659c-0.165,0-0.33,0-0.496,0c0,0-0.014,0.02-0.014,0.02
		c0.174,0.001,0.348,0.002,0.521,0.003L107.5,28.659z"/>
	<polygon fill-rule="evenodd" clip-rule="evenodd" points="105.592,29.615 105.644,29.692 105.566,29.641 	"/>
	<path fill-rule="evenodd" clip-rule="evenodd" d="M98.727,31.413c0.162-0.162,0.324-0.323,0.486-0.485
		c0.084,0.095,0.168,0.19,0.253,0.284c-0.007,0.094-0.027,0.185-0.063,0.272c0,0-0.115,0.116-0.115,0.116
		c-0.093,0.038-0.188,0.064-0.289,0.078C98.907,31.59,98.817,31.501,98.727,31.413z"/>
	<path fill-rule="evenodd" clip-rule="evenodd" d="M98.259,31.91c0.156-0.166,0.312-0.331,0.468-0.497
		c0.091,0.088,0.181,0.177,0.271,0.266c-0.015,0.1-0.042,0.196-0.08,0.29c0,0-0.117,0.117-0.117,0.117
		c-0.091,0.035-0.186,0.052-0.283,0.052C98.432,32.062,98.345,31.986,98.259,31.91z"/>
	<path fill-rule="evenodd" clip-rule="evenodd" d="M47.054,71.822l0.015,0.017C47.068,71.838,47.054,71.822,47.054,71.822z"/>
	<path fill-rule="evenodd" clip-rule="evenodd" d="M71.291,137.641c0.047,0.054,0.134,0.11,0.13,0.16
		c-0.003,0.051-0.096,0.096-0.15,0.142c-0.047-0.054-0.133-0.109-0.13-0.16C71.145,137.732,71.238,137.688,71.291,137.641z"/>
	<path fill-rule="evenodd" clip-rule="evenodd" d="M112.31,148.58c0,0-0.021,0.021-0.021,0.021L112.31,148.58z"/>
	<path fill-rule="evenodd" clip-rule="evenodd" d="M106.414,25.673c0.155-0.166,0.312-0.331,0.467-0.496
		c0.091,0.088,0.182,0.176,0.273,0.264c-0.014,0.081-0.027,0.161-0.041,0.241c-0.067,0.068-0.134,0.136-0.201,0.204
		c-0.08,0.012-0.161,0.018-0.242,0.016C106.585,25.826,106.499,25.75,106.414,25.673z"/>
	<path fill-rule="evenodd" clip-rule="evenodd" d="M139.026,35.25c0.151-0.066,0.304-0.132,0.456-0.198
		c-0.065,0.152-0.131,0.304-0.194,0.457C139.2,35.423,139.113,35.336,139.026,35.25z"/>
	<path fill-rule="evenodd" clip-rule="evenodd" fill="none" d="M78.223,122.683c0.153,1.642,0.985,1.825,2.258,1.046
		c1.35-0.827,2.677-1.696,4.055-2.474c0.71-0.4,1.509-0.643,2.268-0.955c0.106,0.195,0.213,0.39,0.319,0.585
		c-1.209,0.777-2.468,1.49-3.606,2.361c-0.538,0.411-0.849,1.123-1.262,1.698c0.677-0.036,1.354-0.059,2.027-0.118
		c0.229-0.021,0.451-0.136,0.678-0.209l-0.033-0.036c0.054,0.589,0.107,1.178,0.161,1.767c0.575-0.126,1.229-0.117,1.71-0.4
		c2.057-1.207,4.063-2.5,6.088-3.761c0.156,0.236,0.314,0.473,0.472,0.708c-0.903,0.656-1.875,1.237-2.687,1.991
		c-0.677,0.628-1.165,1.458-1.736,2.199c0.914-0.021,1.83-0.044,2.745-0.066l-0.029-0.028c0.136,0.559,0.271,1.117,0.406,1.677
		c0.492-0.188,1.018-0.318,1.472-0.574c1.155-0.65,2.277-1.356,3.413-2.04l-0.027-0.03c-0.995,0.856-1.99,1.713-2.985,2.568
		c0.163,0.249,0.326,0.498,0.489,0.747c3.297,0.3,4.854-3.99,8.909-3.718c-1.513,1.268-2.644,2.055-3.559,3.042
		c-0.53,0.573-0.714,1.468-1.053,2.218c0.744-0.19,1.553-0.256,2.218-0.601c0.967-0.502,1.83-1.204,2.736-1.82l-0.031-0.035
		c-0.657,0.688-1.396,1.316-1.935,2.087c-0.239,0.345-0.072,0.972-0.09,1.471c0.487-0.008,1.113,0.177,1.439-0.057
		c1.555-1.111,2.98-2.405,4.553-3.487c0.624-0.43,1.508-0.48,2.273-0.704c0.104,0.236,0.208,0.472,0.312,0.708
		c-1.203,0.989-2.478,1.907-3.575,3.002c-0.438,0.438-0.487,1.266-0.715,1.915c0.671-0.074,1.497,0.073,1.984-0.266
		c1.588-1.104,3.052-2.387,4.915-3.188c-1.079,0.997-2.213,1.945-3.209,3.02c-0.354,0.384-0.378,1.075-0.553,1.626
		c0.646-0.042,1.463,0.15,1.908-0.171c1.351-0.976,2.521-2.198,3.835-3.23c0.744-0.584,1.632-0.984,2.455-1.467
		c0.189,0.234,0.379,0.47,0.568,0.704c-1.634,1.631-3.462,3.111-4.858,4.925c-2.278,2.962-4.561,2.819-7.876,1.509
		c-10.381-4.104-20.972-7.671-31.431-11.579c-14.474-5.409-28.9-10.945-43.354-16.41c-3.549-1.343-7.124-2.617-11.141-4.089
		c2.08-1.033,3.441-1.581,5.417-0.697c2.978,1.331,6.246,1.996,9.331,3.108c2.167,0.782,4.248,1.808,6.341,2.78
		c1.451,0.675,2.864,1.332,4.407,0.277l-0.025-0.024c-0.97,2.261,1.405,1.752,2.125,2.155c1.457,0.817,3.625,0.546,4.865,1.527
		c1.572,1.244,2.717,0.529,4.082,0.188l-0.025-0.028c-0.016,0.491-0.118,1.395-0.034,1.412c1.258,0.265,2.578,0.681,3.81,0.517
		c1.348-0.18,2.621-0.92,3.927-1.416l-0.027-0.032c-1.008,0.674-2.016,1.348-3.594,2.403c2.606,0.785,4.657,2.029,6.527,1.799
		c2.119-0.26,4.076-1.84,6.297-2.452c-1.106,0.587-2.26,1.102-3.298,1.792c-0.511,0.341-0.806,1.006-1.198,1.524
		c0.669,0.079,1.339,0.157,2.008,0.235l-0.003-0.003c0.56,1.831,1.702,0.936,2.63,0.489c1.772-0.853,3.493-1.812,5.541-2.241
		c-1.141,0.704-2.32,1.355-3.406,2.138c-0.515,0.371-0.851,0.991-1.268,1.499c0.525,0.174,1.148,0.224,1.554,0.546
		c0.982,0.781,1.87,1.642,3.104,0.446L78.223,122.683z"/>
	<path fill-rule="evenodd" clip-rule="evenodd" fill="none" d="M86.387,159.14c-0.569,0.116-1.274,0.509-1.688,0.306
		c-4.044-1.986-8.04-4.073-12.027-6.12c1.342-1.837,2.372-3.397,3.58-4.804c0.324-0.376,1.264-0.52,1.798-0.359
		c1.131,0.339,2.181,0.95,3.265,1.447c4.761,2.184,5.279,3.128,4.679,8.302c-0.045,0.39,0.256,0.819,0.396,1.231L86.387,159.14z"/>
	<path fill-rule="evenodd" clip-rule="evenodd" fill="none" d="M77.569,139.716c6.228,1.586,10.514,3.757,8.883,9.692
		c-3.097-0.849-6.206-1.7-9.432-2.584C77.202,144.479,77.385,142.112,77.569,139.716z M85.341,145.479
		c-0.047-0.054-0.094-0.107-0.141-0.162c-0.054,0.047-0.146,0.092-0.149,0.143c-0.004,0.05,0.082,0.106,0.129,0.16
		C85.233,145.572,85.287,145.524,85.341,145.479z"/>
	<path fill-rule="evenodd" clip-rule="evenodd" fill="none" d="M80.219,160.636c0.206,1.065,0.411,2.132,0.617,3.198
		c-0.416,0.064-1.021,0.338-1.217,0.161C78.532,163.008,78.39,161.898,80.219,160.636z"/>
	<path fill-rule="evenodd" clip-rule="evenodd" fill="none" d="M75.765,158.98c0.463,0.559,0.999,1.046,0.932,1.152
		c-0.418,0.662-0.95,1.263-1.523,1.8c-0.042,0.039-1.057-0.799-1.02-0.858C74.574,160.396,75.11,159.79,75.765,158.98z"/>
	<path fill-rule="evenodd" clip-rule="evenodd" fill="none" d="M73.545,158.09c-0.796,0.458-1.57,0.965-2.406,1.33
		c-0.162,0.07-0.567-0.42-0.86-0.651c0.85-0.531,1.7-1.062,2.549-1.593C73.067,157.48,73.306,157.785,73.545,158.09z"/>
	<path fill-rule="evenodd" clip-rule="evenodd" fill="none" d="M25.46,85.763c2.223,0.325,0.765,1.173-0.072,1.87
		c0.039-0.635,0.079-1.27,0.118-1.904L25.46,85.763z"/>
	<path fill-rule="evenodd" clip-rule="evenodd" fill="none" d="M125.681,104.902c0,0.982,0,1.964,0,2.946
		c-0.13-0.013-0.26-0.025-0.39-0.038c0.143-0.962,0.286-1.923,0.428-2.885C125.718,104.926,125.681,104.902,125.681,104.902z"/>
	<path fill-rule="evenodd" clip-rule="evenodd" fill="none" d="M113.719,138.984c-0.168,0.452-0.335,0.904-0.502,1.356
		c-0.159-0.116-0.319-0.232-0.479-0.349c0.336-0.328,0.672-0.656,1.007-0.984L113.719,138.984z"/>
	<path fill-rule="evenodd" clip-rule="evenodd" fill="none" d="M126.686,112.133c-1.677,0.398-1.048-0.696-0.94-1.452l-0.036,0.034
		c0.332,0.488,0.663,0.978,0.995,1.466C126.704,112.182,126.686,112.133,126.686,112.133z"/>
	<path fill-rule="evenodd" clip-rule="evenodd" fill="none" d="M112.588,142.631c-0.058-0.039-0.153-0.075-0.15-0.104
		c0.012-0.144,0.049-0.284,0.077-0.426c0.049,0.034,0.142,0.071,0.14,0.103C112.646,142.345,112.612,142.485,112.588,142.631z"/>
	<path fill-rule="evenodd" clip-rule="evenodd" fill="none" d="M113.745,139.008c0.317-0.479,0.636-0.956,0.953-1.435l-0.029-0.028
		c-0.316,0.479-0.634,0.96-0.95,1.439L113.745,139.008z"/>
	<path fill-rule="evenodd" clip-rule="evenodd" fill="none" d="M105.079,127.473c-0.48,0.317-0.96,0.635-1.44,0.951l0.031,0.035
		c0.479-0.319,0.959-0.639,1.438-0.958L105.079,127.473z"/>
	<path fill-rule="evenodd" clip-rule="evenodd" fill="none" d="M98.358,125.071c-0.481,0.317-0.963,0.634-1.444,0.952
		c0-0.001,0.027,0.029,0.027,0.029c0.482-0.316,0.965-0.634,1.447-0.951L98.358,125.071z"/>
	<path fill-rule="evenodd" clip-rule="evenodd" fill="none" d="M93.605,125.574c0.471-0.321,0.941-0.644,1.413-0.965
		c0,0.001-0.026-0.029-0.026-0.029c-0.472,0.321-0.944,0.643-1.416,0.964L93.605,125.574z"/>
	<path fill-rule="evenodd" clip-rule="evenodd" fill="none" d="M84.96,124.617c0.134-0.343,0.267-0.687,0.401-1.03
		c0.169,0.205,0.338,0.409,0.508,0.614c-0.314,0.127-0.628,0.253-0.942,0.38L84.96,124.617z"/>
	<path fill-rule="evenodd" clip-rule="evenodd" fill="none" d="M115.204,104.911c-0.238-0.045-0.478-0.09-0.085-0.017
		c-0.324-0.232-0.132-0.094,0.061,0.044C115.181,104.938,115.204,104.911,115.204,104.911z"/>
	<path fill-rule="evenodd" clip-rule="evenodd" fill="none" d="M121.039,123.276c0.061,0.006,0.168-0.001,0.174,0.02
		c0.018,0.068-0.001,0.146-0.006,0.221c-0.063-0.007-0.173-0.001-0.179-0.023C121.01,123.428,121.032,123.35,121.039,123.276z"/>
	<path fill-rule="evenodd" clip-rule="evenodd" fill="none" d="M90.251,155.312c0.126-0.226,0.252-0.451,0.377-0.678
		c0.056,0.041,0.111,0.082,0.166,0.123c-0.191,0.174-0.383,0.348-0.575,0.521L90.251,155.312z"/>
	<path fill-rule="evenodd" clip-rule="evenodd" fill="none" d="M112.283,149.063c0.13,0.211,0.26,0.421,0.042,0.068
		c0.024,0.409,0.009,0.157-0.005-0.097L112.283,149.063z"/>
	<path fill-rule="evenodd" clip-rule="evenodd" fill="none" d="M118.043,139.953c-0.167,0.308-0.334,0.615-0.501,0.924l0.029,0.024
		c0.159-0.316,0.317-0.632,0.476-0.947L118.043,139.953z"/>
	<path fill-rule="evenodd" clip-rule="evenodd" fill="none" d="M117.568,141.882c0.001-0.326,0.003-0.653,0.003-0.98l-0.029-0.024
		c-0.001,0.342-0.001,0.685-0.001,1.027C117.54,141.904,117.568,141.882,117.568,141.882z"/>
	<polygon fill-rule="evenodd" clip-rule="evenodd" fill="none" points="20.113,107.567 20.259,107.522 20.236,107.653 	"/>
	<polygon fill-rule="evenodd" clip-rule="evenodd" fill="none" points="125.77,109.569 125.631,109.481 125.783,109.419 	"/>
	<path fill-rule="evenodd" clip-rule="evenodd" fill="none" d="M44.64,110.211c0.089-0.058,0.179-0.116,0.213-0.138
		c-0.039,0.019-0.138,0.065-0.237,0.113C44.615,110.187,44.64,110.211,44.64,110.211z"/>
	<path fill-rule="evenodd" clip-rule="evenodd" fill="none" d="M56.681,113.592c0.101-0.077,0.203-0.152,0.191-0.144
		c0.012-0.007-0.102,0.054-0.215,0.114L56.681,113.592z"/>
	<path fill-rule="evenodd" clip-rule="evenodd" fill="none" d="M55.687,114.057c0.331-0.155,0.662-0.311,0.994-0.466
		c0,0.001-0.024-0.028-0.024-0.028c-0.331,0.156-0.663,0.311-0.994,0.466C55.662,114.028,55.687,114.057,55.687,114.057z"/>
	<path fill-rule="evenodd" clip-rule="evenodd" fill="none" d="M65.258,113.553c-0.309,0.163-0.618,0.326-0.928,0.488
		c0,0,0.026,0.03,0.026,0.03c0.311-0.161,0.622-0.322,0.932-0.483L65.258,113.553z"/>
	<path fill-rule="evenodd" clip-rule="evenodd" fill="none" d="M63.365,114.541c0.331-0.156,0.661-0.313,0.991-0.47
		c0,0-0.026-0.03-0.025-0.03c-0.331,0.156-0.662,0.313-0.993,0.468L63.365,114.541z"/>
	<path fill-rule="evenodd" clip-rule="evenodd" fill="none" d="M117.109,135.158c0.094-0.097,0.188-0.192,0.282-0.288
		c-0.103,0.088-0.205,0.175-0.308,0.262L117.109,135.158z"/>
	<path fill-rule="evenodd" clip-rule="evenodd" fill="none" d="M79.684,121.72c0.318-0.149,0.637-0.3,0.955-0.449l-0.023-0.024
		c-0.313,0.155-0.627,0.311-0.94,0.466L79.684,121.72z"/>
	<path fill-rule="evenodd" clip-rule="evenodd" fill="none" d="M88.809,122.205c0.314-0.154,0.629-0.31,0.943-0.465l-0.021-0.021
		c-0.316,0.152-0.633,0.306-0.949,0.458L88.809,122.205z"/>
	<path fill-rule="evenodd" clip-rule="evenodd" fill="none" d="M88.287,122.68c-0.315,0.152-0.631,0.304-0.946,0.455l0.025,0.025
		c0.316-0.151,0.632-0.302,0.948-0.453L88.287,122.68z"/>
	<path fill-rule="evenodd" clip-rule="evenodd" fill="none" d="M95.976,124.13c-0.327,0.149-0.655,0.3-0.982,0.45
		c-0.001,0,0.025,0.03,0.025,0.029c0.328-0.151,0.657-0.303,0.985-0.454L95.976,124.13z"/>
	<path fill-rule="evenodd" clip-rule="evenodd" fill="none" d="M93.094,126.041c-0.319,0.153-0.639,0.306-0.958,0.459l0.03,0.03
		c0.318-0.154,0.637-0.308,0.954-0.462C93.12,126.067,93.094,126.041,93.094,126.041z"/>
	<polygon fill-rule="evenodd" clip-rule="evenodd" fill="none" points="18.287,107.355 18.346,107.27 18.253,107.319 	"/>
	<polygon fill-rule="evenodd" clip-rule="evenodd" fill="none" points="125.745,110.681 125.662,110.622 125.709,110.715 	"/>
	<path fill-rule="evenodd" clip-rule="evenodd" fill="none" d="M65.289,113.588c0,0-0.03-0.034-0.03-0.034
		C65.258,113.553,65.289,113.588,65.289,113.588z"/>
	<path fill-rule="evenodd" clip-rule="evenodd" fill="none" d="M80.639,121.271c0,0-0.024-0.024-0.023-0.024L80.639,121.271z"/>
	<path fill-rule="evenodd" clip-rule="evenodd" fill="none" d="M89.752,121.74l-0.021-0.021L89.752,121.74z"/>
	<polygon fill-rule="evenodd" clip-rule="evenodd" fill="none" points="79.675,121.712 79.623,121.764 79.684,121.72 	"/>
	<polygon fill-rule="evenodd" clip-rule="evenodd" fill="none" points="30.244,83.364 30.336,83.41 30.278,83.329 	"/>
	<polygon fill-rule="evenodd" clip-rule="evenodd" fill="none" points="78.23,122.685 78.285,122.621 78.222,122.683 	"/>
	<path fill-rule="evenodd" clip-rule="evenodd" fill="none" d="M88.782,122.178c-0.165,0.167-0.33,0.335-0.495,0.502l0.027,0.027
		c0.164-0.167,0.329-0.334,0.494-0.502L88.782,122.178z"/>
	<path fill-rule="evenodd" clip-rule="evenodd" fill="none" d="M87.341,123.135l0.025,0.026
		C87.366,123.16,87.341,123.135,87.341,123.135z"/>
	<polygon fill-rule="evenodd" clip-rule="evenodd" fill="none" points="96.004,124.155 96.054,124.025 95.976,124.129 	"/>
	<polygon fill-rule="evenodd" clip-rule="evenodd" fill="none" points="98.389,125.102 98.469,124.998 98.358,125.071 	"/>
	<path fill-rule="evenodd" clip-rule="evenodd" fill="none" d="M93.576,125.544c-0.161,0.166-0.322,0.331-0.482,0.497
		c0,0,0.026,0.026,0.026,0.027c0.161-0.165,0.323-0.329,0.485-0.494L93.576,125.544z"/>
	<path fill-rule="evenodd" clip-rule="evenodd" fill="none" d="M91.68,127.019c0.162-0.162,0.324-0.325,0.486-0.488l-0.03-0.03
		c-0.161,0.163-0.323,0.326-0.485,0.49L91.68,127.019z"/>
	<polygon fill-rule="evenodd" clip-rule="evenodd" fill="none" points="105.597,127.014 105.688,126.867 105.567,126.984 	"/>
	<path fill-rule="evenodd" clip-rule="evenodd" fill="none" d="M105.107,127.501c0.163-0.163,0.326-0.325,0.489-0.488
		c0,0.001-0.029-0.028-0.029-0.028c-0.163,0.162-0.325,0.325-0.488,0.488L105.107,127.501z"/>
	<path fill-rule="evenodd" clip-rule="evenodd" fill="none" d="M117.084,135.132c-0.159,0.16-0.317,0.319-0.477,0.479l0.025,0.025
		c0.158-0.159,0.317-0.318,0.477-0.478L117.084,135.132z"/>
	<path fill-rule="evenodd" clip-rule="evenodd" fill="none" d="M116.146,136.113c0.162-0.159,0.324-0.318,0.486-0.478l-0.025-0.025
		c-0.161,0.159-0.322,0.319-0.484,0.479L116.146,136.113z"/>
	<path fill-rule="evenodd" clip-rule="evenodd" fill="none" d="M115.667,136.594c0.16-0.16,0.319-0.32,0.479-0.48l-0.023-0.023
		c-0.159,0.16-0.319,0.32-0.479,0.48C115.644,136.57,115.667,136.594,115.667,136.594z"/>
	<path fill-rule="evenodd" clip-rule="evenodd" fill="none" d="M115.191,137.08c0.158-0.162,0.317-0.324,0.476-0.486
		c0,0-0.023-0.023-0.022-0.023c-0.161,0.16-0.321,0.32-0.481,0.481L115.191,137.08z"/>
	<path fill-rule="evenodd" clip-rule="evenodd" fill="none" d="M115.163,137.052c-0.165,0.164-0.329,0.328-0.493,0.493
		c-0.001,0,0.028,0.028,0.028,0.028c0.165-0.164,0.329-0.328,0.493-0.493L115.163,137.052z"/>
	<polygon fill-rule="evenodd" clip-rule="evenodd" fill="none" points="118.047,139.954 118.108,139.887 118.043,139.953 	"/>
	<path fill-rule="evenodd" clip-rule="evenodd" fill="none" d="M70.093,153.846c-0.161-0.165-0.321-0.33-0.482-0.495l-0.025,0.025
		c0.16,0.166,0.32,0.332,0.48,0.498L70.093,153.846z"/>
	<path fill-rule="evenodd" clip-rule="evenodd" fill="none" d="M70.065,153.874c0.055,0.02,0.109,0.038,0.164,0.057
		c-0.045-0.028-0.091-0.056-0.136-0.085L70.065,153.874z"/>
	<path fill-rule="evenodd" clip-rule="evenodd" fill="none" d="M90.219,155.278l0.032,0.033L90.219,155.278z"/>
	<path fill-rule="evenodd" clip-rule="evenodd" fill="none" d="M142.525,89.088c-1.248-0.062-2.562,0.105-3.733-0.227
		c-3.66-1.037-7.354-2.053-10.857-3.503c-1.754-0.727-3.124-2.378-4.56-3.526c0.224,3.382,5.178,6.374,14.798,9.534
		c-0.669,0.723-1.291,1.396-1.914,2.068c0,0,0.032-0.032,0.032-0.032c-1.303,0.09-2.662,0.47-3.9,0.228
		c-15.506-3.031-31.026-6.004-46.478-9.299c-10.14-2.163-20.176-4.816-30.253-7.268c-0.815-0.198-1.597-0.532-2.667-0.896
		c18.602-5.202,36.822-10.297,55.04-15.392c1.209,2.713,1.134,2.901-1.513,3.641c-12.826,3.585-25.666,7.127-38.467,10.801
		c-1.516,0.435-2.828,1.58-4.235,2.396l0.033-0.034c-1.437-0.155-2.874-0.311-4.312-0.465c-0.499-0.148-0.997-0.297-1.495-0.446
		c-0.168-0.101-0.336-0.2-0.12-0.072c-0.239-0.073-0.047-0.014,0.146,0.044c0.498,0.148,0.996,0.297,1.493,0.446
		c2.54,0.652,5.078,1.305,7.618,1.956c0.823,0.144,1.646,0.288,2.468,0.432c2.384,0.648,4.768,1.295,7.152,1.942
		c2.086,0.479,4.173,0.957,6.259,1.436c1.124,0.376,2.224,0.869,3.377,1.11c6.864,1.441,13.734,2.858,20.616,4.214
		c4.295,0.846,8.613,1.572,12.921,2.352c2.026,0.522,4.053,1.043,6.078,1.564c0.022-0.102,0.045-0.204,0.066-0.305
		c-1.259-0.418-2.519-0.836-3.777-1.254c1.927,0.16,3.855,0.319,5.783,0.478c0,0-0.021,0.021-0.021,0.021
		c-3.149-0.843-6.271-1.813-9.453-2.502c-7.382-1.598-14.806-2.998-22.187-4.597c-7.632-1.653-15.229-3.468-22.859-5.134
		c-0.449-0.098-1.99-1.43-1.594,0.736c-0.795-0.012-1.59-0.023-2.385-0.033c-0.824-0.144-1.646-0.287-2.469-0.431
		c-0.158-0.313-0.316-0.627-0.475-0.939l0.117-0.109c12.005-3.595,24.01-7.191,36.016-10.784c1.759-0.526,3.81-0.633,5.226-1.638
		c3.701-2.625,7.217,0.715,10.796-0.068c1.138-0.249,2.331-0.239,3.509-0.904c-3.831-0.34-7.662-0.681-11.571-1.028
		c-0.34-2.16,0.01-3.336,2.444-3.257c5.339,0.173,10.683,0.171,16.025,0.22c0.405,0.004,0.813-0.147,1.192-0.506
		c-6.024-0.481-12.05-0.963-18.476-1.477c1.037-1.368,1.791-2.534,2.715-3.546c2.036-2.231,4.137-4.405,6.252-6.562
		c1.279-1.305,1.565-2.383-0.148-3.641c-2.043-1.5-4.304-3.161-3.476-6.137c0.47-1.691,1.421-3.449,2.646-4.693
		c4.548-4.617,9.299-9.034,13.974-13.526c0.316,0.079,0.632,0.158,0.947,0.236c3.619,20.374,7.237,40.747,10.909,61.422
		c-5.758-0.862-11.104-2.214-16.494-5.076c1.129-1.342,1.97-2.567,3.034-3.55c1.428-1.317,1.949-2.598,1.312-4.6
		c-0.732-2.302-0.966-4.763-1.494-7.569c-3.312,2.415-6.185,4.708-7.522,8.405c-1.21,3.344-0.13,6.138,3.644,9.003
		c1.254,0.953,2.7,1.791,4.19,2.267c3.933,1.259,7.959,2.23,11.902,3.462c0.916,0.286,1.649,1.153,2.468,1.753l0.032-0.024
		c-0.337,0.172-0.675,0.344-1.012,0.516l0.057-0.038c-0.176,0.175-0.352,0.351-0.526,0.526l0.037-0.042
		c-0.334,0.17-0.668,0.34-1.002,0.511c0,0,0.049-0.029,0.049-0.029c-0.654,0.49-1.308,0.98-1.961,1.47L142.525,89.088z
		 M130.024,92.464c0.066,0.026,0.134,0.051,0.2,0.077c-0.075-0.017-0.15-0.033-0.226-0.05c-0.431-0.125-0.86-0.25-1.291-0.375
		c-0.014,0.069-0.026,0.138-0.04,0.207C129.12,92.37,129.571,92.417,130.024,92.464z M123.809,78.057l-0.021,0.021
		c0.098-0.584,0.195-1.169,0.367-2.197C122.98,77.764,122.98,77.764,123.809,78.057z M70.257,78.358l0.175-0.042l-0.13-0.089
		L70.257,78.358z"/>
	<path fill-rule="evenodd" clip-rule="evenodd" fill="none" d="M131.391,63.104c0.29,4.762-1.169,8.561-4.595,11.537
		C124.346,71.119,126.164,66.236,131.391,63.104z"/>
	<path fill-rule="evenodd" clip-rule="evenodd" fill="none" d="M63.818,77.613c1.366-0.239,2.733-0.479,4.519-0.791
		c-0.72,0.561-1.129,0.881-1.539,1.2c0,0-0.117,0.109-0.116,0.108c-0.943-0.184-1.887-0.368-2.83-0.551L63.818,77.613z"/>
	<path fill-rule="evenodd" clip-rule="evenodd" fill="none" d="M137.058,154.313c0,1.25,0,2.502,0,3.752
		c-0.033,0.001-0.066,0.002-0.1,0.003c0-1.251,0-2.502,0-3.753C136.991,154.313,137.024,154.313,137.058,154.313z"/>
	<path fill-rule="evenodd" clip-rule="evenodd" fill="none" d="M129.18,96.171c-0.229-0.012-0.459-0.024-0.688-0.037
		c0.004-0.026,0.008-0.053,0.012-0.08c0.23,0,0.462,0,0.692,0C129.19,96.094,129.185,96.132,129.18,96.171z"/>
	<path fill-rule="evenodd" clip-rule="evenodd" fill="none" d="M143.459,89.1c-0.283,0.212-0.568,0.425-0.852,0.638
		c-0.027-0.217-0.055-0.434-0.082-0.65l-0.034,0.03c0.331,0.003,0.663,0.005,0.995,0.007L143.459,89.1z"/>
	<path fill-rule="evenodd" clip-rule="evenodd" fill="none" d="M146.879,86.751c-0.499,0.301-0.997,0.603-1.495,0.904l0.021,0.028
		c0-0.172,0-0.344,0-0.517l-0.037,0.042c0.175-0.176,0.351-0.352,0.526-0.526l-0.057,0.038c0.313-0.022,0.625-0.045,0.938-0.067
		L146.879,86.751z"/>
	<path fill-rule="evenodd" clip-rule="evenodd" fill="none" d="M145.384,87.655c-0.467,0.337-0.932,0.674-1.397,1.01l-0.077-0.081
		c0.181-0.312,0.362-0.624,0.543-0.937l-0.049,0.029c0.334,0.002,0.668,0.004,1.002,0.006L145.384,87.655z"/>
	<path fill-rule="evenodd" clip-rule="evenodd" fill="none" d="M125.642,95.585c-0.054,0.022-0.107,0.044-0.161,0.066
		c0-0.046,0-0.092,0.001-0.138C125.535,95.538,125.589,95.562,125.642,95.585z"/>
	<path fill-rule="evenodd" clip-rule="evenodd" fill="none" d="M116.975,64.825c-0.006,0.056-0.013,0.111-0.02,0.167
		c-0.063-0.06-0.128-0.119-0.192-0.179C116.833,64.817,116.903,64.821,116.975,64.825z"/>
	<path fill-rule="evenodd" clip-rule="evenodd" fill="none" d="M49.487,73.296c0.21-0.131,0.42-0.263,0.059-0.037
		c0.418-0.054,0.168-0.022-0.083,0.011L49.487,73.296z"/>
	<polygon fill-rule="evenodd" clip-rule="evenodd" fill="none" points="132.124,156.305 132.211,156.124 132.269,156.32 	"/>
	<path fill-rule="evenodd" clip-rule="evenodd" fill="none" d="M142.508,51.204c-0.072,0.106-0.146,0.213-0.124,0.181
		c-0.024,0.031,0.055-0.07,0.134-0.172L142.508,51.204z"/>
	<polygon fill-rule="evenodd" clip-rule="evenodd" fill="none" points="142.73,54.69 142.686,54.491 142.829,54.519 	"/>
	<path fill-rule="evenodd" clip-rule="evenodd" fill="none" d="M114.363,19.673c0.243-0.02,0.486-0.04,0.729-0.06
		C114.85,19.634,114.606,19.653,114.363,19.673z"/>
	<path fill-rule="evenodd" clip-rule="evenodd" fill="none" d="M55.661,71.383c0.123,0.021,0.246,0.042,0.369,0.063
		c-0.113-0.033-0.227-0.066-0.339-0.1C55.69,71.346,55.661,71.383,55.661,71.383z"/>
	<path fill-rule="evenodd" clip-rule="evenodd" fill="none" d="M49.463,73.27c-0.091,0.068-0.183,0.136-0.171,0.127
		c-0.01,0.005,0.092-0.048,0.195-0.101L49.463,73.27z"/>
	<path fill-rule="evenodd" clip-rule="evenodd" fill="none" d="M109.875,23.402c0.078-0.107,0.129-0.226,0.153-0.356
		c0.236-0.014,0.472-0.028,0.707-0.042C110.449,23.137,110.162,23.27,109.875,23.402z"/>
	<path fill-rule="evenodd" clip-rule="evenodd" fill="none" d="M137.728,92.942c0.319-0.153,0.638-0.305,0.957-0.458l-0.03-0.03
		c-0.318,0.153-0.636,0.308-0.953,0.461L137.728,92.942z"/>
	<path fill-rule="evenodd" clip-rule="evenodd" fill="none" d="M136.292,93.904c-0.001-0.167-0.001-0.334-0.001-0.501
		c0,0-0.032,0.032-0.032,0.032c0.327,0.002,0.654,0.004,0.982,0.007l-0.026-0.026c-0.316,0.155-0.632,0.31-0.948,0.464
		L136.292,93.904z"/>
	<polygon fill-rule="evenodd" clip-rule="evenodd" fill="none" points="133.009,95.074 132.865,95.122 132.888,94.99 	"/>
	<polygon fill-rule="evenodd" clip-rule="evenodd" fill="none" points="115.249,64.92 115.1,64.968 115.125,64.831 	"/>
	<polygon fill-rule="evenodd" clip-rule="evenodd" fill="none" points="132.657,166.934 132.612,166.734 132.756,166.762 	"/>
	<path fill-rule="evenodd" clip-rule="evenodd" fill="none" d="M115.274,19.176c0.139-0.016,0.27-0.055,0.395-0.119
		c-0.146,0.14-0.29,0.281-0.436,0.421C115.253,19.377,115.267,19.277,115.274,19.176z"/>
	<path fill-rule="evenodd" clip-rule="evenodd" fill="none" d="M113.313,20.932c0.036-0.087,0.058-0.178,0.063-0.272l0.138,0.157
		L113.313,20.932z"/>
	<path fill-rule="evenodd" clip-rule="evenodd" fill="none" d="M112.908,21.104c0.098,0,0.192-0.018,0.283-0.053
		c0,0-0.124,0.198-0.124,0.198L112.908,21.104z"/>
	<path fill-rule="evenodd" clip-rule="evenodd" fill="none" d="M111.874,21.891c0.036-0.087,0.057-0.177,0.063-0.271l0.138,0.157
		L111.874,21.891z"/>
	<path fill-rule="evenodd" clip-rule="evenodd" fill="none" d="M111.43,22.325c0.015-0.08,0.028-0.161,0.041-0.241
		c0.1-0.013,0.196-0.039,0.288-0.078C111.648,22.113,111.54,22.219,111.43,22.325z"/>
	<path fill-rule="evenodd" clip-rule="evenodd" fill="none" d="M110.988,22.566c0.082-0.012,0.164-0.025,0.245-0.039
		c-0.02,0.171-0.115,0.264-0.285,0.279C110.963,22.726,110.977,22.646,110.988,22.566z"/>
	<path fill-rule="evenodd" clip-rule="evenodd" fill="none" d="M109.476,23.808c0.037-0.092,0.063-0.187,0.076-0.284
		c0.132-0.024,0.252-0.076,0.36-0.154C109.768,23.515,109.621,23.662,109.476,23.808z"/>
	<path fill-rule="evenodd" clip-rule="evenodd" fill="none" d="M109.07,23.983c0.099,0,0.192-0.018,0.284-0.053
		c-0.001,0-0.125,0.198-0.125,0.198L109.07,23.983z"/>
	<path fill-rule="evenodd" clip-rule="evenodd" fill="none" d="M107.552,25.253c0.038-0.094,0.065-0.19,0.081-0.29
		c0.1-0.014,0.196-0.04,0.289-0.078C107.798,25.008,107.675,25.13,107.552,25.253z"/>
	<path fill-rule="evenodd" clip-rule="evenodd" fill="none" d="M107.113,25.683c0.014-0.08,0.027-0.161,0.041-0.241
		c0.1-0.013,0.195-0.039,0.288-0.077C107.332,25.471,107.223,25.577,107.113,25.683z"/>
	<path fill-rule="evenodd" clip-rule="evenodd" fill="none" d="M106.67,25.902c0.081,0.002,0.162-0.004,0.242-0.016l-0.115,0.18
		L106.67,25.902z"/>
	<path fill-rule="evenodd" clip-rule="evenodd" fill="none" d="M105.639,26.688c0.035-0.087,0.057-0.178,0.063-0.272l0.141,0.157
		L105.639,26.688z"/>
	<path fill-rule="evenodd" clip-rule="evenodd" fill="none" d="M105.153,27.171c0.038-0.094,0.065-0.19,0.081-0.29
		c0.1-0.014,0.196-0.04,0.289-0.078C105.399,26.926,105.276,27.049,105.153,27.171z"/>
	<path fill-rule="evenodd" clip-rule="evenodd" fill="none" d="M104.754,27.34c0.098,0,0.191-0.018,0.283-0.053
		c-0.001,0-0.125,0.198-0.125,0.198L104.754,27.34z"/>
	<path fill-rule="evenodd" clip-rule="evenodd" fill="none" d="M103.235,28.61c0.037-0.094,0.064-0.19,0.08-0.29
		c0.1-0.014,0.196-0.04,0.289-0.078C103.48,28.365,103.357,28.488,103.235,28.61z"/>
	<path fill-rule="evenodd" clip-rule="evenodd" fill="none" d="M107.512,28.683c-0.174-0.001-0.348-0.002-0.521-0.003
		c0.174-0.173,0.347-0.347,0.52-0.52C107.511,28.333,107.512,28.508,107.512,28.683z"/>
	<path fill-rule="evenodd" clip-rule="evenodd" fill="none" d="M102.835,28.779c0.098,0,0.192-0.018,0.283-0.053
		c0,0-0.124,0.198-0.124,0.198L102.835,28.779z"/>
	<path fill-rule="evenodd" clip-rule="evenodd" fill="none" d="M99.402,31.484c0.036-0.087,0.057-0.178,0.063-0.272l0.141,0.158
		L99.402,31.484z"/>
	<path fill-rule="evenodd" clip-rule="evenodd" fill="none" d="M139.131,91.965c-0.159,0.163-0.317,0.326-0.477,0.489l0.03,0.03
		c0.16-0.161,0.32-0.322,0.48-0.482L139.131,91.965z"/>
	<path fill-rule="evenodd" clip-rule="evenodd" fill="none" d="M143.986,88.665c-0.176,0.145-0.351,0.29-0.527,0.435l0.027,0.026
		c0.141-0.18,0.282-0.36,0.423-0.541L143.986,88.665z"/>
	<path fill-rule="evenodd" clip-rule="evenodd" fill="none" d="M137.701,92.916c-0.162,0.166-0.324,0.333-0.486,0.499l0.026,0.026
		c0.161-0.166,0.324-0.332,0.486-0.499L137.701,92.916z"/>
	<path fill-rule="evenodd" clip-rule="evenodd" fill="none" d="M146.817,86.229c0.021,0.174,0.04,0.348,0.061,0.522
		c0.001,0-0.103-0.098-0.102-0.098c-0.004-0.154,0.021-0.304,0.073-0.449L146.817,86.229z"/>
	<path fill-rule="evenodd" clip-rule="evenodd" fill="none" d="M136.267,93.879c0,0,0.025,0.025,0.025,0.025L136.267,93.879z"/>
	<polygon fill-rule="evenodd" clip-rule="evenodd" fill="none" points="139.165,92.001 139.288,91.881 139.131,91.965 	"/>
	<path fill-rule="evenodd" clip-rule="evenodd" fill="none" d="M53.272,71.323c0,0,0.024,0.024,0.024,0.024
		C53.295,71.346,53.272,71.323,53.272,71.323z"/>
	<polygon fill-rule="evenodd" clip-rule="evenodd" fill="none" points="57.586,70.892 57.679,70.942 57.621,70.856 	"/>
	<path fill-rule="evenodd" clip-rule="evenodd" fill="none" d="M98.518,32.137c0.098,0,0.192-0.017,0.283-0.052
		c0,0-0.124,0.201-0.124,0.201L98.518,32.137z"/>
	<path fill-rule="evenodd" clip-rule="evenodd" fill="none" d="M98.918,31.968c0.038-0.094,0.065-0.19,0.08-0.29
		c0.101-0.014,0.196-0.04,0.289-0.078C99.164,31.723,99.041,31.845,98.918,31.968z"/>
	<path fill-rule="evenodd" clip-rule="evenodd" d="M85.341,145.479c-0.054,0.046-0.107,0.094-0.161,0.141
		c-0.047-0.054-0.133-0.11-0.129-0.16c0.003-0.051,0.096-0.096,0.149-0.143C85.247,145.371,85.294,145.425,85.341,145.479z"/>
	<path fill-rule="evenodd" clip-rule="evenodd" d="M119.975,90.528c-4.308-0.78-8.626-1.506-12.921-2.352
		c-6.882-1.356-13.752-2.773-20.616-4.214c-1.153-0.242-2.253-0.734-3.377-1.11l-0.032,0.031c4.428,0.819,8.855,1.645,13.285,2.455
		c3.407,0.623,6.818,1.227,10.228,1.839c0.365,0.125,0.73,0.25,1.097,0.375c0.023-0.116,0.047-0.231,0.07-0.347
		c-0.396,0-0.792,0-1.188,0c-1.124-0.38-2.225-0.861-3.376-1.125c-8.216-1.881-16.436-3.748-24.669-5.55
		c-2.138-0.467-4.331-0.688-6.498-1.022l0.034,0.027c-0.396-2.166,1.146-0.834,1.594-0.736c7.63,1.666,15.228,3.48,22.859,5.134
		c7.381,1.599,14.805,2.999,22.187,4.597c3.183,0.689,6.304,1.659,9.453,2.502l0.021-0.021c-1.928-0.159-3.856-0.318-5.783-0.478
		l0.047,0.021c-1.941-0.545-3.883-1.09-5.824-1.636c-0.048,0.187-0.095,0.374-0.142,0.561c1.181,0.359,2.36,0.718,3.541,1.078
		L119.975,90.528z M113.255,88.635c-0.351-0.157-0.701-0.315-1.052-0.472c-0.03,0.105-0.06,0.211-0.091,0.317
		c0.391,0.04,0.78,0.08,1.171,0.119c0.35,0.15,0.7,0.301,1.051,0.452c0.028-0.108,0.057-0.215,0.084-0.322
		C114.03,88.697,113.643,88.666,113.255,88.635z M109.871,88.036c0.133-0.055,0.268-0.11,0.4-0.166
		c-0.048-0.058-0.092-0.16-0.145-0.164c-0.146-0.012-0.295,0.017-0.442,0.03C109.745,87.834,109.806,87.931,109.871,88.036z"/>
	<path fill-rule="evenodd" clip-rule="evenodd" d="M63.851,77.579c0.943,0.184,1.887,0.367,2.83,0.551
		c0.158,0.313,0.316,0.627,0.476,0.94c0,0,0.024-0.027,0.024-0.027c-2.54-0.652-5.078-1.305-7.618-1.957l-0.023,0.028
		C60.977,77.268,62.414,77.423,63.851,77.579z"/>
	<path fill-rule="evenodd" clip-rule="evenodd" d="M76.801,81.416c-2.384-0.647-4.768-1.294-7.152-1.942L69.625,79.5
		c0.795,0.011,1.59,0.022,2.385,0.034l-0.034-0.027c1.605,0.646,3.21,1.291,4.815,1.937L76.801,81.416z"/>
	<path fill-rule="evenodd" clip-rule="evenodd" d="M122.342,90.533c1.259,0.418,2.519,0.836,3.777,1.254
		c-0.021,0.102-0.044,0.204-0.066,0.305c-2.025-0.521-4.052-1.042-6.078-1.564c0,0-0.011,0.03-0.011,0.03
		c0.809-0.001,1.617-0.002,2.425-0.003L122.342,90.533z"/>
	<path fill-rule="evenodd" clip-rule="evenodd" d="M83.061,82.852c-2.086-0.479-4.173-0.957-6.259-1.436l-0.01,0.028
		c2.079,0.479,4.158,0.959,6.237,1.438L83.061,82.852z"/>
	<path fill-rule="evenodd" clip-rule="evenodd" d="M123.81,78.058c-0.829-0.293-0.829-0.293,0.346-2.177
		c-0.172,1.028-0.27,1.613-0.367,2.197L123.81,78.058z"/>
	<path fill-rule="evenodd" clip-rule="evenodd" d="M143.909,88.584c-0.141,0.181-0.282,0.361-0.423,0.541
		c-0.332-0.002-0.664-0.004-0.995-0.007c0.653-0.49,1.307-0.98,1.961-1.47C144.271,87.96,144.09,88.272,143.909,88.584z"/>
	<path fill-rule="evenodd" clip-rule="evenodd" d="M69.649,79.474c-0.822-0.144-1.645-0.288-2.468-0.432
		c0,0.001-0.024,0.027-0.024,0.028c0.822,0.144,1.645,0.288,2.468,0.431C69.625,79.5,69.649,79.474,69.649,79.474z"/>
	<path fill-rule="evenodd" clip-rule="evenodd" d="M130.023,92.465c-0.452-0.047-0.903-0.095-1.355-0.142
		c0.014-0.069,0.026-0.138,0.04-0.207c0.431,0.125,0.86,0.25,1.291,0.375L130.023,92.465z"/>
	<path fill-rule="evenodd" clip-rule="evenodd" d="M58.069,76.641c-0.192-0.059-0.384-0.117-0.145-0.044
		c-0.216-0.128-0.048-0.029,0.121,0.071C58.045,76.667,58.069,76.641,58.069,76.641z"/>
	<polygon fill-rule="evenodd" clip-rule="evenodd" points="70.257,78.358 70.302,78.227 70.432,78.316 	"/>
	<path fill-rule="evenodd" clip-rule="evenodd" d="M59.563,77.086c-0.498-0.149-0.995-0.298-1.493-0.446
		c0,0-0.024,0.027-0.025,0.027c0.498,0.149,0.996,0.298,1.495,0.446C59.54,77.114,59.563,77.086,59.563,77.086z"/>
	<path fill-rule="evenodd" clip-rule="evenodd" d="M146.85,86.205c-0.053,0.145-0.077,0.295-0.073,0.449
		c-0.313,0.022-0.626,0.044-0.938,0.067C146.175,86.548,146.513,86.376,146.85,86.205z"/>
	<path fill-rule="evenodd" clip-rule="evenodd" d="M145.405,87.683c-0.334-0.002-0.668-0.004-1.002-0.006
		c0.334-0.17,0.668-0.34,1.002-0.511C145.405,87.339,145.405,87.511,145.405,87.683z"/>
	<path fill-rule="evenodd" clip-rule="evenodd" d="M129.999,92.49c0.075,0.017,0.15,0.034,0.226,0.05
		c-0.066-0.026-0.134-0.051-0.201-0.076C130.023,92.465,129.999,92.49,129.999,92.49z"/>
	<path fill-rule="evenodd" clip-rule="evenodd" d="M145.895,86.682c-0.176,0.175-0.352,0.351-0.526,0.526
		C145.543,87.033,145.719,86.857,145.895,86.682z"/>
	<path fill-rule="evenodd" clip-rule="evenodd" d="M123.788,78.078c0,0,0.021-0.021,0.021-0.02L123.788,78.078z"/>
	<path fill-rule="evenodd" clip-rule="evenodd" d="M128.104,91.031c0,0,0.021-0.021,0.021-0.021L128.104,91.031z"/>
	<path fill-rule="evenodd" clip-rule="evenodd" fill="none" d="M83.028,82.882c-2.079-0.479-4.158-0.959-6.237-1.438
		c-1.605-0.646-3.21-1.292-4.815-1.937c2.167,0.334,4.36,0.555,6.498,1.022c8.234,1.802,16.454,3.668,24.669,5.55
		c1.151,0.264,2.252,0.745,3.376,1.125l0.021-0.028c-3.409-0.612-6.82-1.216-10.228-1.839
		C91.884,84.527,87.456,83.701,83.028,82.882z"/>
	<path fill-rule="evenodd" clip-rule="evenodd" fill="none" d="M122.389,90.554c-0.808,0.001-1.616,0.002-2.425,0.003
		c-1.181-0.359-2.36-0.718-3.541-1.078c0.047-0.187,0.094-0.374,0.142-0.561C118.506,89.464,120.447,90.009,122.389,90.554z"/>
	<path fill-rule="evenodd" clip-rule="evenodd" fill="none" d="M113.255,88.635c0.388,0.031,0.775,0.062,1.163,0.093
		c-0.027,0.107-0.056,0.214-0.084,0.322c-0.351-0.15-0.701-0.301-1.051-0.452L113.255,88.635z"/>
	<path fill-rule="evenodd" clip-rule="evenodd" fill="none" d="M109.871,88.036c-0.065-0.105-0.126-0.202-0.187-0.299
		c0.147-0.013,0.297-0.042,0.442-0.03c0.053,0.004,0.097,0.106,0.145,0.164C110.139,87.926,110.004,87.981,109.871,88.036z"/>
	<path fill-rule="evenodd" clip-rule="evenodd" fill="none" d="M106.52,87.204c0.396,0,0.793,0,1.188,0
		c-0.023,0.116-0.047,0.231-0.07,0.347c-0.366-0.125-0.731-0.25-1.097-0.375C106.541,87.176,106.52,87.204,106.52,87.204z"/>
	<path fill-rule="evenodd" clip-rule="evenodd" fill="none" d="M113.283,88.599c-0.391-0.04-0.78-0.079-1.171-0.119
		c0.031-0.105,0.061-0.211,0.091-0.317c0.351,0.157,0.701,0.315,1.052,0.472L113.283,88.599z"/>
</g>
</svg>
