<svg version="1.1" id="Ebene_1" xmlns="http://www.w3.org/2000/svg" xmlns:xlink="http://www.w3.org/1999/xlink" x="0px" y="0px"
	 width="150px" height="150px" viewBox="0 0 150 150" enable-background="new 0 0 150 150" xml:space="preserve">
<g>
	<path d="M101.493,48.293c0.002,6.844-0.003,13.688,0.003,20.533c0.009,10.97-6.282,20.505-16.409,24.59
		c-1.494,0.602-1.952,1.281-1.944,2.846c0.063,12.754,0.055,25.51,0.027,38.266c-0.011,3.961-2.309,6.888-6.021,7.877
		c-3.134,0.838-6.848-0.514-8.425-3.484c-0.798-1.503-1.204-3.387-1.219-5.104c-0.099-12.444-0.097-24.891-0.001-37.332
		c0.015-1.789-0.569-2.533-2.163-3.188c-9.99-4.086-16.186-13.438-16.191-24.258c-0.01-14.854-0.02-29.709,0.01-44.565
		c0.008-3.953,2.68-7.074,6.438-7.735c3.626-0.638,7.366,1.391,8.583,4.898c0.47,1.353,0.545,2.894,0.551,4.352
		c0.042,13.844,0.025,27.688,0.038,41.532c0.003,3.999,1.184,7.473,4.489,10.012c3.3,2.535,6.813,2.736,10.524,1.064
		c3.88-1.746,5.745-4.946,5.954-9.004c0.218-4.188,0.049-8.397,0.05-12.597c0.001-10.5,0.021-21,0-31.499
		c-0.005-3.754,1.319-6.724,4.922-8.238c5.183-2.179,10.724,1.541,10.767,7.236C101.536,32.426,101.49,40.36,101.493,48.293z
		 M91.102,47.358c0,7.156,0.055,14.312-0.013,21.465c-0.114,12.219-12.599,19.949-22.99,14.205
		c-5.943-3.287-8.518-8.644-8.546-15.259c-0.06-14.076-0.034-28.153-0.009-42.229c0.004-1.91-0.333-3.495-2.606-3.638
		c-1.696-0.106-2.646,1.245-2.647,3.624c-0.004,14.543-0.023,29.085,0.012,43.629c0.022,9.03,6.345,17.604,15.033,20.042
		c2.66,0.748,3.38,2.06,3.362,4.629c-0.094,12.984-0.046,25.974-0.045,38.962c0,0.7-0.044,1.407,0.047,2.098
		c0.197,1.485,1.023,2.483,2.583,2.484c1.527,0.002,2.441-0.906,2.645-2.427c0.092-0.688,0.055-1.396,0.055-2.096
		c0.006-13.144,0.05-26.287-0.026-39.431c-0.013-2.326,0.728-3.493,3.06-4.124c8.733-2.365,15.267-10.803,15.313-19.797
		c0.076-14.699,0.023-29.397,0.011-44.095c-0.001-2.329-1.049-3.684-2.766-3.507c-2.107,0.216-2.488,1.704-2.48,3.535
		C91.129,32.738,91.105,40.048,91.102,47.358z"/>
	<path d="M14.808,50.776c0.134-9.369,2.401-18.146,6.855-26.348c0.489-0.9,1.268-1.903,2.149-2.247
		c0.717-0.279,2.329,0.103,2.589,0.649c0.453,0.947,0.491,2.357,0.142,3.382c-1.718,5.046-4.191,9.9-5.343,15.059
		c-2.524,11.306-0.683,22.211,4.607,32.521c0.283,0.55,0.562,1.105,0.862,1.647c0.854,1.538,0.686,2.92-0.893,3.786
		c-1.587,0.869-2.834,0.189-3.676-1.302c-3.276-5.803-5.491-11.989-6.456-18.583C15.23,56.505,15.08,53.633,14.808,50.776z"/>
	<path d="M135.66,50.072c-0.001,9.877-2.159,18.448-6.401,26.5c-0.288,0.55-0.563,1.111-0.911,1.623
		c-0.902,1.326-2.109,1.902-3.584,1.019c-1.438-0.862-1.55-2.122-0.906-3.635c1.668-3.916,3.647-7.758,4.787-11.831
		c3.554-12.678,1.99-24.904-4.09-36.564c-0.252-0.482-0.531-0.951-0.763-1.442c-0.666-1.408-0.374-2.634,0.938-3.434
		c1.451-0.884,2.849-0.463,3.576,0.965c1.547,3.038,3.103,6.101,4.271,9.294C134.723,38.443,135.738,44.562,135.66,50.072z"/>
	<path d="M40.917,32.083c0.125,1.125-0.495,1.682-0.812,2.289c-5.657,10.85-5.606,21.696-0.134,32.611
		c0.49,0.978,0.759,2.478,0.361,3.404c-0.831,1.928-3.626,1.755-4.547-0.449c-1.752-4.195-3.635-8.463-4.476-12.888
		c-1.689-8.899-0.108-17.487,4.431-25.384c0.517-0.901,2.039-1.641,3.112-1.665C39.603,29.984,40.803,31.065,40.917,32.083z"/>
	<path d="M119.938,50.699c-0.06,6.637-1.574,12.904-4.74,18.76c-0.879,1.627-1.98,3.083-3.987,1.971
		c-1.897-1.052-1.528-2.699-0.637-4.426c5.604-10.839,5.606-21.706-0.009-32.556c-1.125-2.172-0.916-3.626,0.72-4.365
		c1.983-0.896,2.989,0.313,3.858,1.871C118.191,37.43,119.932,44.17,119.938,50.699z"/>
</g>
</svg>
