<svg version="1.1" id="Ebene_1" xmlns="http://www.w3.org/2000/svg" xmlns:xlink="http://www.w3.org/1999/xlink" x="0px" y="0px"
	 width="810.097px" height="386.593px" viewBox="0 0 810.097 386.593" enable-background="new 0 0 810.097 386.593"
	 xml:space="preserve">
<g>
	<path fill-rule="evenodd" clip-rule="evenodd" fill="#FFFFFF" d="M810.387,387.981c-269.973,0.003-539.944,0.003-809.954,0.003
		c0-129.157,0-258.318,0-387.535c269.959,0,539.956,0,809.954,0C810.387,129.605,810.387,258.792,810.387,387.981z M210.62,191.133
		c1.308-0.365,2.036,0.021,2.388,1.442c0.44,1.783,1.103,3.515,1.728,5.247c1.26,3.495,1.692,7.076,0.775,10.686
		c-2.131,8.389-6.626,14.763-15.449,17.071c-3.111,0.813-6.198,0.458-8.967-1.458c0.37-0.179,0.728-0.16,1.083-0.181
		c3.501-0.211,6.45-2.726,7.137-6.079c0.744-3.634-0.928-7.139-4.189-8.78c-3.123-1.572-7.059-0.802-9.393,1.84
		c-2.327,2.634-2.787,6.768-0.619,9.513c4.483,5.679,9.937,9.038,18.384,5.951c10.894-3.981,17.152-17.545,13.471-28.884
		c-0.678-2.085-1.356-4.171-2.128-6.547c16.563,4.133,32.359,9.171,47.976,14.777c0.564,0.203,1.131,1.069,1.256,1.712
		c0.644,3.295,1.139,6.618,1.692,9.93c0.868,5.185,1.741,10.368,2.622,15.616c1.844,0.066,3.305-0.123,4.319-1.849
		c2.599-4.426,5.363-8.755,7.971-13.177c0.888-1.506,1.505-3.173,2.334-4.954c12.769,5.214,25.404,10.313,37.991,15.524
		c29.08,12.04,58.042,24.367,87.226,36.146c34.475,13.915,69.629,25.849,105.829,34.53c32.388,7.768,65.185,12.59,98.503,13.512
		c35.612,0.986,70.804-2.449,105.542-10.395c4.287-0.98,8.563-2.011,13.065-3.07c0.178,1.319,0.392,2.471,0.48,3.632
		c0.342,4.468,0.563,8.947,1.009,13.403c0.146,1.444-0.36,1.945-1.578,2.415c-29.78,11.501-60.327,20.095-92.029,24.313
		c-26.541,3.532-53.064,3.858-79.568-0.438c-23.816-3.861-46.385-11.353-67.535-23.02c-0.545-0.301-1.117-0.552-1.676-0.825
		c2.985,2.383,6.049,4.632,9.339,6.475c22.412,12.559,46.631,19.305,72.053,22.004c22.135,2.351,44.209,1.521,66.241-1.464
		c26.93-3.647,53.097-10.354,78.685-19.414c5.389-1.907,10.728-3.956,16.331-6.029c1.091,14.741,2.171,29.35,3.265,44.124
		c1-0.095,1.748-0.166,2.607-0.248c-0.059-1.044-0.093-1.892-0.155-2.736c-0.992-13.406-1.962-26.814-3.016-40.216
		c-0.124-1.563,0.305-2.242,1.766-2.925c9.897-4.626,19.729-9.392,29.575-14.128c0.708-0.341,1.369-0.791,2.022-1.234
		c0.574-0.392,1.106-0.845,1.657-1.271c-0.046-0.044-0.092-0.087-0.138-0.13c-11.621,5.189-23.243,10.379-35.119,15.683
		c-0.302-4.024-0.561-7.471-0.796-10.617c2.289,0.636,4.514,1.694,6.785,1.809c8.755,0.437,17.303-7.159,18.332-16.104
		c0.146-1.267,0.607-1.751,1.766-2.136c4.748-1.578,9.468-3.244,14.17-4.953c2.006-0.729,3.944-1.645,5.914-2.476
		c-0.043-0.093-0.085-0.187-0.128-0.279c-7.115,2.468-14.23,4.936-21.489,7.453c-0.12-0.714-0.176-1.096-0.25-1.475
		c-1.107-5.658-5.079-8.907-10.869-8.896c-8.616,0.019-16.748,7.515-17.642,16.432c-0.159,1.594-0.684,2.212-2.215,2.575
		c-25.389,6.016-51.104,9.76-77.162,11.04c-30.782,1.512-61.383-0.432-91.813-5.193c-32.216-5.042-63.69-13.131-94.714-23.082
		c-32.753-10.505-64.742-23.05-96.61-35.932c-27.348-11.055-54.74-22.002-82.112-32.997c-0.957-0.384-1.915-0.768-2.881-1.154
		c0.456-1.757,0.956-3.324,1.26-4.929c0.803-4.231,0.952-8.408-1.692-12.164c-2.181-3.098-5.261-4.069-8.404-1.986
		c-2.639,1.747-4.792,4.232-7.133,6.421c-0.484,0.453-0.845,1.038-1.544,1.914c-1.137-6.839-2.189-13.171-3.271-19.675
		c0.88,0.232,1.459,0.357,2.02,0.538c23.682,7.65,47.368,15.287,71.032,22.991c1.842,0.6,3.493,1.767,5.304,2.491
		c1.625,0.651,3.339,1.098,5.035,1.552c0.941,0.252,1.968,0.209,2.886,0.513c27.189,9.009,54.367,18.054,81.563,27.044
		c1.188,0.393,1.693,0.869,1.721,2.158c0.126,5.925,0.371,11.847,0.528,17.771c0.063,2.345,0.011,4.692,0.011,7.348
		c15.075-2.394,29.612-4.702,44.212-7.021c0-2.575,0-4.956,0-7.348c0.344,0,0.548-0.039,0.73,0.006
		c27.672,6.616,55.571,11.939,83.967,14.226c11.355,0.913,22.754,1.308,34.134,1.917c1.362,0.072,2.731,0.01,4.251,0.01
		c-1.081,8.082,1.493,14.671,6.695,20.361c1.201,1.313,2.4,2.627,3.61,3.932c3.579,3.863,6.664,8.041,7.749,13.321
		c0.349,1.697,1.077,2.536,2.889,2.492c0.241-0.679,0.506-1.346,0.719-2.029c3.726-11.941,7.449-23.884,11.162-35.829
		c0.975-3.137,0.971-3.019,4.362-3.405c12.889-1.472,25.838-2.593,38.638-4.639c37.448-5.986,73.408-17.133,108.165-32.233
		c1.261-0.548,2.439-1.296,3.635-1.987c1.132-0.656,2.234-1.361,3.35-2.045c-49.626,23.213-101.607,36.783-156.671,39.538
		c1.261-4.036,2.435-7.796,3.721-11.912c1.752,2.866,3.939,4.462,6.666,5.346c8.149,2.639,18.491-2.092,21.802-9.973
		c2.389-5.687,0.289-11.407-5.144-14.011c-8.681-4.16-21.324,1.632-23.941,10.912c-1.519,5.384-3.14,10.738-4.764,16.091
		c-1.104,3.636-1.141,3.738-4.941,3.805c-5.843,0.101-11.688,0.026-17.753,0.026c2.337-8.181,8.52-13.268,14.47-18.552
		c-7.956,4.129-14.787,9.273-16.927,18.594c-1.247,0-2.435,0-3.818,0c2.626-6.836,7.266-11.869,12.634-16.896
		c-0.771,0.161-1.095,0.186-1.385,0.3c-0.425,0.169-0.85,0.362-1.232,0.611c-5.654,3.673-10.23,8.294-12.646,14.729
		c-0.401,1.069-0.938,1.39-2.027,1.322c-8.877-0.548-17.759-1.034-26.636-1.581c-1.989-0.122-3.968-0.407-6.336-0.658
		c0.918-0.723,1.497-1.139,2.031-1.606c5.391-4.721,8.382-10.499,7.345-17.807c-0.628-4.427-1.673-8.792-2.464-13.196
		c-0.552-3.078-0.99-6.178-1.474-9.233c4.904-0.726,9.548-1.279,14.141-2.113c27.755-5.04,51.646-17.363,71.012-38.046
		c13.693-14.624,20.617-31.953,20.133-52.049c-0.395-16.417-5.635-31.396-14.145-45.298c-4.417-7.216-9.228-14.145-16.149-19.274
		c-12.313-9.125-26.324-12.64-41.434-12.343c-11.868,0.234-23.261,2.69-33.283,9.236c-15.315,10.001-24.258,24.417-27.522,42.325
		c-3.569,19.574,3.965,36.721,20.668,47.195c19.236,12.063,39.9,6.058,51.788-6.208c6.853-7.07,9.682-16.034,10.276-25.708
		c0.452-7.361-0.642-14.46-4.377-20.976c-0.294-0.514-0.61-1.019-0.961-1.495c-0.335-0.457-0.729-0.871-1.097-1.303
		c3.826,6.076,5.552,12.694,5.691,19.737c0.527,26.676-18.226,39.756-37.496,40.819c-22.213,1.223-41.493-16.683-42.801-38.914
		c-0.836-14.194,3.375-26.925,11.317-38.504c6.155-8.973,13.799-16.261,24.221-20.154c14.118-5.273,28.462-5.567,42.925-1.727
		c12.099,3.213,22.58,9.147,30.311,19.225c7.275,9.484,12.92,19.896,16.379,31.364c8.196,27.168,3.83,51.833-15.67,72.954
		c-19.263,20.864-43.26,33.217-71.199,37.973c-4.265,0.726-8.573,1.196-13.022,1.807c-2.563-15.275-5.075-30.234-7.607-45.324
		c-1.088,0.224-1.885,0.387-2.748,0.565c2.512,15.038,4.982,29.83,7.491,44.849c-26.487,1.623-51.941-2.604-77.048-9.423
		c-0.028-7.411-5.498-10.543-11.832-6.979c-0.685,0.385-1.399,0.8-1.925,1.365c-0.887,0.956-1.726,1.067-2.965,0.617
		c-9.095-3.304-18.297-6.325-27.318-9.814c-17.439-6.746-34.78-13.75-52.171-20.621c-2.554-1.009-5.164-1.879-7.507-2.726
		c0.32-4.246,0.894-8.24,0.869-12.23c-0.063-9.932-4.51-17.299-13.604-21.576c-2.914-1.37-5.974-2.432-8.979-3.602
		c-4.611-1.796-8.831-4.201-11.954-8.127c-1.106-1.391-2.154-1.719-3.767-0.813c1.994,11.966,3.988,23.939,6.014,36.104
		c-0.832-0.196-1.347-0.292-1.847-0.439c-26.208-7.657-52.788-13.612-79.838-17.404c-24.52-3.438-49.145-5.108-73.91-4.291
		c-1.246,0.041-1.735-0.267-1.965-1.515c-1.086-5.89-2.315-11.755-3.368-17.65c-0.156-0.872,0.192-1.936,0.583-2.784
		c1.628-3.526,3.487-6.948,5.025-10.51c2.292-5.311,3.757-10.842,3.26-16.706c-0.333-3.917-1.031-7.761-4.094-10.616
		c-2.635-2.457-5.766-1.875-7.223,1.418c-0.652,1.475-0.996,3.14-1.192,4.753c-0.987,8.104-0.464,16.19,0.61,24.241
		c0.309,2.316,0.053,4.234-1.237,6.312c-4.827,7.773-9.399,15.704-14.143,23.529c-0.36,0.594-1.287,1.112-2.001,1.187
		c-15.09,1.584-29.999,4.167-44.684,8c-33.099,8.641-63.303,22.992-89.41,45.403c-7.952,6.826-15.272,14.275-21.954,22.376
		c43.327-42.181,96.013-63.896,155.559-71.579c-2.355,6.748-4.613,13.068-3.321,20.215c-58.67-2.917-109.414,15.117-151.988,55.393
		c43.707-37.761,94.034-56.932,152.256-54.236c1.75,6.848,5.462,12.499,10.618,17.573c-0.825,0-1.274,0.056-1.706-0.008
		c-13.514-2.019-27.092-3.005-40.766-2.827c-14.688,0.192-29.175,1.891-43.456,5.306c-29.961,7.166-56.393,21.339-80.253,40.572
		c-0.985,0.795-1.709,1.914-2.556,2.881c0.692-0.004,1.064-0.275,1.431-0.553c13.819-10.427,28.445-19.526,44.148-26.859
		c24.358-11.377,49.96-17.663,76.818-18.889c14.529-0.663,28.975,0.233,43.378,2.088c3.526,0.454,6.981,0.942,9.938,3.313
		c1.401,1.123,3.222,1.796,4.941,2.437c5.394,2.012,10.909,2.919,16.609,1.356L210.62,191.133z M425.888,119.186
		c-4.234-7.17-14.474-4.818-17.716,0.331c-2.133,3.388-1.47,7.274,1.733,9.366c5.025,3.28,13.102,0.884,15.592-4.571
		c4.347-9.521,8.737-19.022,13.119-28.528c0.759-1.648,1.562-3.276,2.388-5.003c12.912,4.245,25.635,8.427,38.542,12.67
		c-4.655,9.984-9.201,19.732-13.777,29.547c-5.005-5.815-13.015-5.754-17.417-0.005c-2.738,3.576-1.918,8.015,1.881,10.165
		c5.179,2.933,12.822,0.138,15.266-5.253c5.243-11.567,10.7-23.038,16.069-34.548c1.015-2.175,2.028-4.349,3.106-6.661
		c-14.145-4.648-27.995-9.199-41.903-13.769C437.092,95.124,431.519,107.093,425.888,119.186z"/>
	<path fill-rule="evenodd" clip-rule="evenodd" d="M210.683,191.084c-5.701,1.563-11.215,0.655-16.609-1.356
		c-1.719-0.641-3.54-1.313-4.941-2.437c-2.957-2.37-6.413-2.858-9.938-3.313c-14.404-1.855-28.849-2.751-43.378-2.088
		c-26.858,1.226-52.46,7.512-76.818,18.889c-15.703,7.333-30.329,16.433-44.148,26.859c-0.367,0.277-0.739,0.549-1.431,0.553
		c0.846-0.967,1.57-2.086,2.556-2.881c23.86-19.233,50.292-33.406,80.253-40.572c14.281-3.415,28.769-5.114,43.456-5.306
		c13.674-0.179,27.252,0.808,40.766,2.827c0.432,0.064,0.881,0.008,1.706,0.008c-5.156-5.074-8.869-10.725-10.618-17.573
		c-58.222-2.695-108.55,16.475-152.256,54.236c42.574-40.276,93.318-58.31,151.988-55.393c-1.292-7.146,0.966-13.467,3.321-20.215
		c-59.546,7.683-112.232,29.398-155.559,71.579c6.682-8.101,14.002-15.55,21.954-22.376c26.107-22.411,56.311-36.762,89.41-45.403
		c14.685-3.833,29.593-6.417,44.684-8c0.714-0.075,1.641-0.593,2.001-1.187c4.744-7.826,9.316-15.756,14.143-23.529
		c1.29-2.077,1.546-3.996,1.237-6.312c-1.074-8.051-1.597-16.137-0.61-24.241c0.196-1.613,0.54-3.278,1.192-4.753
		c1.457-3.293,4.588-3.875,7.223-1.418c3.063,2.855,3.761,6.699,4.094,10.616c0.498,5.864-0.967,11.395-3.26,16.706
		c-1.538,3.563-3.397,6.984-5.025,10.51c-0.391,0.848-0.739,1.912-0.583,2.784c1.053,5.895,2.282,11.76,3.368,17.65
		c0.23,1.248,0.719,1.556,1.965,1.515c24.765-0.817,49.39,0.852,73.91,4.291c27.05,3.792,53.629,9.747,79.838,17.404
		c0.5,0.146,1.015,0.243,1.847,0.439c-2.026-12.165-4.021-24.138-6.014-36.104c1.613-0.907,2.66-0.578,3.767,0.813
		c3.123,3.926,7.343,6.331,11.954,8.127c3.005,1.17,6.065,2.232,8.979,3.602c9.094,4.277,13.541,11.644,13.604,21.576
		c0.025,3.99-0.548,7.984-0.869,12.23c2.343,0.847,4.953,1.716,7.507,2.726c17.392,6.872,34.732,13.875,52.171,20.621
		c9.021,3.489,18.224,6.511,27.318,9.814c1.239,0.45,2.078,0.339,2.965-0.617c0.525-0.565,1.24-0.98,1.925-1.365
		c6.334-3.564,11.804-0.433,11.832,6.979c25.106,6.818,50.561,11.046,77.048,9.423c-2.509-15.02-4.979-29.812-7.491-44.849
		c0.863-0.178,1.66-0.341,2.748-0.565c2.532,15.09,5.044,30.049,7.607,45.324c4.449-0.61,8.758-1.081,13.022-1.807
		c27.939-4.756,51.937-17.109,71.199-37.973c19.5-21.122,23.866-45.786,15.67-72.954c-3.459-11.468-9.104-21.88-16.379-31.364
		c-7.73-10.078-18.212-16.012-30.311-19.225c-14.463-3.841-28.807-3.547-42.925,1.727c-10.422,3.893-18.065,11.181-24.221,20.154
		c-7.942,11.579-12.153,24.311-11.317,38.504c1.308,22.231,20.588,40.137,42.801,38.914c19.271-1.063,38.023-14.143,37.496-40.819
		c-0.14-7.043-1.865-13.661-5.691-19.737c0.368,0.433,0.762,0.847,1.097,1.303c0.351,0.477,0.667,0.981,0.961,1.495
		c3.735,6.516,4.829,13.615,4.377,20.976c-0.595,9.674-3.424,18.638-10.276,25.708c-11.888,12.266-32.552,18.272-51.788,6.208
		c-16.703-10.475-24.237-27.621-20.668-47.195c3.265-17.908,12.207-32.324,27.522-42.325c10.022-6.545,21.415-9.002,33.283-9.236
		c15.109-0.297,29.12,3.217,41.434,12.343c6.922,5.129,11.732,12.058,16.149,19.274c8.51,13.901,13.75,28.881,14.145,45.298
		c0.484,20.096-6.439,37.425-20.133,52.049c-19.366,20.683-43.257,33.006-71.012,38.046c-4.593,0.834-9.236,1.388-14.141,2.113
		c0.483,3.056,0.922,6.155,1.474,9.233c0.791,4.404,1.836,8.77,2.464,13.196c1.037,7.308-1.954,13.086-7.345,17.807
		c-0.534,0.468-1.113,0.884-2.031,1.606c2.368,0.251,4.347,0.536,6.336,0.658c8.877,0.547,17.759,1.033,26.636,1.581
		c1.09,0.067,1.626-0.253,2.027-1.322c2.416-6.436,6.992-11.057,12.646-14.729c0.383-0.249,0.808-0.442,1.232-0.611
		c0.29-0.114,0.614-0.139,1.385-0.3c-5.368,5.027-10.008,10.061-12.634,16.896c1.384,0,2.571,0,3.818,0
		c2.14-9.32,8.971-14.465,16.927-18.594c-5.95,5.284-12.133,10.371-14.47,18.552c6.064,0,11.91,0.074,17.753-0.026
		c3.801-0.066,3.838-0.169,4.941-3.805c1.624-5.353,3.245-10.707,4.764-16.091c2.617-9.28,15.261-15.072,23.941-10.912
		c5.433,2.604,7.532,8.324,5.144,14.011c-3.311,7.881-13.652,12.611-21.802,9.973c-2.727-0.884-4.914-2.479-6.666-5.346
		c-1.286,4.116-2.46,7.876-3.721,11.912c55.063-2.755,107.045-16.325,156.671-39.538c-1.115,0.684-2.218,1.389-3.35,2.045
		c-1.195,0.691-2.374,1.439-3.635,1.987c-34.757,15.101-70.717,26.247-108.165,32.233c-12.8,2.046-25.749,3.167-38.638,4.639
		c-3.392,0.387-3.388,0.269-4.362,3.405c-3.713,11.945-7.437,23.888-11.162,35.829c-0.213,0.684-0.478,1.351-0.719,2.029
		c-1.812,0.044-2.54-0.795-2.889-2.492c-1.085-5.28-4.17-9.458-7.749-13.321c-1.21-1.305-2.409-2.619-3.61-3.932
		c-5.202-5.69-7.776-12.279-6.695-20.361c-1.52,0-2.889,0.063-4.251-0.01c-11.38-0.609-22.778-1.004-34.134-1.917
		c-28.396-2.286-56.295-7.609-83.967-14.226c-0.183-0.045-0.387-0.006-0.73-0.006c0,2.392,0,4.772,0,7.348
		c-14.6,2.318-29.137,4.627-44.212,7.021c0-2.655,0.053-5.003-0.011-7.348c-0.157-5.925-0.402-11.847-0.528-17.771
		c-0.027-1.289-0.532-1.766-1.721-2.158c-27.195-8.99-54.373-18.035-81.563-27.044c-0.918-0.304-1.945-0.261-2.886-0.513
		c-1.696-0.454-3.41-0.9-5.035-1.552c-1.811-0.725-3.461-1.892-5.304-2.491c-23.664-7.704-47.351-15.341-71.032-22.991
		c-0.561-0.181-1.14-0.306-2.02-0.538c1.082,6.504,2.134,12.836,3.271,19.675c0.699-0.876,1.06-1.461,1.544-1.914
		c2.34-2.188,4.494-4.674,7.133-6.421c3.144-2.083,6.224-1.111,8.404,1.986c2.644,3.756,2.495,7.933,1.692,12.164
		c-0.304,1.604-0.805,3.172-1.26,4.929c0.966,0.387,1.924,0.771,2.881,1.154c27.373,10.995,54.764,21.942,82.112,32.997
		c31.868,12.882,63.857,25.427,96.61,35.932c31.023,9.951,62.498,18.04,94.714,23.082c30.431,4.762,61.031,6.705,91.813,5.193
		c26.059-1.28,51.773-5.024,77.162-11.04c1.531-0.363,2.056-0.981,2.215-2.575c0.894-8.917,9.025-16.413,17.642-16.432
		c5.79-0.012,9.762,3.237,10.869,8.896c0.074,0.379,0.13,0.761,0.25,1.475c7.259-2.518,14.374-4.985,21.489-7.453
		c0.043,0.093,0.085,0.187,0.128,0.279c-1.97,0.831-3.908,1.747-5.914,2.476c-4.702,1.709-9.422,3.375-14.17,4.953
		c-1.158,0.385-1.62,0.869-1.766,2.136c-1.029,8.944-9.577,16.54-18.332,16.104c-2.271-0.114-4.496-1.173-6.785-1.809
		c0.235,3.146,0.494,6.593,0.796,10.617c11.876-5.304,23.498-10.493,35.119-15.683c0.046,0.043,0.092,0.086,0.138,0.13
		c-0.551,0.426-1.083,0.879-1.657,1.271c-0.653,0.443-1.314,0.894-2.022,1.234c-9.846,4.736-19.678,9.502-29.575,14.128
		c-1.461,0.683-1.89,1.361-1.766,2.925c1.054,13.401,2.023,26.81,3.016,40.216c0.063,0.845,0.097,1.692,0.155,2.736
		c-0.859,0.082-1.607,0.153-2.607,0.248c-1.094-14.774-2.174-29.383-3.265-44.124c-5.604,2.073-10.942,4.122-16.331,6.029
		c-25.588,9.06-51.755,15.767-78.685,19.414c-22.032,2.985-44.106,3.814-66.241,1.464c-25.422-2.699-49.641-9.445-72.053-22.004
		c-3.29-1.843-6.354-4.092-9.339-6.475c0.559,0.273,1.131,0.524,1.676,0.825c21.15,11.667,43.719,19.158,67.535,23.02
		c26.504,4.297,53.027,3.971,79.568,0.438c31.702-4.219,62.249-12.813,92.029-24.313c1.218-0.47,1.724-0.971,1.578-2.415
		c-0.446-4.456-0.667-8.936-1.009-13.403c-0.089-1.161-0.303-2.313-0.48-3.632c-4.503,1.06-8.778,2.09-13.065,3.07
		c-34.738,7.945-69.93,11.381-105.542,10.395c-33.318-0.922-66.115-5.744-98.503-13.512c-36.2-8.682-71.354-20.615-105.829-34.53
		c-29.184-11.779-58.146-24.106-87.226-36.146c-12.587-5.212-25.222-10.311-37.991-15.524c-0.829,1.781-1.446,3.448-2.334,4.954
		c-2.607,4.422-5.372,8.751-7.971,13.177c-1.014,1.726-2.475,1.915-4.319,1.849c-0.881-5.248-1.754-10.432-2.622-15.616
		c-0.554-3.312-1.049-6.635-1.692-9.93c-0.125-0.643-0.692-1.509-1.256-1.712c-15.617-5.606-31.413-10.645-47.976-14.777
		c0.772,2.376,1.45,4.462,2.128,6.547c3.682,11.339-2.577,24.902-13.471,28.884c-8.447,3.087-13.901-0.272-18.384-5.951
		c-2.167-2.745-1.708-6.879,0.619-9.513c2.334-2.642,6.27-3.412,9.393-1.84c3.261,1.642,4.933,5.146,4.189,8.78
		c-0.687,3.354-3.636,5.868-7.137,6.079c-0.355,0.021-0.714,0.002-1.083,0.181c2.769,1.916,5.856,2.271,8.967,1.458
		c8.823-2.309,13.318-8.683,15.449-17.071c0.917-3.609,0.485-7.19-0.775-10.686c-0.625-1.732-1.287-3.464-1.728-5.247
		c-0.352-1.422-1.081-1.808-2.385-1.444c0.378-0.24,0.752-0.479,1.479-0.939c-6.6-1.406-12.896-2.748-19.191-4.089
		c0.32,0.763,0.784,1.094,1.274,1.378C199.298,190.444,204.811,191.59,210.683,191.084z M258.631,156.374
		c0.163,0.594,0.318,1.018,0.392,1.455c1.087,6.493,2.191,12.984,3.221,19.486c0.2,1.266,0.712,1.856,1.991,2.239
		c19.483,5.834,38.951,11.718,58.409,17.636c4.696,1.429,9.342,3.024,14.166,4.594c-1.81-8.231,0.949-14.625,7.236-19.476
		c4.763-3.675,10.052-4.802,15.905-1.608c-0.96-5.76-1.854-11.331-2.877-16.878c-0.088-0.476-0.978-0.963-1.587-1.156
		c-3.137-0.994-6.299-1.915-9.463-2.823c-24.021-6.894-48.389-12.154-73.171-15.425c-17.191-2.269-34.46-3.555-51.807-3.667
		c-6.906-0.044-13.813-0.007-21.073-0.007c0.441,1.622,0.708,2.606,0.986,3.63c15.262-8.589,36.715,5.476,31.047,27.169
		c8.972,2.143,17.941,4.284,27.157,6.484c-1.189-7.186-2.332-14.096-3.499-21.153C256.736,156.693,257.567,156.553,258.631,156.374z
		 M433.828,221.921c0,3.059,0.103,6.087-0.041,9.104c-0.079,1.668,0.591,2.266,2.097,2.675c9.593,2.605,19.156,5.315,28.74,7.952
		c3.396,0.933,6.821,1.754,10.529,2.702c-0.277-7.119-0.704-13.885-0.757-20.653c-0.045-5.807-1.387-11.626,0.088-17.639
		c-30.12-8.533-58.468-21.871-87.685-32.922c-1.531,3.324-1.784,6.958-4.286,9.527c0.467-2.827,1.087-5.575,1.811-8.296
		c0.366-1.378,0.146-2.126-1.378-2.609c-4.014-1.273-7.959-2.765-11.949-4.117c-3.593-1.217-7.209-2.364-11.164-3.656
		c1.29,7.531,2.259,14.77,3.838,21.873c1.157,5.204,0.524,9.923-2.526,14.08c-2.047,2.791-4.834,5.04-7.413,7.655
		c25.818,8.313,51.981,16.735,78.51,25.276c-0.229-5.283-0.273-10.013-0.683-14.71c-0.486-5.574,2.909-10.896,8.344-12.311
		c2.643-0.688,5.281-0.607,7.393,1.489c2.154,2.14,2.342,4.771,1.574,7.53C447.031,221.489,440.091,224.676,433.828,221.921z
		 M475.837,215.92c-0.028,0.613-0.081,1.063-0.063,1.51c0.331,8.425,0.724,16.848,0.965,25.274c0.047,1.629,0.552,2.219,2.122,2.602
		c19.069,4.647,38.285,8.561,57.671,11.635c3.722,0.591,7.465,1.056,11.388,1.604c-3.602-7.821-1.831-14.554,3.426-20.357
		c5.377-5.937,11.912-8.447,19.97-4.616c-0.846-5.012-1.65-9.784-2.388-14.156c-5.377,0-10.439,0.049-15.5-0.009
		c-20.589-0.236-40.786-3.396-60.732-8.313c-1.477-0.364-2.274-0.252-3.198,1.129C486.26,217.053,481.2,218.405,475.837,215.92z
		 M216.804,189.28c15.623,4.805,31.06,9.552,46.519,14.307c0.01-0.061,0.096-0.256,0.066-0.432
		c-1.238-7.401-2.46-14.805-3.787-22.19c-0.102-0.565-0.867-1.265-1.461-1.444c-3.086-0.935-6.206-1.768-9.335-2.548
		c-5.729-1.428-11.475-2.794-17.292-4.205C228.753,180.358,223.851,185.797,216.804,189.28z M354.099,127.83
		c-0.079,0.673-0.126,0.808-0.105,0.932c1.705,10.254,3.395,20.511,5.179,30.752c0.098,0.56,0.899,1.21,1.512,1.429
		c2.29,0.818,4.646,1.447,6.961,2.197c5.805,1.882,11.601,3.792,17.586,5.751c0.871-4.92,1.063-9.731,0.566-14.599
		c-0.565-5.549-3.338-9.883-7.663-13.056c-2.544-1.866-5.56-3.315-8.58-4.258C363.777,135.175,358.121,133.37,354.099,127.83z
		 M229.657,171.015c2.386-7.089,0.24-14.869-5.287-19.47c-5.632-4.689-14.944-5.771-20.975-2.356
		c-0.444,0.251-0.896,1.181-0.771,1.64c1.388,5.137,2.868,10.25,4.397,15.347c0.132,0.439,0.744,0.956,1.205,1.04
		C215.328,168.514,222.441,169.748,229.657,171.015z M195.165,166.509c1.826,4.374,4.982,6.562,9.024,7.737
		c-4.989-0.049-8.516-2.429-10.99-6.573c-0.344-0.577-0.851-1.417-1.359-1.476c-4.365-0.507-8.747-0.862-13.374-1.287
		c1.478,6.738,4.34,12.419,8.902,17.169c0.871,0.907,2.257,1.501,3.513,1.819c2.932,0.743,5.934,1.203,8.897,1.827
		c3.833,0.809,7.655,1.666,11.708,2.551c-1.999-6.686-3.9-13.106-5.874-19.504c-0.131-0.426-0.773-0.906-1.239-0.981
		C201.458,167.323,198.524,166.964,195.165,166.509z M475.001,248.359c-13.949-3.817-27.36-7.486-40.951-11.206
		c0.238,5.936,0.469,11.681,0.706,17.602C448.194,252.619,461.352,250.528,475.001,248.359z M191.941,164.977
		c-1.755-7.285,0.291-13.071,5.449-17.849c2.267-2.099,2.399-2.88,0.746-5.904c-5.123,0.406-10.307,0.796-15.485,1.261
		c-0.471,0.042-1.141,0.472-1.311,0.888c-2.478,6.085-4.43,12.287-3.315,18.992c0.09,0.541,0.685,1.375,1.118,1.424
		C183.313,164.257,187.497,164.585,191.941,164.977z M207.541,168.152c2.253,7.033,4.328,13.468,6.369,19.914
		c0.368,1.161,1.103,1.481,2.094,0.969c6.843-3.541,11.048-9.207,13.479-16.75C222.169,170.907,215.102,169.577,207.541,168.152z
		 M609.852,265.175c1.91,9.2,9.593,13.762,14.699,20.693c2.281-7.319,4.443-14.255,6.675-21.416
		C624.144,264.692,617.266,264.925,609.852,265.175z M607.74,265.079c-0.991,0-1.785,0.096-2.548-0.02
		c-1.626-0.246-2.418,0.491-2.303,2.018c0.173,2.27,0.021,4.755,0.924,6.73c1.346,2.944,3.31,5.667,5.333,8.229
		c3.851,4.876,9.049,8.617,12.066,14.397c0.31-0.899,0.485-1.682,0.835-2.377c1.266-2.511,0.656-4.617-1.15-6.617
		c-2.294-2.54-4.508-5.152-6.727-7.76C610.645,275.535,608.064,270.952,607.74,265.079z M280.444,210.077
		c0.949-4.607,1.556-8.811-1.399-12.595c-1.667-2.135-3.859-2.861-6.051-1.357c-2.276,1.562-4.291,3.621-6.021,5.781
		c-0.486,0.606,0.086,3.127,0.761,3.421C271.798,207.1,276.033,208.48,280.444,210.077z M271.004,229.327
		c3.779-5.721,6.847-11.197,8.821-17.395c-4.249-1.571-8.249-3.051-12.529-4.634C268.555,214.776,269.736,221.792,271.004,229.327z
		 M735.512,296.455c0.487,0.123,0.625,0.207,0.73,0.178c6.079-1.688,12.162-3.359,18.215-5.135c0.439-0.13,0.938-1.033,0.928-1.566
		c-0.081-3.826-3.994-6.703-7.853-5.508C741.535,286.282,737.793,290.564,735.512,296.455z M197.558,137.484
		c-1.199-6.05-2.351-11.858-3.618-18.251c-3.619,6.563-6.976,12.653-10.524,19.089C188.43,138.025,192.863,137.763,197.558,137.484z
		 M194.492,108.472c3.022-4.838,5.738-9.818,6.735-15.455c0.341-1.927,0.038-4.074-0.436-6.006c-0.409-1.668-1.269-3.697-3.412-3.54
		c-2.136,0.157-2.283,2.333-2.588,3.951C193.476,94.385,193.636,101.394,194.492,108.472z M755.108,292.396
		c-6.177,1.785-12.082,3.555-18.028,5.172c-1.711,0.466-1.675,1.289-1.101,2.569c1.477,3.29,5.114,4.623,8.899,3.047
		c4.36-1.816,7.584-4.933,9.709-9.157C754.806,293.592,754.891,293.09,755.108,292.396z M200.778,150.771
		c-4.893,3.051-7.364,8.262-6.322,13.134c0.111,0.521,0.425,1.363,0.75,1.416c3.183,0.522,6.388,0.909,9.826,1.365
		C203.553,161.153,202.184,156.031,200.778,150.771z"/>
	<path fill-rule="evenodd" clip-rule="evenodd" d="M425.888,119.186c5.631-12.092,11.204-24.062,16.883-36.259
		c13.908,4.57,27.759,9.121,41.903,13.769c-1.078,2.312-2.092,4.486-3.106,6.661c-5.369,11.51-10.826,22.981-16.069,34.548
		c-2.443,5.391-10.087,8.186-15.266,5.253c-3.799-2.15-4.619-6.589-1.881-10.165c4.402-5.749,12.412-5.81,17.417,0.005
		c4.576-9.815,9.122-19.563,13.777-29.547c-12.907-4.243-25.63-8.425-38.542-12.67c-0.826,1.727-1.629,3.354-2.388,5.003
		c-4.382,9.505-8.772,19.006-13.119,28.528c-2.49,5.455-10.567,7.851-15.592,4.571c-3.204-2.092-3.867-5.978-1.733-9.366
		C411.415,114.367,421.654,112.016,425.888,119.186z"/>
	<path fill-rule="evenodd" clip-rule="evenodd" fill="#FFFFFF" d="M258.631,156.374c-1.064,0.179-1.895,0.319-2.968,0.5
		c1.167,7.057,2.31,13.967,3.499,21.153c-9.215-2.2-18.185-4.342-27.157-6.484c5.668-21.693-15.786-35.758-31.047-27.169
		c-0.278-1.024-0.545-2.008-0.986-3.63c7.26,0,14.167-0.037,21.073,0.007c17.347,0.112,34.615,1.398,51.807,3.667
		c24.782,3.271,49.15,8.532,73.171,15.425c3.164,0.908,6.326,1.829,9.463,2.823c0.609,0.193,1.499,0.681,1.587,1.156
		c1.023,5.547,1.917,11.119,2.877,16.878c-5.853-3.194-11.142-2.067-15.905,1.608c-6.287,4.851-9.046,11.245-7.236,19.476
		c-4.824-1.569-9.469-3.165-14.166-4.594c-19.458-5.918-38.926-11.802-58.409-17.636c-1.279-0.383-1.791-0.974-1.991-2.239
		c-1.03-6.502-2.133-12.993-3.221-19.486C258.95,157.391,258.794,156.967,258.631,156.374z"/>
	<path fill-rule="evenodd" clip-rule="evenodd" fill="#FFFFFF" d="M433.828,221.921c6.264,2.755,13.203-0.432,15.042-7.049
		c0.768-2.76,0.58-5.391-1.574-7.53c-2.111-2.097-4.75-2.177-7.393-1.489c-5.435,1.415-8.83,6.736-8.344,12.311
		c0.409,4.697,0.453,9.427,0.683,14.71c-26.529-8.541-52.692-16.964-78.51-25.276c2.579-2.615,5.366-4.864,7.413-7.655
		c3.05-4.157,3.683-8.876,2.526-14.08c-1.579-7.103-2.548-14.342-3.838-21.873c3.954,1.292,7.571,2.439,11.164,3.656
		c3.99,1.352,7.935,2.844,11.949,4.117c1.524,0.483,1.744,1.231,1.378,2.609c-0.723,2.721-1.344,5.47-1.811,8.296
		c2.502-2.569,2.754-6.203,4.286-9.527c29.217,11.052,57.565,24.389,87.685,32.922c-1.475,6.013-0.133,11.832-0.088,17.639
		c0.053,6.769,0.479,13.534,0.757,20.653c-3.708-0.948-7.134-1.77-10.529-2.702c-9.584-2.637-19.147-5.347-28.74-7.952
		c-1.506-0.409-2.176-1.007-2.097-2.675C433.93,228.008,433.828,224.979,433.828,221.921z"/>
	<path fill-rule="evenodd" clip-rule="evenodd" fill="#FFFFFF" d="M475.837,215.92c5.362,2.485,10.423,1.133,13.659-3.698
		c0.924-1.381,1.722-1.493,3.198-1.129c19.946,4.918,40.144,8.077,60.732,8.313c5.061,0.058,10.123,0.009,15.5,0.009
		c0.737,4.372,1.542,9.145,2.388,14.156c-8.058-3.831-14.593-1.32-19.97,4.616c-5.257,5.804-7.027,12.536-3.426,20.357
		c-3.923-0.549-7.666-1.014-11.388-1.604c-19.386-3.074-38.602-6.987-57.671-11.635c-1.57-0.383-2.075-0.973-2.122-2.602
		c-0.241-8.427-0.634-16.85-0.965-25.274C475.756,216.982,475.809,216.533,475.837,215.92z"/>
	<path fill-rule="evenodd" clip-rule="evenodd" fill="#FFFFFF" d="M216.804,189.28c7.047-3.483,11.949-8.922,14.708-16.512
		c5.817,1.411,11.563,2.777,17.292,4.205c3.13,0.78,6.249,1.613,9.335,2.548c0.595,0.18,1.36,0.879,1.461,1.444
		c1.327,7.385,2.549,14.789,3.787,22.19c0.03,0.176-0.056,0.371-0.066,0.432C247.864,198.832,232.427,194.085,216.804,189.28z"/>
	<path fill-rule="evenodd" clip-rule="evenodd" fill="#FFFFFF" d="M354.099,127.83c4.022,5.54,9.678,7.345,15.456,9.148
		c3.02,0.943,6.036,2.392,8.58,4.258c4.324,3.173,7.097,7.506,7.663,13.056c0.497,4.868,0.305,9.678-0.566,14.599
		c-5.985-1.959-11.781-3.869-17.586-5.751c-2.315-0.75-4.671-1.379-6.961-2.197c-0.613-0.219-1.414-0.869-1.512-1.429
		c-1.784-10.241-3.474-20.498-5.179-30.752C353.973,128.638,354.02,128.503,354.099,127.83z"/>
	<path fill-rule="evenodd" clip-rule="evenodd" fill="#FFFFFF" d="M229.657,171.015c-7.216-1.267-14.33-2.5-21.431-3.8
		c-0.461-0.084-1.073-0.601-1.205-1.04c-1.529-5.097-3.009-10.209-4.397-15.347c-0.125-0.459,0.327-1.389,0.771-1.64
		c6.031-3.415,15.342-2.333,20.975,2.356C229.897,156.146,232.043,163.925,229.657,171.015z"/>
	<path fill-rule="evenodd" clip-rule="evenodd" fill="#FFFFFF" d="M195.165,166.509c3.36,0.455,6.293,0.814,9.209,1.282
		c0.465,0.075,1.107,0.555,1.239,0.981c1.974,6.398,3.875,12.818,5.874,19.504c-4.053-0.885-7.875-1.742-11.708-2.551
		c-2.963-0.625-5.966-1.084-8.897-1.827c-1.255-0.318-2.642-0.912-3.513-1.819c-4.562-4.75-7.424-10.431-8.902-17.169
		c4.627,0.424,9.009,0.78,13.374,1.287c0.508,0.059,1.015,0.899,1.359,1.476c2.475,4.145,6.001,6.524,10.99,6.573
		C200.146,173.071,196.991,170.883,195.165,166.509z"/>
	<path fill-rule="evenodd" clip-rule="evenodd" fill="#FFFFFF" d="M475.001,248.359c-13.649,2.169-26.808,4.26-40.245,6.396
		c-0.237-5.921-0.468-11.666-0.706-17.602C447.641,240.873,461.052,244.542,475.001,248.359z"/>
	<path fill-rule="evenodd" clip-rule="evenodd" fill="#FFFFFF" d="M191.941,164.977c-4.444-0.392-8.628-0.719-12.797-1.187
		c-0.434-0.049-1.028-0.883-1.118-1.424c-1.115-6.706,0.837-12.907,3.315-18.992c0.169-0.416,0.839-0.846,1.311-0.888
		c5.178-0.465,10.362-0.855,15.485-1.261c1.653,3.024,1.521,3.805-0.746,5.904C192.232,151.905,190.186,157.692,191.941,164.977z"/>
	<path fill-rule="evenodd" clip-rule="evenodd" fill="#FFFFFF" d="M207.541,168.152c7.562,1.424,14.628,2.755,21.942,4.133
		c-2.431,7.543-6.636,13.209-13.479,16.75c-0.991,0.513-1.726,0.192-2.094-0.969C211.869,181.621,209.794,175.185,207.541,168.152z"
		/>
	<path fill-rule="evenodd" clip-rule="evenodd" fill="#FFFFFF" d="M609.852,265.175c7.414-0.25,14.292-0.482,21.374-0.723
		c-2.231,7.161-4.394,14.097-6.675,21.416C619.445,278.937,611.762,274.375,609.852,265.175z"/>
	<path fill-rule="evenodd" clip-rule="evenodd" fill="#FFFFFF" d="M607.74,265.079c0.324,5.873,2.905,10.456,6.431,14.601
		c2.219,2.607,4.433,5.22,6.727,7.76c1.807,2,2.416,4.106,1.15,6.617c-0.35,0.695-0.525,1.478-0.835,2.377
		c-3.018-5.78-8.216-9.521-12.066-14.397c-2.023-2.562-3.987-5.284-5.333-8.229c-0.902-1.976-0.751-4.461-0.924-6.73
		c-0.115-1.526,0.677-2.264,2.303-2.018C605.955,265.175,606.749,265.079,607.74,265.079z"/>
	<path fill-rule="evenodd" clip-rule="evenodd" fill="#FFFFFF" d="M280.444,210.077c-4.411-1.597-8.646-2.978-12.71-4.75
		c-0.675-0.294-1.247-2.814-0.761-3.421c1.73-2.16,3.745-4.22,6.021-5.781c2.192-1.504,4.383-0.777,6.051,1.357
		C282,201.267,281.394,205.47,280.444,210.077z"/>
	<path fill-rule="evenodd" clip-rule="evenodd" fill="#FFFFFF" d="M271.004,229.327c-1.269-7.535-2.45-14.551-3.708-22.028
		c4.281,1.583,8.28,3.063,12.529,4.634C277.851,218.13,274.784,223.606,271.004,229.327z"/>
	<path fill-rule="evenodd" clip-rule="evenodd" fill="#FFFFFF" d="M735.512,296.455c2.281-5.891,6.022-10.173,12.021-12.031
		c3.858-1.195,7.771,1.682,7.853,5.508c0.011,0.533-0.488,1.437-0.928,1.566c-6.053,1.775-12.136,3.447-18.215,5.135
		C736.137,296.662,736,296.578,735.512,296.455z"/>
	<path fill-rule="evenodd" clip-rule="evenodd" fill="#FFFFFF" d="M197.558,137.484c-4.694,0.278-9.128,0.541-14.142,0.838
		c3.548-6.436,6.905-12.526,10.524-19.089C195.207,125.626,196.358,131.435,197.558,137.484z"/>
	<path fill-rule="evenodd" clip-rule="evenodd" fill="#FFFFFF" d="M194.492,108.472c-0.856-7.078-1.016-14.087,0.298-21.051
		c0.306-1.618,0.453-3.794,2.588-3.951c2.143-0.157,3.003,1.872,3.412,3.54c0.474,1.932,0.777,4.079,0.436,6.006
		C200.229,98.653,197.514,103.634,194.492,108.472z"/>
	<path fill-rule="evenodd" clip-rule="evenodd" fill="#FFFFFF" d="M755.108,292.396c-0.217,0.693-0.302,1.195-0.521,1.631
		c-2.125,4.225-5.349,7.341-9.709,9.157c-3.785,1.576-7.423,0.243-8.899-3.047c-0.574-1.28-0.61-2.104,1.101-2.569
		C743.026,295.951,748.931,294.182,755.108,292.396z"/>
	<path fill-rule="evenodd" clip-rule="evenodd" fill="#FFFFFF" d="M200.778,150.771c1.406,5.26,2.775,10.382,4.254,15.915
		c-3.438-0.457-6.643-0.843-9.826-1.365c-0.325-0.053-0.638-0.896-0.75-1.416C193.414,159.033,195.885,153.822,200.778,150.771z"/>
	<path fill-rule="evenodd" clip-rule="evenodd" fill="#FFFFFF" d="M210.683,191.084c-5.872,0.506-11.384-0.64-16.497-3.604
		c-0.49-0.284-0.954-0.615-1.274-1.378c6.295,1.341,12.591,2.683,19.191,4.089c-0.727,0.461-1.101,0.699-1.479,0.939
		C210.62,191.133,210.683,191.084,210.683,191.084z"/>
</g>
</svg>
