<?xml version="1.0" encoding="utf-8"?>
<!-- Generator: Adobe Illustrator 16.0.0, SVG Export Plug-In . SVG Version: 6.00 Build 0)  -->
<!DOCTYPE svg PUBLIC "-//W3C//DTD SVG 1.1//EN" "http://www.w3.org/Graphics/SVG/1.1/DTD/svg11.dtd">
<svg version="1.1" id="Ebene_1" xmlns="http://www.w3.org/2000/svg" xmlns:xlink="http://www.w3.org/1999/xlink" x="0px" y="0px"
	 width="30px" height="30px" viewBox="0 0 30 30" enable-background="new 0 0 30 30" xml:space="preserve">
<path fill="#FFFFFF" d="M7.224,11.577c0,0.004,0.001,0.011,0.001,0.016c0.25,1.964,1.338,6.604,6.012,13.479
	c0.022,0.035,1.125,1.588,1.125,1.588c0.355,0.49,0.936,0.49,1.291,0l1.095-1.539c2.638-4.089,5.412-8.586,6.044-13.527
	c0-0.007,0.047-0.441,0.047-0.455c0.018-0.2,0.021-0.402,0.021-0.605C22.859-0.293,5.801,0.908,7.224,11.577z M14.913,15.368
	c-2.578,0-4.667-2.089-4.667-4.667c0-2.578,2.089-4.667,4.667-4.667s4.667,2.089,4.667,4.667
	C19.579,13.279,17.49,15.368,14.913,15.368z"/>
</svg>
