<svg version="1.1" id="Ebene_1" xmlns="http://www.w3.org/2000/svg" xmlns:xlink="http://www.w3.org/1999/xlink" x="0px" y="0px"
	 width="30px" height="30px" viewBox="0 0 30 30" enable-background="new 0 0 30 30" xml:space="preserve">
<g>
	<path fill="#701510" d="M27,21.698c0,0.612-0.504,1.116-1.113,1.116H4.114C3.501,22.814,3,22.313,3,21.698V8.302
		c0-0.613,0.501-1.114,1.114-1.114h21.773c0.609,0,1.113,0.5,1.113,1.114V21.698z"/>
	<path fill="#FFFFFF" d="M24.766,21.341l-2.818-2.192l-1.176-0.91l-3.203-2.492l-1.491,1.164c-0.298,0.23-0.68,0.355-1.072,0.355
		c-0.391,0-0.771-0.123-1.066-0.354l-1.521-1.167l-3.239,2.493l-0.7,0.537H8.477l-0.572,0.438l-1.864,1.439l-0.904,0.693
		c-0.386,0.299-0.302,0.538,0.18,0.538H24.58C25.066,21.884,25.15,21.643,24.766,21.341z M10.873,14.483L4.622,9.534
		C4.24,9.229,3.929,9.382,3.929,9.867v10.267c0,0.485,0.313,0.642,0.694,0.341l6.246-4.896
		C11.252,15.277,11.255,14.786,10.873,14.483z M25.379,9.534l-6.251,4.949c-0.382,0.303-0.38,0.794,0.005,1.095l6.241,4.896
		c0.385,0.301,0.7,0.146,0.7-0.341V9.867C26.074,9.382,25.762,9.229,25.379,9.534z M24.58,8.115H5.316
		c-0.482,0-0.566,0.243-0.183,0.539l9.17,7.056c0.386,0.294,1.016,0.291,1.399-0.004l9.062-7.051
		C25.15,8.36,25.066,8.115,24.58,8.115z"/>
</g>
</svg>
