<svg version="1.1" id="Ebene_1" xmlns="http://www.w3.org/2000/svg" xmlns:xlink="http://www.w3.org/1999/xlink" x="0px" y="0px"
	 width="56px" height="53px" viewBox="-3 0 56 53" enable-background="new -3 0 56 53" xml:space="preserve">
<g>
	<circle fill="#FFFFFF" cx="25" cy="25" r="25"/>
	<g>
		<path d="M15.534,24.509c-0.179,0-0.354-0.073-0.482-0.215c-0.079-0.089-1.929-2.173-1.929-5.383c0-3.55,1.882-5.397,1.961-5.476
			c0.259-0.248,0.67-0.24,0.919,0.02c0.247,0.258,0.24,0.667-0.017,0.917c-0.068,0.067-1.563,1.573-1.563,4.54
			c0,2.717,1.577,4.495,1.595,4.512c0.239,0.268,0.219,0.678-0.047,0.918C15.846,24.454,15.689,24.509,15.534,24.509z"/>
		<path d="M12.09,26.255c-0.177,0-0.354-0.071-0.48-0.213c-0.104-0.116-2.547-2.871-2.547-7.122c0-4.701,2.475-7.131,2.578-7.232
			c0.26-0.248,0.67-0.24,0.92,0.02c0.248,0.259,0.238,0.669-0.019,0.917c-0.031,0.03-2.183,2.187-2.183,6.297
			c0,3.735,2.191,6.228,2.213,6.252c0.24,0.265,0.219,0.677-0.049,0.916C12.4,26.2,12.245,26.255,12.09,26.255z"/>
		<path d="M34.464,24.509c-0.153,0-0.31-0.055-0.435-0.168c-0.266-0.239-0.287-0.651-0.049-0.918
			c0.018-0.016,1.596-1.817,1.596-4.512c0-3.003-1.544-4.522-1.561-4.538c-0.26-0.248-0.27-0.66-0.021-0.918
			c0.248-0.26,0.66-0.268,0.92-0.02c0.078,0.078,1.96,1.926,1.96,5.476c0,3.21-1.851,5.294-1.929,5.383
			C34.818,24.436,34.643,24.509,34.464,24.509z"/>
		<path d="M37.907,26.255c-0.154,0-0.312-0.055-0.435-0.167c-0.268-0.24-0.287-0.65-0.047-0.917c0.021-0.022,2.213-2.517,2.213-6.25
			c0-4.153-2.16-6.274-2.181-6.295c-0.26-0.248-0.267-0.659-0.019-0.918c0.248-0.258,0.66-0.267,0.916-0.019
			c0.105,0.101,2.582,2.531,2.582,7.231c0,4.25-2.443,7.005-2.549,7.122C38.264,26.186,38.086,26.255,37.907,26.255z"/>
		<path d="M29.643,10.061c-1.194,0-2.166,1.067-2.166,2.381v10.17c0,3.619-1.629,3.619-2.408,3.619c-0.022,0-0.045,0-0.068,0
			c-0.021,0-0.046,0-0.066,0c-0.781,0-2.408,0-2.408-3.619v-10.17c0-1.313-0.971-2.381-2.166-2.381
			c-1.194,0-2.166,1.067-2.166,2.381v9.857c0,5.329,2.365,7.29,4.6,7.952v11.481c0,1.218,0.991,2.207,2.208,2.207
			c1.22,0,2.207-0.989,2.207-2.207V30.251c2.235-0.662,4.603-2.623,4.603-7.952v-9.857C31.809,11.128,30.835,10.061,29.643,10.061z
			 M30.509,22.299c0,4.02-1.405,6.295-4.213,6.84c-0.126,0.023-0.228,0.067-0.299,0.168c-0.085,0.123-0.087,0.35-0.087,0.35v12.076
			c0,0.502-0.408,0.908-0.911,0.908c-0.501,0-0.909-0.406-0.909-0.908V29.656c0,0-0.004-0.227-0.089-0.35
			c-0.069-0.101-0.172-0.145-0.297-0.168c-2.808-0.545-4.214-2.82-4.214-6.84v-9.857c0-0.598,0.389-1.082,0.867-1.082
			s0.867,0.484,0.867,1.082v10.17c0,3.277,1.234,4.916,3.707,4.916c0.022,0,0.045,0,0.066,0c0.023,0,0.045,0,0.068,0
			c2.472,0,3.705-1.639,3.705-4.916v-10.17c0-0.598,0.39-1.082,0.869-1.082c0.479,0,0.866,0.484,0.866,1.082v9.857H30.509z"/>
	</g>
</g>
<g>
	<path fill="#710B0B" d="M49.909,27.05C48.865,39.896,38.116,50,25,50C11.884,50,1.134,39.896,0.091,27.05h-3.008
		C-1.863,41.535,10.25,53,25,53c14.749,0,26.862-11.465,27.917-25.95H49.909z"/>
</g>
</svg>
