<svg version="1.1" id="Ebene_1" xmlns="http://www.w3.org/2000/svg" xmlns:xlink="http://www.w3.org/1999/xlink" x="0px" y="0px"
	 width="48px" height="48px" viewBox="-4 -3 48 48" enable-background="new -4 -3 48 48" xml:space="preserve">
<g>
	<g>
		<path fill="#FFFFFF" d="M12.541,20.109c-0.142,0-0.279-0.058-0.38-0.169c-0.063-0.07-1.521-1.713-1.521-4.243
			c0-2.799,1.483-4.254,1.546-4.317c0.203-0.195,0.527-0.189,0.725,0.016c0.194,0.204,0.189,0.526-0.014,0.723
			c-0.054,0.052-1.232,1.239-1.232,3.579c0,2.141,1.244,3.543,1.258,3.556c0.188,0.211,0.172,0.534-0.037,0.724
			C12.787,20.066,12.663,20.109,12.541,20.109z"/>
		<path fill="#FFFFFF" d="M9.826,21.485c-0.14,0-0.279-0.056-0.378-0.167c-0.082-0.092-2.008-2.264-2.008-5.614
			c0-3.705,1.951-5.621,2.031-5.701c0.205-0.195,0.529-0.188,0.726,0.016c0.195,0.204,0.188,0.527-0.015,0.723
			c-0.024,0.023-1.721,1.723-1.721,4.963c0,2.944,1.727,4.909,1.744,4.928c0.189,0.21,0.173,0.534-0.039,0.722
			C10.07,21.442,9.948,21.485,9.826,21.485z"/>
		<path fill="#FFFFFF" d="M27.462,20.109c-0.12,0-0.244-0.043-0.343-0.132c-0.209-0.188-0.227-0.514-0.038-0.724
			c0.014-0.012,1.257-1.432,1.257-3.556c0-2.367-1.218-3.565-1.229-3.577c-0.206-0.196-0.214-0.521-0.018-0.724
			c0.196-0.205,0.521-0.211,0.726-0.016c0.063,0.062,1.546,1.518,1.546,4.317c0,2.53-1.46,4.173-1.521,4.243
			C27.741,20.051,27.603,20.109,27.462,20.109z"/>
		<path fill="#FFFFFF" d="M30.175,21.485c-0.12,0-0.245-0.043-0.342-0.132c-0.212-0.189-0.226-0.512-0.038-0.723
			c0.017-0.018,1.746-1.983,1.746-4.926c0-3.274-1.703-4.946-1.721-4.962c-0.206-0.196-0.212-0.52-0.017-0.724
			c0.196-0.203,0.521-0.211,0.722-0.015c0.084,0.08,2.035,1.995,2.035,5.7c0,3.35-1.924,5.521-2.008,5.614
			C30.457,21.432,30.316,21.485,30.175,21.485z"/>
		<path fill="#FFFFFF" d="M23.662,8.721c-0.941,0-1.708,0.841-1.708,1.876v8.017c0,2.853-1.284,2.853-1.898,2.853
			c-0.016,0-0.035,0-0.053,0c-0.016,0-0.036,0-0.052,0c-0.615,0-1.897,0-1.897-2.853v-8.017c0-1.034-0.766-1.876-1.709-1.876
			c-0.939,0-1.707,0.841-1.707,1.876v7.77c0,4.201,1.865,5.746,3.627,6.269v9.05c0,0.96,0.781,1.739,1.74,1.739
			c0.961,0,1.739-0.779,1.739-1.739v-9.05c1.762-0.522,3.628-2.067,3.628-6.269v-7.77C25.369,9.563,24.602,8.721,23.662,8.721z
			 M24.344,18.367c0,3.168-1.106,4.962-3.319,5.392c-0.101,0.019-0.18,0.053-0.236,0.133c-0.066,0.097-0.068,0.276-0.068,0.276
			v9.518c0,0.396-0.322,0.716-0.719,0.716c-0.395,0-0.717-0.32-0.717-0.716v-9.519c0,0-0.002-0.181-0.069-0.275
			c-0.055-0.081-0.136-0.116-0.233-0.135c-2.214-0.43-3.322-2.223-3.322-5.391v-7.77c0-0.471,0.307-0.853,0.684-0.853
			s0.684,0.381,0.684,0.853v8.016c0,2.583,0.973,3.876,2.922,3.876c0.018,0,0.035,0,0.052,0c0.018,0,0.036,0,0.054,0
			c1.948,0,2.92-1.293,2.92-3.876v-8.016c0-0.471,0.309-0.853,0.685-0.853c0.378,0,0.684,0.381,0.684,0.853v7.77L24.344,18.367
			L24.344,18.367z"/>
	</g>
</g>
<circle fill="none" stroke="#FFFFFF" stroke-width="2" stroke-miterlimit="10" cx="20" cy="21" r="20"/>
</svg>
