<svg version="1.1" id="Ebene_1" xmlns="http://www.w3.org/2000/svg" xmlns:xlink="http://www.w3.org/1999/xlink" x="0px" y="0px"
	 width="30px" height="30px" viewBox="0 0 30 30" enable-background="new 0 0 30 30" xml:space="preserve">
<path fill="#701510" d="M21.404,3H8.595C7.878,3,7.297,3.581,7.297,4.297v21.405C7.297,26.42,7.878,27,8.595,27h12.809
	c0.718,0,1.3-0.58,1.3-1.298V4.297C22.703,3.581,22.121,3,21.404,3z M15.682,26.35h-1.558c-0.292,0-0.528-0.236-0.528-0.529
	c0-0.291,0.236-0.527,0.528-0.527h1.558c0.291,0,0.527,0.236,0.527,0.527S15.973,26.35,15.682,26.35z M21.648,23.999
	c0,0.358-0.291,0.647-0.648,0.647H9c-0.358,0-0.649-0.289-0.649-0.647V4.864c0-0.358,0.291-0.649,0.649-0.649h12
	c0.357,0,0.648,0.291,0.648,0.649V23.999z"/>
</svg>
