<?xml version="1.0" encoding="utf-8"?>
<!-- Generator: Adobe Illustrator 16.0.0, SVG Export Plug-In . SVG Version: 6.00 Build 0)  -->
<!DOCTYPE svg PUBLIC "-//W3C//DTD SVG 1.1//EN" "http://www.w3.org/Graphics/SVG/1.1/DTD/svg11.dtd">
<svg version="1.1" id="Ebene_1" xmlns="http://www.w3.org/2000/svg" xmlns:xlink="http://www.w3.org/1999/xlink" x="0px" y="0px"
	 width="30px" height="30px" viewBox="0 0 30 30" enable-background="new 0 0 30 30" xml:space="preserve">
<path fill="#FFFFFF" d="M23.744,24.288l-1.12,1.087c-0.883,0.871-2.455,0.652-3.554,0.398c-1.521-0.349-3.1-0.844-4.39-1.741
	c-0.003,0-0.006-0.003-0.008-0.005c-3.755-2.108-6.643-5.59-8.088-9.64c-0.592-1.664-0.981-3.419-1.01-5.188
	C5.561,8.232,5.417,6.325,6.279,5.646l2.002-1.409c0.696-0.43,1.579-0.264,1.972,0.372c0.626,0.834,1.235,1.741,1.628,2.711
	c0.364,0.896,1.006,2.311,0.18,3.109c-1.125,0.925-1.716,1.58-1.183,3.059c0.569,1.988,1.944,3.729,3.446,5.106
	c0.472,0.432,0.988,0.781,1.539,1.1c0.912,0.531,1.465,0.386,2.277-0.289c0.707-0.646,1.418-0.911,2.03-0.484
	c1.038,0.632,2.021,1.35,2.968,2.107C24.354,22.007,25.039,22.969,23.744,24.288z"/>
</svg>
